<svg width="100%" viewBox="0 0 680 920" xmlns="http://www.w3.org/2000/svg">
<style>
  text { font-family: -apple-system, BlinkMacSystemFont, "Segoe UI", Roboto, sans-serif; }
  .th { font-size: 14px; font-weight: 500; }
  .ts { font-size: 12px; font-weight: 400; fill: #5F5E5A; }
  .arr { stroke: #888780; stroke-width: 1.5; }
  .fill-gray rect { fill: #F1EFE8; stroke: #5F5E5A; }
  .fill-gray .th { fill: #2C2C2A; }
  .fill-blue rect { fill: #E6F1FB; stroke: #185FA5; }
  .fill-blue .th { fill: #042C53; }
  .fill-teal rect { fill: #E1F5EE; stroke: #0F6E56; }
  .fill-teal .th { fill: #04342C; }
  .fill-amber rect { fill: #FAEEDA; stroke: #854F0B; }
  .fill-amber .th { fill: #412402; }
  .fill-coral rect { fill: #FAECE7; stroke: #993C1D; }
  .fill-coral .th { fill: #4A1B0C; }
  .fill-purple rect { fill: #EEEDFE; stroke: #534AB7; }
  .fill-purple .th { fill: #26215C; }
  .fill-pink rect { fill: #FBEAF0; stroke: #993556; }
  .fill-pink .th { fill: #4B1528; }
</style>
<defs>
  <marker id="arrow" viewBox="0 0 10 10" refX="8" refY="5" markerWidth="6" markerHeight="6" orient="auto-start-reverse">
    <path d="M2 1L8 5L2 9" fill="none" stroke="context-stroke" stroke-width="1.5" stroke-linecap="round" stroke-linejoin="round"/>
  </marker>
</defs>

<g class="fill-gray">
  <rect x="280" y="16" width="120" height="36" rx="8" stroke-width="0.5"/>
  <text class="th" x="340" y="34" text-anchor="middle" dominant-baseline="central">WAN</text>
</g>

<g class="fill-coral">
  <rect x="230" y="72" width="220" height="56" rx="8" stroke-width="0.5"/>
  <text class="th" x="340" y="92" text-anchor="middle" dominant-baseline="central">pfSense firewall</text>
  <text class="ts" x="340" y="110" text-anchor="middle" dominant-baseline="central">NAT · Bridge · 192.168.0.1</text>
</g>
<line x1="340" y1="52" x2="340" y2="70" class="arr" marker-end="url(#arrow)"/>

<g class="fill-amber">
  <rect x="490" y="72" width="170" height="56" rx="8" stroke-width="0.5"/>
  <text class="th" x="575" y="92" text-anchor="middle" dominant-baseline="central">Bastion VM</text>
  <text class="ts" x="575" y="110" text-anchor="middle" dominant-baseline="central">Tailscale · 192.168.0.50</text>
</g>
<line x1="450" y1="100" x2="488" y2="100" class="arr" marker-end="url(#arrow)"/>

<g class="fill-blue">
  <rect x="16" y="150" width="648" height="510" rx="16" stroke-width="0.5"/>
  <text class="th" x="32" y="172" dominant-baseline="central">K3S cluster — 192.168.0.0/24</text>
</g>

<g class="fill-purple">
  <rect x="36" y="190" width="608" height="100" rx="12" stroke-width="0.5"/>
  <text class="th" x="52" y="210" dominant-baseline="central">Server nodes (etcd + kubectl)</text>
</g>

<g class="fill-purple">
  <rect x="56" y="224" width="170" height="52" rx="8" stroke-width="0.5"/>
  <text class="th" x="141" y="242" text-anchor="middle" dominant-baseline="central">Server 1</text>
  <text class="ts" x="141" y="260" text-anchor="middle" dominant-baseline="central">192.168.0.201</text>
</g>

<g class="fill-purple">
  <rect x="250" y="224" width="170" height="52" rx="8" stroke-width="0.5"/>
  <text class="th" x="335" y="242" text-anchor="middle" dominant-baseline="central">Server 2</text>
  <text class="ts" x="335" y="260" text-anchor="middle" dominant-baseline="central">192.168.0.202</text>
</g>

<g class="fill-purple">
  <rect x="444" y="224" width="170" height="52" rx="8" stroke-width="0.5"/>
  <text class="th" x="529" y="242" text-anchor="middle" dominant-baseline="central">Server 3</text>
  <text class="ts" x="529" y="260" text-anchor="middle" dominant-baseline="central">192.168.0.203</text>
</g>

<g class="fill-teal">
  <rect x="36" y="310" width="608" height="100" rx="12" stroke-width="0.5"/>
  <text class="th" x="52" y="330" dominant-baseline="central">Agent nodes (workloads)</text>
</g>

<g class="fill-teal">
  <rect x="56" y="344" width="170" height="52" rx="8" stroke-width="0.5"/>
  <text class="th" x="141" y="362" text-anchor="middle" dominant-baseline="central">Agent 1</text>
  <text class="ts" x="141" y="380" text-anchor="middle" dominant-baseline="central">192.168.0.101</text>
</g>

<g class="fill-teal">
  <rect x="250" y="344" width="170" height="52" rx="8" stroke-width="0.5"/>
  <text class="th" x="335" y="362" text-anchor="middle" dominant-baseline="central">Agent 2</text>
  <text class="ts" x="335" y="380" text-anchor="middle" dominant-baseline="central">192.168.0.102</text>
</g>

<g class="fill-teal">
  <rect x="444" y="344" width="170" height="52" rx="8" stroke-width="0.5"/>
  <text class="th" x="529" y="362" text-anchor="middle" dominant-baseline="central">Agent 3</text>
  <text class="ts" x="529" y="380" text-anchor="middle" dominant-baseline="central">192.168.0.103</text>
</g>

<g class="fill-blue">
  <rect x="36" y="430" width="608" height="110" rx="12" stroke-width="0.5"/>
  <text class="th" x="52" y="450" dominant-baseline="central">Deployed services</text>
</g>

<g class="fill-coral">
  <rect x="56" y="462" width="90" height="64" rx="6" stroke-width="0.5"/>
  <text class="th" x="101" y="482" text-anchor="middle" dominant-baseline="central">Traefik</text>
  <text class="ts" x="101" y="500" text-anchor="middle" dominant-baseline="central">x2 · Ingress</text>
  <text class="ts" x="101" y="516" text-anchor="middle" dominant-baseline="central">.151</text>
</g>

<g class="fill-amber">
  <rect x="156" y="462" width="90" height="64" rx="6" stroke-width="0.5"/>
  <text class="th" x="201" y="482" text-anchor="middle" dominant-baseline="central">Prometheus</text>
  <text class="ts" x="201" y="500" text-anchor="middle" dominant-baseline="central">x2 · Metrics</text>
  <text class="ts" x="201" y="516" text-anchor="middle" dominant-baseline="central">.155</text>
</g>

<g class="fill-amber">
  <rect x="256" y="462" width="90" height="64" rx="6" stroke-width="0.5"/>
  <text class="th" x="301" y="482" text-anchor="middle" dominant-baseline="central">Alertmgr</text>
  <text class="ts" x="301" y="500" text-anchor="middle" dominant-baseline="central">x2 · Alerts</text>
  <text class="ts" x="301" y="516" text-anchor="middle" dominant-baseline="central">.156</text>
</g>

<g class="fill-pink">
  <rect x="356" y="462" width="90" height="64" rx="6" stroke-width="0.5"/>
  <text class="th" x="401" y="482" text-anchor="middle" dominant-baseline="central">Grafana</text>
  <text class="ts" x="401" y="500" text-anchor="middle" dominant-baseline="central">x1 · Dashboards</text>
  <text class="ts" x="401" y="516" text-anchor="middle" dominant-baseline="central">.153</text>
</g>

<g class="fill-pink">
  <rect x="456" y="462" width="90" height="64" rx="6" stroke-width="0.5"/>
  <text class="th" x="501" y="482" text-anchor="middle" dominant-baseline="central">Loki</text>
  <text class="ts" x="501" y="500" text-anchor="middle" dominant-baseline="central">x1 · Logs</text>
  <text class="ts" x="501" y="516" text-anchor="middle" dominant-baseline="central">.154</text>
</g>

<g class="fill-teal">
  <rect x="556" y="462" width="78" height="64" rx="6" stroke-width="0.5"/>
  <text class="th" x="595" y="482" text-anchor="middle" dominant-baseline="central">GLPI</text>
  <text class="ts" x="595" y="500" text-anchor="middle" dominant-baseline="central">x1 · ITSM</text>
  <text class="ts" x="595" y="516" text-anchor="middle" dominant-baseline="central">.157</text>
</g>

<g class="fill-gray">
  <rect x="36" y="558" width="608" height="44" rx="8" stroke-width="0.5"/>
  <text class="th" x="340" y="572" text-anchor="middle" dominant-baseline="central">MetalLB · Longhorn (storage) · Trivy (security) · MariaDB exporter · GLPI agent</text>
  <text class="ts" x="340" y="592" text-anchor="middle" dominant-baseline="central">Longhorn provides persistent volumes (PVCs) for stateful services</text>
</g>

<g class="fill-gray">
  <rect x="36" y="618" width="608" height="30" rx="6" stroke-width="0.5"/>
  <text class="ts" x="340" y="636" text-anchor="middle" dominant-baseline="central">Persistent storage: PVCs backed by Longhorn distributed across agent nodes</text>
</g>

<g class="fill-purple">
  <rect x="16" y="690" width="648" height="130" rx="14" stroke-width="0.5"/>
  <text class="th" x="32" y="712" dominant-baseline="central">CI/CD pipeline (GitLab)</text>
</g>

<g class="fill-gray">
  <rect x="36" y="730" width="150" height="72" rx="8" stroke-width="0.5"/>
  <text class="th" x="111" y="750" text-anchor="middle" dominant-baseline="central">Git push trigger</text>
  <text class="ts" x="111" y="768" text-anchor="middle" dominant-baseline="central">prometheus.yaml</text>
  <text class="ts" x="111" y="784" text-anchor="middle" dominant-baseline="central">mysqlexporter.yaml</text>
</g>

<g class="fill-amber">
  <rect x="226" y="740" width="120" height="52" rx="8" stroke-width="0.5"/>
  <text class="th" x="286" y="758" text-anchor="middle" dominant-baseline="central">Validate</text>
  <text class="ts" x="286" y="776" text-anchor="middle" dominant-baseline="central">Lint YAML</text>
</g>

<g class="fill-teal">
  <rect x="386" y="740" width="120" height="52" rx="8" stroke-width="0.5"/>
  <text class="th" x="446" y="758" text-anchor="middle" dominant-baseline="central">Deploy</text>
  <text class="ts" x="446" y="776" text-anchor="middle" dominant-baseline="central">Helm install</text>
</g>

<g class="fill-coral">
  <rect x="546" y="740" width="100" height="52" rx="8" stroke-width="0.5"/>
  <text class="th" x="596" y="758" text-anchor="middle" dominant-baseline="central">Upgrade</text>
  <text class="ts" x="596" y="776" text-anchor="middle" dominant-baseline="central">helm upgrade</text>
</g>

<line x1="186" y1="766" x2="224" y2="766" class="arr" marker-end="url(#arrow)"/>
<line x1="346" y1="766" x2="384" y2="766" class="arr" marker-end="url(#arrow)"/>
<line x1="506" y1="766" x2="544" y2="766" class="arr" marker-end="url(#arrow)"/>

<line x1="340" y1="690" x2="340" y2="660" stroke="#534AB7" stroke-width="1" stroke-dasharray="4 3" marker-end="url(#arrow)"/>
<text class="ts" x="352" y="678" dominant-baseline="central">deploys to cluster</text>

<text class="ts" x="16" y="850" dominant-baseline="central">I built 100% of the infrastructure. Teammates only added their own exporters and alert configs.</text>
<text class="ts" x="16" y="870" dominant-baseline="central">3 server nodes (HA etcd) + 3 agent nodes · Monitoring: Prometheus + Alertmanager + Grafana + Loki</text>
<text class="ts" x="16" y="890" dominant-baseline="central">Networking: Traefik ingress + MetalLB load balancer · Storage: Longhorn PVCs · Security: Trivy scanning</text>
<text class="ts" x="16" y="910" dominant-baseline="central">Remote access via Tailscale VPN through bastion host · All behind pfSense firewall</text>

</svg>