<?plantuml 1.2026.1?><svg xmlns="http://www.w3.org/2000/svg" xmlns:xlink="http://www.w3.org/1999/xlink" contentStyleType="text/css" data-diagram-type="DESCRIPTION" height="1995px" preserveAspectRatio="none" style="width:1909px;height:1995px;" version="1.1" viewBox="0 0 1909 1995" width="1909px" zoomAndPan="magnify"><defs/><g><!--cluster Area0--><g class="cluster" data-qualified-name="Area0" data-source-line="12" id="ent0002"><path d="M618.9033,64.8946 C639.4363,24.64 678.5187,24.1382 702.2743,61.4299 C732.7222,18.2878 768.5087,17.1159 796.7464,63.7556 C816.8001,22.5167 856.8729,15.896 883.406,56.9307 C910.9124,20.7993 938.5642,7.1359 970.0493,52.7116 C1002.2259,12.0447 1031.4096,10.8442 1057.0865,59.0753 C1079.3297,12.7356 1105.5801,8.8386 1141.0009,45.8008 C1171.6363,11.6075 1199.2152,16.9252 1223.1607,53.5609 C1259.1112,11.5491 1290.3567,6 1322.7942,57.3114 C1345.7999,21.9069 1377.2524,7.7139 1406.3274,50.8569 C1425.1902,8.1391 1464.1706,9.5901 1485.4937,48.47 C1515.3459,7.1305 1561.6975,6.383 1584.582,56.0559 C1605.0079,18.0094 1635.0136,19.1575 1658.1375,53.307 C1685.5421,12.6389 1717.5158,12.9694 1744.9323,53.2942 C1774.2922,10.4735 1814.7132,20.2405 1837.96,60.1668 C1839.8264,58.6243 1841.5962,59.1508 1842.1097,61.5803 C1891.7646,83.6798 1888.5948,128.6986 1845.425,154.1234 C1887.1916,187.0167 1893.9786,220.9065 1848.0804,256.0829 C1897.2485,282.5542 1902.1354,316.4101 1853.2045,348.3306 C1889.5677,378.1173 1887.1232,407.4074 1844.533,428.6725 C1896.8121,465.3491 1890.7446,498.5249 1842.8209,533.566 C1878.6918,557.2288 1881.7739,594.7214 1843.9063,619.3176 C1892.3951,644.9896 1894.3668,674.8268 1851.1453,707.986 C1886.3927,748.4467 1880.3471,780.6549 1830.96,803.1668 C1832.0199,803.6426 1832.4558,804.4701 1831.3898,805.3621 C1808.7669,843.1134 1776.0141,845.8592 1751.1874,807.6902 C1729.9723,853.5932 1691.5354,849.5788 1666.5353,811.5057 C1648.2751,853.1878 1605.382,853.3226 1580.6833,818.7551 C1552.1745,856.2504 1515.4295,851.635 1491.6608,813.1979 C1470.9022,862.9324 1438.368,863.8972 1405.9728,824.3685 C1379.9693,876.1723 1336.8918,867.8161 1310.4835,824.776 C1282.9246,863.8328 1250.7243,856.021 1232.795,815.3882 C1207.3111,858.3818 1167.8232,848.4255 1147.1739,810.286 C1126.2412,858.8459 1084.3958,861.5769 1056.5723,816.9884 C1022.9616,856.0208 991.2865,866.1974 960.9776,813.5458 C937.5061,853.5458 906.7793,845.8917 886.4717,810.4223 C861.4533,855.24 833.5672,862.0749 798.3523,820.8669 C770.8692,856.7917 730.803,862.1219 706.7593,816.9808 C665.9875,856.4728 625.3772,848.2089 602.96,796.1668 C608.7363,794.9328 611.982,797.501 611.4297,803.5384 C567.2305,776.1136 564.753,747.1407 606.2563,714.7238 C568.8717,693.4719 558.7052,655.6543 598.7986,627.7583 C547.4655,600.4383 544.3049,557.4232 596.4108,527.6364 C556.6868,504.5446 553.3426,466.1713 592.2368,439.3621 C555.589,397.3649 555.3765,363.7853 610.2612,338.077 C566.8732,313.6351 574.963,282.9413 607.4449,255.8992 C560.124,230.442 565.7761,192.6848 606.8926,166.6801 C556.4808,127.6504 561.1459,89.5152 609.96,53.1668 C618.7848,51.8191 622.1416,57.0433 618.9033,64.8946" fill="none" style="stroke:#181818;stroke-width:1;"/><text fill="#000000" font-family="Arial" font-size="14" font-weight="bold" lengthAdjust="spacing" textLength="145.7969" x="1147.5616" y="71.1619">Area 0 (Backbone)</text></g><!--cluster R0--><g class="cluster" data-qualified-name="Area0.R0" data-source-line="13" id="ent0003"><polygon fill="none" points="1471.96,98.1668,1481.96,88.1668,1670.96,88.1668,1670.96,273.1668,1660.96,283.1668,1471.96,283.1668,1471.96,98.1668" style="stroke:#181818;stroke-width:1;"/><line style="stroke:#181818;stroke-width:1;" x1="1660.96" x2="1670.96" y1="98.1668" y2="88.1668"/><line style="stroke:#181818;stroke-width:1;" x1="1471.96" x2="1660.96" y1="98.1668" y2="98.1668"/><line style="stroke:#181818;stroke-width:1;" x1="1660.96" x2="1660.96" y1="98.1668" y2="283.1668"/><text fill="#000000" font-family="Arial" font-size="14" font-style="italic" lengthAdjust="spacing" textLength="75.25" x="1529.835" y="114.1619">&#171;ROUTER&#187;</text><text fill="#000000" font-family="Arial" font-size="14" font-weight="bold" lengthAdjust="spacing" textLength="20.5215" x="1557.1993" y="130.4588">R0</text><text fill="#000000" font-family="Arial" font-size="14" font-weight="bold" lengthAdjust="spacing" textLength="22.4014" x="1556.2593" y="146.7557">DR</text><text fill="#000000" font-family="Arial" font-size="14" font-weight="bold" lengthAdjust="spacing" textLength="123.1084" x="1505.9058" y="163.0525">192.168.255.14</text></g><!--cluster R1--><g class="cluster" data-qualified-name="Area0.R1" data-source-line="17" id="ent0005"><polygon fill="none" points="618.96,350.1668,628.96,340.1668,1638.96,340.1668,1638.96,525.1668,1628.96,535.1668,618.96,535.1668,618.96,350.1668" style="stroke:#181818;stroke-width:1;"/><line style="stroke:#181818;stroke-width:1;" x1="1628.96" x2="1638.96" y1="350.1668" y2="340.1668"/><line style="stroke:#181818;stroke-width:1;" x1="618.96" x2="1628.96" y1="350.1668" y2="350.1668"/><line style="stroke:#181818;stroke-width:1;" x1="1628.96" x2="1628.96" y1="350.1668" y2="535.1668"/><text fill="#000000" font-family="Arial" font-size="14" font-style="italic" lengthAdjust="spacing" textLength="75.25" x="1087.335" y="366.1619">&#171;ROUTER&#187;</text><text fill="#000000" font-family="Arial" font-size="14" font-weight="bold" lengthAdjust="spacing" textLength="20.5215" x="1114.6993" y="382.4588">R1</text><text fill="#000000" font-family="Arial" font-size="14" font-weight="bold" lengthAdjust="spacing" textLength="33.0723" x="1108.4239" y="398.7557">BDR</text><text fill="#000000" font-family="Arial" font-size="14" font-weight="bold" lengthAdjust="spacing" textLength="113.3672" x="1068.2764" y="415.0525">192.168.255.1</text></g><!--cluster R2--><g class="cluster" data-qualified-name="Area0.R2" data-source-line="25" id="ent0011"><polygon fill="none" points="785.96,602.1668,795.96,592.1668,1821.96,592.1668,1821.96,777.1668,1811.96,787.1668,785.96,787.1668,785.96,602.1668" style="stroke:#181818;stroke-width:1;"/><line style="stroke:#181818;stroke-width:1;" x1="1811.96" x2="1821.96" y1="602.1668" y2="592.1668"/><line style="stroke:#181818;stroke-width:1;" x1="785.96" x2="1811.96" y1="602.1668" y2="602.1668"/><line style="stroke:#181818;stroke-width:1;" x1="1811.96" x2="1811.96" y1="602.1668" y2="787.1668"/><text fill="#000000" font-family="Arial" font-size="14" font-style="italic" lengthAdjust="spacing" textLength="75.25" x="1262.335" y="618.1619">&#171;ROUTER&#187;</text><text fill="#000000" font-family="Arial" font-size="14" font-weight="bold" lengthAdjust="spacing" textLength="20.5215" x="1289.6993" y="634.4588">R2</text><text fill="#000000" font-family="Arial" font-size="14" font-weight="bold" lengthAdjust="spacing" textLength="67.3613" x="1266.2793" y="650.7557">DROther</text><text fill="#000000" font-family="Arial" font-size="14" font-weight="bold" lengthAdjust="spacing" textLength="113.3672" x="1243.2764" y="667.0525">192.168.255.2</text></g><!--cluster Area1--><g class="cluster" data-qualified-name="Area1" data-source-line="39" id="ent0020"><path d="M230.0095,873.6412 C267.9614,820.4893 302.7914,823.0276 338.4783,875.9573 C354.7292,829.2353 396.7764,832.5698 422.2618,866.3458 C454.7261,815.2901 494.3832,829.5739 520.5264,872.9252 C554.5656,814.6712 598.7905,828.6033 628.7614,877.052 C647.776,820.4889 697.6656,823.1028 730.6327,862.1923 C770.0698,817.409 803.6017,826.4916 829.6529,876.2172 C855.5285,830.5863 883.653,825.3305 920.5967,864.3224 C955.8971,821.9839 996.249,816.5206 1025.0589,871.3035 C1051.2669,825.8733 1091.0074,825.5898 1121.8767,866.0493 C1155.0546,818.5258 1200.8427,831.3871 1222.4957,878.3255 C1248.8545,840.3636 1276.2739,832.7604 1307.404,873.1553 C1337.9809,826.8164 1382.2815,826.9038 1415.4221,870.0609 C1440.0357,831.404 1487.7931,819.4536 1510.7191,871.8277 C1537.2354,824.7126 1584.5237,832.5861 1607.96,875.1668 C1611.4847,870.4444 1616.4519,871.3411 1618.0294,877.0471 C1668.3545,919.188 1668.4732,955.8456 1609.2484,989.4267 C1664.7314,1021.072 1664.1061,1054.9527 1615.0748,1092.5056 C1661.1142,1124.0749 1661.7505,1161.1103 1615.5678,1193.1314 C1659.4511,1217.6772 1666.278,1264.3635 1619.0634,1292.126 C1665.2816,1315.3562 1658.1347,1356.3512 1621.063,1381.4462 C1661.289,1414.5351 1656.6621,1456.839 1611.6118,1481.9051 C1667.816,1505.1215 1665.3846,1547.485 1624.3862,1582.9858 C1660.3153,1625.9776 1659.1784,1666.3841 1600.96,1688.4668 C1607.287,1692.2159 1609.9148,1696.4676 1603.2344,1702.3479 C1567.0135,1741.9545 1531.1221,1739.455 1506.1425,1690.0818 C1484.8928,1732.1897 1445.3537,1735.0613 1419.2951,1695.1754 C1389.8173,1744.646 1344.3521,1749.5884 1317.1841,1692.9526 C1285.1506,1748.4937 1252.0828,1749.3382 1213.9579,1698.8848 C1179.6288,1754.4669 1147.0018,1747.6793 1110.358,1701.2353 C1077.4135,1742.5171 1044.1708,1749.3753 1014.1209,1698.2217 C993.0091,1742.6037 950.9068,1751.537 923.6671,1704.2696 C891.4132,1744.7747 852.2722,1739.3398 825.6839,1697.5259 C797.7373,1741.8349 765.1035,1748.9138 729.9572,1705.3709 C697.1109,1744.9539 664.3459,1747.7106 631.6181,1705.2289 C604.5885,1747.8763 555.1625,1756.0078 528.0292,1705.344 C490.4283,1742.4347 455.0725,1750.9989 427.4937,1694.57 C401.6244,1736.526 355.1942,1731.9584 331.3581,1692.1786 C288.2126,1741.2425 248.3862,1747.8828 215.96,1681.4668 C220.4889,1677.5642 224.7251,1677.7243 227.0407,1683.9002 C182.8203,1664.664 175.5676,1627.7105 215.9015,1597.5649 C154.2305,1563.8733 156.3848,1513.5141 216.3033,1480.2389 C168.5476,1450.1245 168.4625,1406.2571 222.6587,1382.7919 C175.8879,1357.2426 175.0618,1315.063 213.868,1282.0465 C173.899,1250.3244 173.0954,1216.0751 219.8416,1189.9794 C182.0968,1161.3547 176.8541,1113.6503 228.5523,1093.0647 C168.9112,1064.5783 171.1101,1017.2407 215.2892,976.9007 C163.5982,936.7873 162.9029,900.3968 222.96,868.1668 C228.0716,866.0843 230.4092,868.6269 230.0095,873.6412" fill="none" style="stroke:#181818;stroke-width:1;"/><text fill="#000000" font-family="Arial" font-size="14" font-weight="bold" lengthAdjust="spacing" textLength="51.2969" x="886.3116" y="886.1619">Area 1</text></g><!--cluster R4--><g class="cluster" data-qualified-name="Area1.R4" data-source-line="40" id="ent0021"><polygon fill="none" points="387.96,913.1668,397.96,903.1668,969.96,903.1668,969.96,1088.1668,959.96,1098.1668,387.96,1098.1668,387.96,913.1668" style="stroke:#181818;stroke-width:1;"/><line style="stroke:#181818;stroke-width:1;" x1="959.96" x2="969.96" y1="913.1668" y2="903.1668"/><line style="stroke:#181818;stroke-width:1;" x1="387.96" x2="959.96" y1="913.1668" y2="913.1668"/><line style="stroke:#181818;stroke-width:1;" x1="959.96" x2="959.96" y1="913.1668" y2="1098.1668"/><text fill="#000000" font-family="Arial" font-size="14" font-style="italic" lengthAdjust="spacing" textLength="75.25" x="637.335" y="929.1619">&#171;ROUTER&#187;</text><text fill="#000000" font-family="Arial" font-size="14" font-weight="bold" lengthAdjust="spacing" textLength="20.5215" x="664.6993" y="945.4588">R4</text><text fill="#000000" font-family="Arial" font-size="14" font-weight="bold" lengthAdjust="spacing" textLength="137.3545" x="606.2828" y="961.7557">Router-on-a-stick</text><text fill="#000000" font-family="Arial" font-size="14" font-weight="bold" lengthAdjust="spacing" textLength="45.6846" x="652.1177" y="978.0525">Site 1</text></g><!--cluster R3--><g class="cluster" data-qualified-name="Area1.R3" data-source-line="46" id="ent0025"><polygon fill="none" points="797.96,1165.1668,807.96,1155.1668,1591.96,1155.1668,1591.96,1340.1668,1581.96,1350.1668,797.96,1350.1668,797.96,1165.1668" style="stroke:#181818;stroke-width:1;"/><line style="stroke:#181818;stroke-width:1;" x1="1581.96" x2="1591.96" y1="1165.1668" y2="1155.1668"/><line style="stroke:#181818;stroke-width:1;" x1="797.96" x2="1581.96" y1="1165.1668" y2="1165.1668"/><line style="stroke:#181818;stroke-width:1;" x1="1581.96" x2="1581.96" y1="1165.1668" y2="1350.1668"/><text fill="#000000" font-family="Arial" font-size="14" font-style="italic" lengthAdjust="spacing" textLength="75.25" x="1153.335" y="1181.1619">&#171;ROUTER&#187;</text><text fill="#000000" font-family="Arial" font-size="14" font-weight="bold" lengthAdjust="spacing" textLength="20.5215" x="1180.6993" y="1197.4588">R3</text><text fill="#000000" font-family="Arial" font-size="14" font-weight="bold" lengthAdjust="spacing" textLength="137.3545" x="1122.2828" y="1213.7557">Router-on-a-stick</text><text fill="#000000" font-family="Arial" font-size="14" font-weight="bold" lengthAdjust="spacing" textLength="45.6846" x="1168.1177" y="1230.0525">Site 2</text></g><!--cluster SW1--><g class="cluster" data-qualified-name="Area1.SW1" data-source-line="61" id="ent0035"><polygon fill="none" points="231.96,1198.1668,241.96,1188.1668,749.96,1188.1668,749.96,1340.1668,739.96,1350.1668,231.96,1350.1668,231.96,1198.1668" style="stroke:#181818;stroke-width:1;"/><line style="stroke:#181818;stroke-width:1;" x1="739.96" x2="749.96" y1="1198.1668" y2="1188.1668"/><line style="stroke:#181818;stroke-width:1;" x1="231.96" x2="739.96" y1="1198.1668" y2="1198.1668"/><line style="stroke:#181818;stroke-width:1;" x1="739.96" x2="739.96" y1="1198.1668" y2="1350.1668"/><text fill="#000000" font-family="Arial" font-size="14" font-style="italic" lengthAdjust="spacing" textLength="72.8438" x="450.5381" y="1214.1619">&#171;SWITCH&#187;</text><text fill="#000000" font-family="Arial" font-size="14" font-weight="bold" lengthAdjust="spacing" textLength="35.2666" x="469.3267" y="1230.4588">SW1</text></g><!--cluster SW2--><g class="cluster" data-qualified-name="Area1.SW2" data-source-line="67" id="ent0039"><polygon fill="none" points="647.96,1417.1668,657.96,1407.1668,1165.96,1407.1668,1165.96,1559.1668,1155.96,1569.1668,647.96,1569.1668,647.96,1417.1668" style="stroke:#181818;stroke-width:1;"/><line style="stroke:#181818;stroke-width:1;" x1="1155.96" x2="1165.96" y1="1417.1668" y2="1407.1668"/><line style="stroke:#181818;stroke-width:1;" x1="647.96" x2="1155.96" y1="1417.1668" y2="1417.1668"/><line style="stroke:#181818;stroke-width:1;" x1="1155.96" x2="1155.96" y1="1417.1668" y2="1569.1668"/><text fill="#000000" font-family="Arial" font-size="14" font-style="italic" lengthAdjust="spacing" textLength="72.8438" x="866.5381" y="1433.1619">&#171;SWITCH&#187;</text><text fill="#000000" font-family="Arial" font-size="14" font-weight="bold" lengthAdjust="spacing" textLength="35.2666" x="885.3267" y="1449.4588">SW2</text></g><!--entity R0_g0--><g class="entity" data-qualified-name="Area0.R0.R0_g0" data-source-line="14" id="ent0004"><ellipse cx="1570.96" cy="222.1668" fill="#F1F1F1" rx="8" ry="8" style="stroke:#181818;stroke-width:0.5;"/><text fill="#000000" font-family="Arial" font-size="14" lengthAdjust="spacing" textLength="31.418" x="1504.0293" y="252.1619">g0/0</text><text fill="#000000" font-family="Arial" font-size="14" lengthAdjust="spacing" textLength="133.8613" x="1504.0293" y="268.4588">192.168.255.14/28</text></g><!--entity R1_g0--><g class="entity" data-qualified-name="Area0.R1.R1_g0" data-source-line="18" id="ent0006"><ellipse cx="1128.96" cy="474.1668" fill="#F1F1F1" rx="8" ry="8" style="stroke:#181818;stroke-width:0.5;"/><text fill="#000000" font-family="Arial" font-size="14" lengthAdjust="spacing" textLength="31.418" x="1066.4829" y="504.1619">g0/0</text><text fill="#000000" font-family="Arial" font-size="14" lengthAdjust="spacing" textLength="124.9541" x="1066.4829" y="520.4588">192.168.255.1/28</text></g><!--entity R1_g1--><g class="entity" data-qualified-name="Area0.R1.R1_g1" data-source-line="19" id="ent0007"><ellipse cx="1344.96" cy="474.1668" fill="#F1F1F1" rx="8" ry="8" style="stroke:#181818;stroke-width:0.5;"/><text fill="#000000" font-family="Arial" font-size="14" lengthAdjust="spacing" textLength="31.418" x="1286.9366" y="504.1619">g1/0</text><text fill="#000000" font-family="Arial" font-size="14" lengthAdjust="spacing" textLength="116.0469" x="1286.9366" y="520.4588">172.18.255.5/30</text></g><!--entity R1_g2--><g class="entity" data-qualified-name="Area0.R1.R1_g2" data-source-line="20" id="ent0008"><ellipse cx="700.96" cy="474.1668" fill="#F1F1F1" rx="8" ry="8" style="stroke:#181818;stroke-width:0.5;"/><text fill="#000000" font-family="Arial" font-size="14" lengthAdjust="spacing" textLength="31.418" x="642.9366" y="504.1619">g2/0</text><text fill="#000000" font-family="Arial" font-size="14" lengthAdjust="spacing" textLength="116.0469" x="642.9366" y="520.4588">172.18.254.1/24</text></g><!--entity R1_g3--><g class="entity" data-qualified-name="Area0.R1.R1_g3" data-source-line="21" id="ent0009"><ellipse cx="912.96" cy="474.1668" fill="#F1F1F1" rx="8" ry="8" style="stroke:#181818;stroke-width:0.5;"/><text fill="#000000" font-family="Arial" font-size="14" lengthAdjust="spacing" textLength="31.418" x="854.9366" y="504.1619">g3/0</text><text fill="#000000" font-family="Arial" font-size="14" lengthAdjust="spacing" textLength="116.0469" x="854.9366" y="520.4588">172.18.255.9/30</text></g><!--entity R1_e4--><g class="entity" data-qualified-name="Area0.R1.R1_e4" data-source-line="22" id="ent0010"><ellipse cx="1556.96" cy="474.1668" fill="#F1F1F1" rx="8" ry="8" style="stroke:#181818;stroke-width:0.5;"/><text fill="#000000" font-family="Arial" font-size="14" lengthAdjust="spacing" textLength="31.1445" x="1498.9366" y="504.1619">e4/0</text><text fill="#000000" font-family="Arial" font-size="14" lengthAdjust="spacing" textLength="116.0469" x="1498.9366" y="520.4588">172.18.255.1/30</text></g><!--entity R2_g0--><g class="entity" data-qualified-name="Area0.R2.R2_g0" data-source-line="26" id="ent0012"><ellipse cx="1735.96" cy="726.1668" fill="#F1F1F1" rx="8" ry="8" style="stroke:#181818;stroke-width:0.5;"/><text fill="#000000" font-family="Arial" font-size="14" lengthAdjust="spacing" textLength="31.418" x="1673.4829" y="756.1619">g0/0</text><text fill="#000000" font-family="Arial" font-size="14" lengthAdjust="spacing" textLength="124.9541" x="1673.4829" y="772.4588">192.168.255.2/28</text></g><!--entity R2_g1--><g class="entity" data-qualified-name="Area0.R2.R2_g1" data-source-line="27" id="ent0013"><ellipse cx="1519.96" cy="726.1668" fill="#F1F1F1" rx="8" ry="8" style="stroke:#181818;stroke-width:0.5;"/><text fill="#000000" font-family="Arial" font-size="14" lengthAdjust="spacing" textLength="31.418" x="1461.9366" y="756.1619">g1/0</text><text fill="#000000" font-family="Arial" font-size="14" lengthAdjust="spacing" textLength="116.0469" x="1461.9366" y="772.4588">172.18.255.6/30</text></g><!--entity R2_g2--><g class="entity" data-qualified-name="Area0.R2.R2_g2" data-source-line="28" id="ent0014"><ellipse cx="1307.96" cy="726.1668" fill="#F1F1F1" rx="8" ry="8" style="stroke:#181818;stroke-width:0.5;"/><text fill="#000000" font-family="Arial" font-size="14" lengthAdjust="spacing" textLength="31.418" x="1249.9366" y="756.1619">g2/0</text><text fill="#000000" font-family="Arial" font-size="14" lengthAdjust="spacing" textLength="116.0469" x="1249.9366" y="772.4588">172.18.254.2/24</text></g><!--entity R2_g3--><g class="entity" data-qualified-name="Area0.R2.R2_g3" data-source-line="29" id="ent0015"><ellipse cx="871.96" cy="726.1668" fill="#F1F1F1" rx="8" ry="8" style="stroke:#181818;stroke-width:0.5;"/><text fill="#000000" font-family="Arial" font-size="14" lengthAdjust="spacing" textLength="31.418" x="809.4829" y="756.1619">g3/0</text><text fill="#000000" font-family="Arial" font-size="14" lengthAdjust="spacing" textLength="124.9541" x="809.4829" y="772.4588">172.18.255.10/30</text></g><!--entity R2_f3--><g class="entity" data-qualified-name="Area0.R2.R2_f3" data-source-line="30" id="ent0016"><ellipse cx="1091.96" cy="726.1668" fill="#F1F1F1" rx="8" ry="8" style="stroke:#181818;stroke-width:0.5;"/><text fill="#000000" font-family="Arial" font-size="14" lengthAdjust="spacing" textLength="27.46" x="1029.4829" y="756.1619">f3/0</text><text fill="#000000" font-family="Arial" font-size="14" lengthAdjust="spacing" textLength="124.9541" x="1029.4829" y="772.4588">172.18.255.21/30</text></g><!--entity VLAN 50 Data--><g class="entity" data-qualified-name="Area1.VLAN 50 Data" data-source-line="76" id="ent0045"><rect fill="#F1F1F1" height="46.2969" rx="2.5" ry="2.5" style="stroke:#181818;stroke-width:0.5;" width="137.5693" x="224.17" y="1485.0168"/><rect fill="#F1F1F1" height="10" style="stroke:#181818;stroke-width:0.5;" width="15" x="341.7393" y="1490.0168"/><rect fill="#F1F1F1" height="2" style="stroke:#181818;stroke-width:0.5;" width="4" x="339.7393" y="1492.0168"/><rect fill="#F1F1F1" height="2" style="stroke:#181818;stroke-width:0.5;" width="4" x="339.7393" y="1496.0168"/><text fill="#000000" font-family="Arial" font-size="14" lengthAdjust="spacing" textLength="97.5693" x="239.17" y="1518.0119">VLAN 50 Data</text></g><!--entity VLAN 60 Voice--><g class="entity" data-qualified-name="Area1.VLAN 60 Voice" data-source-line="77" id="ent0047"><rect fill="#F1F1F1" height="46.2969" rx="2.5" ry="2.5" style="stroke:#181818;stroke-width:0.5;" width="142.4844" x="441.71" y="1485.0168"/><rect fill="#F1F1F1" height="10" style="stroke:#181818;stroke-width:0.5;" width="15" x="564.1944" y="1490.0168"/><rect fill="#F1F1F1" height="2" style="stroke:#181818;stroke-width:0.5;" width="4" x="562.1944" y="1492.0168"/><rect fill="#F1F1F1" height="2" style="stroke:#181818;stroke-width:0.5;" width="4" x="562.1944" y="1496.0168"/><text fill="#000000" font-family="Arial" font-size="14" lengthAdjust="spacing" textLength="102.4844" x="456.71" y="1518.0119">VLAN 60 Voice</text></g><!--entity VLAN 10 Data--><g class="entity" data-qualified-name="Area1.VLAN 10 Data" data-source-line="78" id="ent0049"><rect fill="#F1F1F1" height="46.2969" rx="2.5" ry="2.5" style="stroke:#181818;stroke-width:0.5;" width="137.5693" x="644.17" y="1634.1668"/><rect fill="#F1F1F1" height="10" style="stroke:#181818;stroke-width:0.5;" width="15" x="761.7393" y="1639.1668"/><rect fill="#F1F1F1" height="2" style="stroke:#181818;stroke-width:0.5;" width="4" x="759.7393" y="1641.1668"/><rect fill="#F1F1F1" height="2" style="stroke:#181818;stroke-width:0.5;" width="4" x="759.7393" y="1645.1668"/><text fill="#000000" font-family="Arial" font-size="14" lengthAdjust="spacing" textLength="97.5693" x="659.17" y="1667.1619">VLAN 10 Data</text></g><!--entity VLAN 20 Voice--><g class="entity" data-qualified-name="Area1.VLAN 20 Voice" data-source-line="79" id="ent0051"><rect fill="#F1F1F1" height="46.2969" rx="2.5" ry="2.5" style="stroke:#181818;stroke-width:0.5;" width="142.4844" x="861.71" y="1634.1668"/><rect fill="#F1F1F1" height="10" style="stroke:#181818;stroke-width:0.5;" width="15" x="984.1944" y="1639.1668"/><rect fill="#F1F1F1" height="2" style="stroke:#181818;stroke-width:0.5;" width="4" x="982.1944" y="1641.1668"/><rect fill="#F1F1F1" height="2" style="stroke:#181818;stroke-width:0.5;" width="4" x="982.1944" y="1645.1668"/><text fill="#000000" font-family="Arial" font-size="14" lengthAdjust="spacing" textLength="102.4844" x="876.71" y="1667.1619">VLAN 20 Voice</text></g><!--entity R4_g0--><g class="entity" data-qualified-name="Area1.R4.R4_g0" data-source-line="41" id="ent0022"><ellipse cx="663.96" cy="1037.1668" fill="#F1F1F1" rx="8" ry="8" style="stroke:#181818;stroke-width:0.5;"/><text fill="#000000" font-family="Arial" font-size="14" lengthAdjust="spacing" textLength="31.418" x="601.4829" y="1067.1619">g0/0</text><text fill="#000000" font-family="Arial" font-size="14" lengthAdjust="spacing" textLength="124.9541" x="601.4829" y="1083.4588">172.18.255.10/30</text></g><!--entity R4_g1--><g class="entity" data-qualified-name="Area1.R4.R4_g1" data-source-line="42" id="ent0023"><ellipse cx="883.96" cy="1037.1668" fill="#F1F1F1" rx="8" ry="8" style="stroke:#181818;stroke-width:0.5;"/><text fill="#000000" font-family="Arial" font-size="14" lengthAdjust="spacing" textLength="31.418" x="821.4829" y="1067.1619">g1/0</text><text fill="#000000" font-family="Arial" font-size="14" lengthAdjust="spacing" textLength="124.9541" x="821.4829" y="1083.4588">172.18.255.14/30</text></g><!--entity R4_g2--><g class="entity" data-qualified-name="Area1.R4.R4_g2" data-source-line="43" id="ent0024"><ellipse cx="458.96" cy="1037.1668" fill="#F1F1F1" rx="8" ry="8" style="stroke:#181818;stroke-width:0.5;"/><text fill="#000000" font-family="Arial" font-size="14" lengthAdjust="spacing" textLength="31.418" x="411.5835" y="1067.1619">g2/0</text><text fill="#000000" font-family="Arial" font-size="14" lengthAdjust="spacing" textLength="94.7529" x="411.5835" y="1083.4588">Trunk to SW1</text></g><!--entity R3_e0--><g class="entity" data-qualified-name="Area1.R3.R3_e0" data-source-line="47" id="ent0026"><ellipse cx="883.96" cy="1289.1668" fill="#F1F1F1" rx="8" ry="8" style="stroke:#181818;stroke-width:0.5;"/><text fill="#000000" font-family="Arial" font-size="14" lengthAdjust="spacing" textLength="31.1445" x="821.4829" y="1319.1619">e0/0</text><text fill="#000000" font-family="Arial" font-size="14" lengthAdjust="spacing" textLength="124.9541" x="821.4829" y="1335.4588">172.18.255.14/30</text></g><!--entity R3_e1--><g class="entity" data-qualified-name="Area1.R3.R3_e1" data-source-line="48" id="ent0027"><ellipse cx="1509.96" cy="1289.1668" fill="#F1F1F1" rx="8" ry="8" style="stroke:#181818;stroke-width:0.5;"/><text fill="#000000" font-family="Arial" font-size="14" lengthAdjust="spacing" textLength="31.1445" x="1451.9366" y="1319.1619">e1/0</text><text fill="#000000" font-family="Arial" font-size="14" lengthAdjust="spacing" textLength="116.0469" x="1451.9366" y="1335.4588">172.18.255.2/30</text></g><!--entity R3_g2--><g class="entity" data-qualified-name="Area1.R3.R3_g2" data-source-line="49" id="ent0028"><ellipse cx="1088.96" cy="1289.1668" fill="#F1F1F1" rx="8" ry="8" style="stroke:#181818;stroke-width:0.5;"/><text fill="#000000" font-family="Arial" font-size="14" lengthAdjust="spacing" textLength="31.418" x="1041.5835" y="1319.1619">g2/0</text><text fill="#000000" font-family="Arial" font-size="14" lengthAdjust="spacing" textLength="94.7529" x="1041.5835" y="1335.4588">Trunk to SW2</text></g><!--entity R3_f3--><g class="entity" data-qualified-name="Area1.R3.R3_f3" data-source-line="50" id="ent0029"><ellipse cx="1293.96" cy="1289.1668" fill="#F1F1F1" rx="8" ry="8" style="stroke:#181818;stroke-width:0.5;"/><text fill="#000000" font-family="Arial" font-size="14" lengthAdjust="spacing" textLength="27.46" x="1231.4829" y="1319.1619">f3/0</text><text fill="#000000" font-family="Arial" font-size="14" lengthAdjust="spacing" textLength="124.9541" x="1231.4829" y="1335.4588">172.18.255.22/30</text></g><!--entity SW1_g0--><g class="entity" data-qualified-name="Area1.SW1.SW1_g0" data-source-line="62" id="ent0036"><ellipse cx="685.96" cy="1289.1668" fill="#F1F1F1" rx="8" ry="8" style="stroke:#181818;stroke-width:0.5;"/><text fill="#000000" font-family="Arial" font-size="14" lengthAdjust="spacing" textLength="31.418" x="645.0845" y="1319.1619">g0/1</text><text fill="#000000" font-family="Arial" font-size="14" lengthAdjust="spacing" textLength="81.751" x="645.0845" y="1335.4588">Trunk to R4</text></g><!--entity SW1_v50--><g class="entity" data-qualified-name="Area1.SW1.SW1_v50" data-source-line="63" id="ent0037"><ellipse cx="303.96" cy="1289.1668" fill="#F1F1F1" rx="8" ry="8" style="stroke:#181818;stroke-width:0.5;"/><text fill="#000000" font-family="Arial" font-size="14" lengthAdjust="spacing" textLength="31.418" x="255.1753" y="1319.1619">g0/2</text><text fill="#000000" font-family="Arial" font-size="14" lengthAdjust="spacing" textLength="97.5693" x="255.1753" y="1335.4588">VLAN 50 Data</text></g><!--entity SW1_v60--><g class="entity" data-qualified-name="Area1.SW1.SW1_v60" data-source-line="64" id="ent0038"><ellipse cx="498.96" cy="1289.1668" fill="#F1F1F1" rx="8" ry="8" style="stroke:#181818;stroke-width:0.5;"/><text fill="#000000" font-family="Arial" font-size="14" lengthAdjust="spacing" textLength="31.418" x="447.7178" y="1319.1619">g0/3</text><text fill="#000000" font-family="Arial" font-size="14" lengthAdjust="spacing" textLength="102.4844" x="447.7178" y="1335.4588">VLAN 60 Voice</text></g><!--entity SW2_g0--><g class="entity" data-qualified-name="Area1.SW2.SW2_g0" data-source-line="68" id="ent0040"><ellipse cx="1101.96" cy="1508.1668" fill="#F1F1F1" rx="8" ry="8" style="stroke:#181818;stroke-width:0.5;"/><text fill="#000000" font-family="Arial" font-size="14" lengthAdjust="spacing" textLength="31.418" x="1061.0845" y="1538.1619">g0/1</text><text fill="#000000" font-family="Arial" font-size="14" lengthAdjust="spacing" textLength="81.751" x="1061.0845" y="1554.4588">Trunk to R3</text></g><!--entity SW2_v10--><g class="entity" data-qualified-name="Area1.SW2.SW2_v10" data-source-line="69" id="ent0041"><ellipse cx="719.96" cy="1508.1668" fill="#F1F1F1" rx="8" ry="8" style="stroke:#181818;stroke-width:0.5;"/><text fill="#000000" font-family="Arial" font-size="14" lengthAdjust="spacing" textLength="31.418" x="671.1753" y="1538.1619">g0/2</text><text fill="#000000" font-family="Arial" font-size="14" lengthAdjust="spacing" textLength="97.5693" x="671.1753" y="1554.4588">VLAN 10 Data</text></g><!--entity SW2_v20--><g class="entity" data-qualified-name="Area1.SW2.SW2_v20" data-source-line="70" id="ent0042"><ellipse cx="914.96" cy="1508.1668" fill="#F1F1F1" rx="8" ry="8" style="stroke:#181818;stroke-width:0.5;"/><text fill="#000000" font-family="Arial" font-size="14" lengthAdjust="spacing" textLength="31.418" x="863.7178" y="1538.1619">g0/3</text><text fill="#000000" font-family="Arial" font-size="14" lengthAdjust="spacing" textLength="102.4844" x="863.7178" y="1554.4588">VLAN 20 Voice</text></g><g class="entity" data-qualified-name="GMN53" data-source-line="99" id="ent0054"><path d="M360.56,706.0368 L360.56,746.3024 L515.3496,746.3024 L515.3496,716.0368 L505.3496,706.0368 L360.56,706.0368" fill="#FEFFDD" style="stroke:#181818;stroke-width:0.5;"/><path d="M505.3496,706.0368 L505.3496,716.0368 L515.3496,716.0368 L505.3496,706.0368" fill="#FEFFDD" style="stroke:#181818;stroke-width:1;"/><text fill="#000000" font-family="Arial" font-size="13" font-weight="bold" lengthAdjust="spacing" textLength="126.5342" x="366.56" y="723.1037">Passive Interface</text><text fill="#000000" font-family="Arial" font-size="13" lengthAdjust="spacing" textLength="133.7896" x="366.56" y="738.2365">(g2/0 - Server VLAN)</text></g><g class="entity" data-qualified-name="GMN56" data-source-line="104" id="ent0057"><path d="M1631.98,1488.0368 L1631.98,1528.3024 L1839.9312,1528.3024 L1839.9312,1498.0368 L1829.9312,1488.0368 L1631.98,1488.0368" fill="#FEFFDD" style="stroke:#181818;stroke-width:0.5;"/><path d="M1829.9312,1488.0368 L1829.9312,1498.0368 L1839.9312,1498.0368 L1829.9312,1488.0368" fill="#FEFFDD" style="stroke:#181818;stroke-width:1;"/><text fill="#000000" font-family="Arial" font-size="13" font-weight="bold" lengthAdjust="spacing" textLength="134.272" x="1637.98" y="1505.1037">Passive Interfaces</text><text fill="#000000" font-family="Arial" font-size="13" lengthAdjust="spacing" textLength="186.9512" x="1637.98" y="1520.2365">(g2/0.10-.40 - Switch VLANs)</text></g><g class="entity" data-qualified-name="GMN59" data-source-line="109" id="ent0060"><path d="M6,1269.0368 L6,1309.3024 L167.9116,1309.3024 L167.9116,1279.0368 L157.9116,1269.0368 L6,1269.0368" fill="#FEFFDD" style="stroke:#181818;stroke-width:0.5;"/><path d="M157.9116,1269.0368 L157.9116,1279.0368 L167.9116,1279.0368 L157.9116,1269.0368" fill="#FEFFDD" style="stroke:#181818;stroke-width:1;"/><text fill="#000000" font-family="Arial" font-size="13" font-weight="bold" lengthAdjust="spacing" textLength="134.272" x="12" y="1286.1037">Passive Interfaces</text><text fill="#000000" font-family="Arial" font-size="13" lengthAdjust="spacing" textLength="140.9116" x="12" y="1301.2365">(g2/0 - Switch VLANs)</text></g><!--link R0_g0 to R1_g0--><g class="link" data-entity-1="ent0004" data-entity-2="ent0006" data-link-type="association" data-source-line="33" id="lnk17"><path d="M1562.17,224.1568 C1521.7,229.0668 1350.37,253.8368 1238.96,332.1668 C1185.11,370.0268 1145.01,441.8768 1132.82,465.4568" fill="none" id="R0_g0-R1_g0" style="stroke:#181818;stroke-width:1;"/><text fill="#000000" font-family="Arial" font-size="13" lengthAdjust="spacing" textLength="45.7539" x="1279.96" y="320.2337">1 Gbps</text></g><!--link R0_g0 to R2_g0--><g class="link" data-entity-1="ent0004" data-entity-2="ent0012" data-link-type="association" data-source-line="34" id="lnk18"><path d="M1578.72,231.1468 C1594.83,248.1868 1631.97,290.0068 1650.96,332.1668 C1716.3,477.2968 1732.67,675.6468 1735.47,717.3068" fill="none" id="R0_g0-R2_g0" style="stroke:#181818;stroke-width:1;"/><text fill="#000000" font-family="Arial" font-size="13" lengthAdjust="spacing" textLength="45.7539" x="1712.96" y="478.7337">1 Gbps</text></g><!--link R1_g0 to R2_g0--><g class="link" data-entity-1="ent0006" data-entity-2="ent0012" data-link-type="association" data-source-line="35" id="lnk19"><path d="M1137.93,482.7268 C1155.82,497.2868 1197.74,529.0668 1238.96,543.1668 C1402.61,599.1568 1474.74,500.1968 1625.96,584.1668 C1683.77,616.2768 1721.53,692.5668 1732.58,717.2868" fill="none" id="R1_g0-R2_g0" style="stroke:#181818;stroke-width:1;"/><text fill="#000000" font-family="Arial" font-size="13" lengthAdjust="spacing" textLength="45.7539" x="1608.96" y="572.2337">1 Gbps</text></g><!--link R1_g3 to R4_g0--><g class="link" data-entity-1="ent0009" data-entity-2="ent0022" data-link-type="association" data-source-line="54" id="lnk30"><path d="M904.06,481.2868 C886.07,493.5868 843.91,521.9168 806.96,543.1668 C772.32,563.0868 750.1,551.6068 726.96,584.1668 C620.93,733.3568 654.95,981.3368 662.61,1028.3468" fill="none" id="R1_g3-R4_g0" style="stroke:#181818;stroke-width:1;"/><text fill="#000000" font-family="Arial" font-size="13" lengthAdjust="spacing" textLength="45.7539" x="727.96" y="730.7337">1 Gbps</text></g><!--link R2_g3 to R4_g1--><g class="link" data-entity-1="ent0015" data-entity-2="ent0023" data-link-type="association" data-source-line="55" id="lnk31"><path d="M872.26,735.1168 C873.94,778.3868 881.97,985.1468 883.65,1028.2768" fill="none" id="R2_g3-R4_g1" style="stroke:#181818;stroke-width:1;"/><text fill="#000000" font-family="Arial" font-size="13" lengthAdjust="spacing" textLength="63.4385" x="876.96" y="840.2337">100 Mbps</text></g><!--link R1_e4 to R3_e1--><g class="link" data-entity-1="ent0010" data-entity-2="ent0027" data-link-type="association" data-source-line="56" id="lnk32"><path d="M1562.92,482.9468 C1574.41,497.3168 1601.11,527.9568 1630.96,543.1668 C1712.97,584.9568 1775.67,512.9368 1833.96,584.1668 C1900.1,665.0068 1865.05,719.4568 1833.96,819.1668 C1766.79,1034.5768 1562.26,1238.3068 1518.33,1280.2968" fill="none" id="R1_e4-R3_e1" style="stroke:#181818;stroke-width:1;"/><text fill="#000000" font-family="Arial" font-size="13" lengthAdjust="spacing" textLength="55.1675" x="1830.96" y="840.2337">10 Mbps</text></g><!--link R2_f3 to R3_f3--><g class="link" data-entity-1="ent0016" data-entity-2="ent0029" data-link-type="association" data-source-line="57" id="lnk33"><path d="M1094.81,735.0968 C1117.54,798.2268 1268.87,1218.4868 1291.2,1280.5268" fill="none" id="R2_f3-R3_f3" style="stroke:#181818;stroke-width:1;"/><text fill="#000000" font-family="Arial" font-size="13" lengthAdjust="spacing" textLength="63.4385" x="1226.96" y="1041.7337">100 Mbps</text></g><!--link R4_g1 to R3_e0--><g class="link" data-entity-1="ent0023" data-entity-2="ent0026" data-link-type="association" data-source-line="58" id="lnk34"><path d="M883.96,1045.9268 C883.96,1083.1768 883.96,1243.4468 883.96,1280.5068" fill="none" id="R4_g1-R3_e0" style="stroke:#181818;stroke-width:1;"/><text fill="#000000" font-family="Arial" font-size="13" lengthAdjust="spacing" textLength="55.1675" x="884.96" y="1135.2337">10 Mbps</text></g><!--link R4_g2 to SW1_g0--><g class="link" data-entity-1="ent0024" data-entity-2="ent0036" data-link-type="association" data-source-line="73" id="lnk43"><path d="M467.94,1044.5768 C495.16,1064.1068 576.23,1122.9868 597.96,1147.1668 C638.26,1192.0368 671.41,1257.6268 682.22,1280.1968" fill="none" id="R4_g2-SW1_g0" style="stroke:#181818;stroke-width:1;"/><text fill="#000000" font-family="Arial" font-size="13" lengthAdjust="spacing" textLength="37.2925" x="587.96" y="1135.2337">Trunk</text></g><!--link R3_g2 to SW2_g0--><g class="link" data-entity-1="ent0028" data-entity-2="ent0040" data-link-type="association" data-source-line="74" id="lnk44"><path d="M1089.43,1298.1468 C1091.48,1332.2568 1099.46,1465.5468 1101.49,1499.3468" fill="none" id="R3_g2-SW2_g0" style="stroke:#181818;stroke-width:1;"/><text fill="#000000" font-family="Arial" font-size="13" lengthAdjust="spacing" textLength="37.2925" x="1094.96" y="1387.2337">Trunk</text></g><!--link SW1_v50 to VLAN 50 Data--><g class="link" data-entity-1="ent0037" data-entity-2="ent0045" data-link-type="association" data-source-line="76" id="lnk46"><path d="M303.55,1298.1468 C302.01,1328.5068 296.49,1437.4568 294.09,1484.8668" fill="none" id="SW1_v50-VLAN 50 Data" style="stroke:#181818;stroke-width:1;"/></g><!--link SW1_v60 to VLAN 60 Voice--><g class="link" data-entity-1="ent0038" data-entity-2="ent0047" data-link-type="association" data-source-line="77" id="lnk48"><path d="M499.47,1298.1468 C501.43,1328.5068 508.46,1437.4568 511.52,1484.8668" fill="none" id="SW1_v60-VLAN 60 Voice" style="stroke:#181818;stroke-width:1;"/></g><!--link SW2_v10 to VLAN 10 Data--><g class="link" data-entity-1="ent0041" data-entity-2="ent0049" data-link-type="association" data-source-line="78" id="lnk50"><path d="M719.58,1517.0768 C718.54,1538.8668 715.62,1600.3568 714.02,1633.8668" fill="none" id="SW2_v10-VLAN 10 Data" style="stroke:#181818;stroke-width:1;"/></g><!--link SW2_v20 to VLAN 20 Voice--><g class="link" data-entity-1="ent0042" data-entity-2="ent0051" data-link-type="association" data-source-line="79" id="lnk52"><path d="M915.92,1517.0768 C918.59,1538.8668 926.11,1600.3568 930.21,1633.8668" fill="none" id="SW2_v20-VLAN 20 Voice" style="stroke:#181818;stroke-width:1;"/></g><!--link R1_g2 to GMN53--><g class="link" data-entity-1="ent0008" data-entity-2="ent0054" data-link-type="association" data-source-line="99" id="lnk55"><path d="M692.17,482.3168 C671.33,499.3868 617.45,544.0668 574.96,584.1668 C530.52,626.1068 481.25,678.3268 455.62,705.9568" fill="none" id="R1_g2-GMN53" style="stroke:#181818;stroke-width:1;stroke-dasharray:7,7;"/></g><!--link R3_g2 to GMN56--><g class="link" data-entity-1="ent0028" data-entity-2="ent0057" data-link-type="association" data-source-line="104" id="lnk58"><path d="M1097.7,1298.1068 C1113.67,1312.2068 1149.13,1341.6668 1183.96,1358.1668 C1331.63,1428.1368 1517.65,1469.7368 1631.62,1490.5168" fill="none" id="R3_g2-GMN56" style="stroke:#181818;stroke-width:1;stroke-dasharray:7,7;"/></g><!--link R4_g2 to GMN59--><g class="link" data-entity-1="ent0024" data-entity-2="ent0060" data-link-type="association" data-source-line="109" id="lnk61"><path d="M450.06,1040.8368 C417.27,1050.9468 300.8,1089.3068 219.96,1147.1668 C170.15,1182.8168 123.94,1239.0468 101.39,1268.5768" fill="none" id="R4_g2-GMN59" style="stroke:#181818;stroke-width:1;stroke-dasharray:7,7;"/></g><g class="legend" data-source-line="83"><rect fill="none" height="201.2656" rx="7.5" ry="7.5" style="stroke:#000000;stroke-width:1;" width="224.8672" x="1658.2682" y="1774.0078"/><text fill="#000000" font-family="Arial" font-size="14" font-weight="bold" lengthAdjust="spacing" textLength="94.2471" x="1663.2682" y="1792.003">OSPF Zones</text><text fill="#000000" font-family="Arial" font-size="14" lengthAdjust="spacing" textLength="35.6426" x="1667.7184" y="1810.2998">Zone</text><text fill="#000000" font-family="Arial" font-size="14" lengthAdjust="spacing" textLength="36.5518" x="1806.8024" y="1810.2998">Color</text><text fill="#000000" font-family="Arial" font-size="14" lengthAdjust="spacing" textLength="130.1836" x="1667.7184" y="1826.5967">Area 0 (Backbone)</text><text fill="#000000" font-family="Arial" font-size="14" lengthAdjust="spacing" textLength="4.4502" x="1802.3522" y="1826.5967">&#160;</text><text fill="#E6F3FF" font-family="Arial" font-size="14" lengthAdjust="spacing" textLength="62.5488" x="1806.8024" y="1826.5967">#E6F3FF</text><text fill="#000000" font-family="Arial" font-size="14" lengthAdjust="spacing" textLength="4.4502" x="1869.3512" y="1826.5967">&#160;</text><text fill="#000000" font-family="Arial" font-size="14" lengthAdjust="spacing" textLength="45.8828" x="1667.7184" y="1842.8936">Area 1</text><text fill="#000000" font-family="Arial" font-size="14" lengthAdjust="spacing" textLength="4.4502" x="1802.3522" y="1842.8936">&#160;</text><text fill="#FFF0E6" font-family="Arial" font-size="14" lengthAdjust="spacing" textLength="62.5488" x="1806.8024" y="1842.8936">#FFF0E6</text><text fill="#000000" font-family="Arial" font-size="14" lengthAdjust="spacing" textLength="4.4502" x="1869.3512" y="1842.8936">&#160;</text><line style="stroke:#000000;stroke-width:1;" x1="1663.2682" x2="1873.8014" y1="1797.3047" y2="1797.3047"/><line style="stroke:#000000;stroke-width:1;" x1="1663.2682" x2="1873.8014" y1="1813.6016" y2="1813.6016"/><line style="stroke:#000000;stroke-width:1;" x1="1663.2682" x2="1873.8014" y1="1829.8985" y2="1829.8985"/><line style="stroke:#000000;stroke-width:1;" x1="1663.2682" x2="1873.8014" y1="1846.1953" y2="1846.1953"/><line style="stroke:#000000;stroke-width:1;" x1="1663.2682" x2="1663.2682" y1="1797.3047" y2="1846.1953"/><line style="stroke:#000000;stroke-width:1;" x1="1802.3522" x2="1802.3522" y1="1797.3047" y2="1846.1953"/><line style="stroke:#000000;stroke-width:1;" x1="1873.8014" x2="1873.8014" y1="1797.3047" y2="1846.1953"/><text fill="#000000" font-family="Arial" font-size="14" font-weight="bold" lengthAdjust="spacing" textLength="122.999" x="1663.2682" y="1861.1905">Interface Types</text><text fill="#000000" font-family="Arial" font-size="14" lengthAdjust="spacing" textLength="63.834" x="1667.7184" y="1879.4873">Solid line</text><text fill="#000000" font-family="Arial" font-size="14" lengthAdjust="spacing" textLength="84.4033" x="1754.1588" y="1879.4873">OSPF Active</text><text fill="#000000" font-family="Arial" font-size="14" lengthAdjust="spacing" textLength="77.54" x="1667.7184" y="1895.7842">Dotted line</text><text fill="#000000" font-family="Arial" font-size="14" lengthAdjust="spacing" textLength="119.5264" x="1754.1588" y="1895.7842">Passive Interface</text><line style="stroke:#000000;stroke-width:1;" x1="1663.2682" x2="1878.1354" y1="1866.4922" y2="1866.4922"/><line style="stroke:#000000;stroke-width:1;" x1="1663.2682" x2="1878.1354" y1="1882.7891" y2="1882.7891"/><line style="stroke:#000000;stroke-width:1;" x1="1663.2682" x2="1878.1354" y1="1899.086" y2="1899.086"/><line style="stroke:#000000;stroke-width:1;" x1="1663.2682" x2="1663.2682" y1="1866.4922" y2="1899.086"/><line style="stroke:#000000;stroke-width:1;" x1="1749.7087" x2="1749.7087" y1="1866.4922" y2="1899.086"/><line style="stroke:#000000;stroke-width:1;" x1="1878.1354" x2="1878.1354" y1="1866.4922" y2="1899.086"/><text fill="#000000" font-family="Arial" font-size="14" font-weight="bold" lengthAdjust="spacing" textLength="84.5195" x="1663.2682" y="1914.0811">Bandwidth</text><text fill="#000000" font-family="Arial" font-size="14" lengthAdjust="spacing" textLength="49.2734" x="1667.7184" y="1932.378">1 Gbps</text><text fill="#000000" font-family="Arial" font-size="14" lengthAdjust="spacing" textLength="66.835" x="1744.9372" y="1932.378">Thick line</text><text fill="#000000" font-family="Arial" font-size="14" lengthAdjust="spacing" textLength="68.3184" x="1667.7184" y="1948.6748">100 Mbps</text><text fill="#000000" font-family="Arial" font-size="14" lengthAdjust="spacing" textLength="85.6953" x="1744.9372" y="1948.6748">Medium line</text><text fill="#000000" font-family="Arial" font-size="14" lengthAdjust="spacing" textLength="59.4111" x="1667.7184" y="1964.9717">10 Mbps</text><text fill="#000000" font-family="Arial" font-size="14" lengthAdjust="spacing" textLength="59.9033" x="1744.9372" y="1964.9717">Thin line</text><line style="stroke:#000000;stroke-width:1;" x1="1663.2682" x2="1835.0827" y1="1919.3828" y2="1919.3828"/><line style="stroke:#000000;stroke-width:1;" x1="1663.2682" x2="1835.0827" y1="1935.6797" y2="1935.6797"/><line style="stroke:#000000;stroke-width:1;" x1="1663.2682" x2="1835.0827" y1="1951.9766" y2="1951.9766"/><line style="stroke:#000000;stroke-width:1;" x1="1663.2682" x2="1835.0827" y1="1968.2735" y2="1968.2735"/><line style="stroke:#000000;stroke-width:1;" x1="1663.2682" x2="1663.2682" y1="1919.3828" y2="1968.2735"/><line style="stroke:#000000;stroke-width:1;" x1="1740.487" x2="1740.487" y1="1919.3828" y2="1968.2735"/><line style="stroke:#000000;stroke-width:1;" x1="1835.0827" x2="1835.0827" y1="1919.3828" y2="1968.2735"/></g><?plantuml-src dLRlRzeu6FxEN-7hVLZxWM8xWNKJXvHIs90wg0BNa-uuLI4n445jb8HEfzl-zxrs4iT9ICkMI2JuyVF-VjyuteNyu4NUC-8YO34xe1lSYlLYvF5TRJ5WQ--uJyQ29rFlcI4d2hszWQyyVxU9n947Gx4N4Kf0IWmGuqchzHkmGmuaT-JWf-7iVkQYtqUziJKUbp2IO-Fn68zw6dDdVov6hWQnl3Ku_sko67xMO5VUhTOxz8Uyb5Y4qpyjVo-E0Rfm8kR1skKjsBmId5rT82z6SXMZ_ri8BXaNTE7Y9RzpbvnyeDUaTtDDkzrhOglDBaRzVchMO92Hv1NoX4LhpmVs1dTmbTkXDndzQOCLwRlwDPMI9R-jQKrPv5UKQfqarrdb4CLv3voKqkrOM5F8IGejKMofnTOKUf9YLRHyCBLOfoZChb28GM5sG_oeJDeisRAe70YQCkaln93g6D9pOzZJfj9pOqXr3EcvCIJOL7CoYEigXnA3ixQgKLIbYThjj5xGHqJGfzKXhc2qZf7JsFTABv8JlKXq0v9o0zfBxeeZ-D8MlEsruoJqTqi-3nEMSLpxt7IU39fzRZgXTGtEA_bSH4U-Guc0iKJqVjfGgbQpUrcrMc-wnt2pgTOJE-aUgxf7JSfvtkK6DfHglUnC7VMoUuUSMnSD1UVCJqB1YwAoL57PzOAZ1aOaXZ7wOfGZinKgFLAe0Sh2pq1ugLALl8oAAzJCsFdNCF6to2_iHPS7Bux35rP48RuoaftN0pmXf-b7wvMI9KQmNJjdDfKhxi3KUxntfgYBqPsNU9hmqcrYM1cZXz6Z27rMK7eDdwOywV3yQHUidFcs2wJa0drw8M-vGCik08NMN51zABEQXX7IgenBCKjZj8gfdooISii_PfZ_BT2UWUOXpM7bGm6JCbcPMw1KautHUJ_wD9hUPQDpppQC1oWADzj4oUYl1hFvmnZz3OUPkDzP3TJgD_KV7kc9x5ksM3lzm5hVbri-PcUoGVRiTzJoe4mbnlxqd3R8dfNzODL4fslntw5asbpimm3jGsMWCjw1FeBkoNNTYIHXUiT3rbk5GAtZrkF1rp18jeRqT4p0os8B8pKJacDPhyFh5nQ4n-SgdAF0vJa6yKwZNgJamPdF9uyZD9d2T1uxmn5ofjFPmbbCPjDvbYakO9Ilm1FnZCJQE1o1tJMNjFsNSjWYg4OMlR08oQguaXP8QQsQJEircN5PA7pxsjUsafqEC2axVaMu_HF26wN-0000?></g></svg>