<?plantuml 1.2026.1?><svg xmlns="http://www.w3.org/2000/svg" xmlns:xlink="http://www.w3.org/1999/xlink" contentStyleType="text/css" data-diagram-type="DESCRIPTION" height="792px" preserveAspectRatio="none" style="width:935px;height:792px;background:#FFFFFF;" version="1.1" viewBox="0 0 935 792" width="935px" zoomAndPan="magnify"><defs/><g><!--cluster Area0--><g class="cluster" data-qualified-name="Area0" data-source-line="5" id="ent0002"><path d="M540.4906,25.2335 C546.3504,12.2974 559.5799,9.4162 568.2724,22.1702 C575.6956,10.9488 584.7344,10.2208 592.0171,22.3133 C601.9301,8.1883 612.211,8.6776 620.8518,23.5771 C626.8978,10.4374 637.5628,11.4148 644.5553,22.657 C650.596,12.4197 661.9554,11.4658 669.1008,21.3065 C676.2225,10.8409 687.3304,7.8786 694.2562,21.511 C702.2206,6 714.3857,8.6149 723.0567,20.7756 C732.194,11.3229 742.4148,9.6565 748.7959,23.784 C755.0335,14.6813 766.4521,13.8495 771.83,24.7727 C781.663,9.4885 790.5419,12.8891 800.5027,24.6372 C805.8595,12.1189 818.1303,12.6392 825.0431,22.9659 C834.2016,10.6377 843.7772,11.4844 850.411,25.4058 C856.8054,13.0007 868.8454,12.8968 874.5435,26.0629 C887.003,10.2951 896.5865,14.0126 906,29.162 C906.683,28.8417 907.3326,29.0582 907.2856,29.9417 C918.9252,36.0916 919.7696,47.449 909.735,55.6629 C922.14,60.6963 924.067,71.5858 913.5141,80.1608 C926.3264,89.1264 927.3199,99.7627 912.5623,107.7781 C923.1179,113.4999 925.2246,120.012 915.1057,128.2965 C928.2818,134.6426 927.601,147.3372 916.2718,154.763 C927.5916,163.6186 923.9923,173.6256 912.4549,178.8608 C923.7596,187.7767 922.3334,195.5535 911.52,203.6346 C920.4716,216.7861 916.141,231.1934 899,233.352 C900.6332,234.5554 900.8626,235.7362 899.2667,237.1654 C893.9022,247.2665 884.4734,247.6661 877.5537,238.961 C869.0752,250.3279 856.134,248.3839 850.8468,235.4533 C845.0328,250.1523 833.601,249.332 823.9052,239.7628 C817.2164,250.744 808.8993,250.9478 801.0185,241.0706 C792.3213,255.437 782.6222,252.6944 774.2558,240.7342 C767.5102,254.6381 757.6556,255.2435 748.3619,243.2853 C741.3044,254.8881 729.7023,253.6714 723.2046,242.6624 C716.0134,253.9899 705.8931,256.7611 697.967,243.414 C688.3019,257.6191 678.7983,256.4077 670.4656,242.1277 C661.7922,254.7886 651.7881,252.9376 644.4536,240.7274 C635.0611,253.0884 623.1606,252.7796 617.0163,237.5028 C608.9873,248.0956 601.3871,245.3532 595.1669,235.5638 C588.3442,246.5666 577.8465,250.7199 569.3956,237.2807 C551.7418,252.4629 539.8003,247.3145 533,226.352 C535.1463,226.7434 535.8034,227.7479 534.6015,229.7277 C524.1548,221.4305 523.0134,213.3556 535.5218,205.9467 C523.4769,196.7637 522.4832,188.2707 534.1514,177.9279 C524.9968,170.9236 523.9062,161.947 534.4265,155.1807 C522.0272,150.1243 522.846,139.4803 532.3545,132.4289 C520.4114,123.1485 523.6281,114.1628 534.579,106.8754 C523.6827,99.6702 522.5191,86.606 535.1642,79.9118 C522.6453,72.0909 522.1339,62.8453 535.6228,55.5131 C521.2036,42.8063 524.0851,30.8875 540,22.162 C541.387,22.8401 541.9038,24.1081 540.4906,25.2335" fill="none" style="stroke:#181818;stroke-width:1;"/><text fill="#000000" font-family="Arial" font-size="14" font-weight="bold" lengthAdjust="spacing" textLength="133" x="653" y="40.1571">Area 0 Backbone</text></g><!--cluster Area1--><g class="cluster" data-qualified-name="Area1" data-source-line="15" id="ent0009"><path d="M409.444,300.0338 C414.2324,292.9615 421.0874,291.132 426.4949,299.3431 C433.2047,291.3858 441.0371,289.5853 446.9419,300.2281 C452.3078,289.3263 459.3936,291.4312 466.0231,298.917 C471.6352,290.5538 479.9626,290.5234 484.5672,299.9663 C488.8353,292.8746 496.2946,291.9564 500.4043,300.1306 C504.2889,290.7171 513.9876,288.2583 520.4643,297.3156 C527.8763,287.9498 535.8623,291.7224 540.1488,300.6743 C544.1107,291.1256 550.4043,291.4911 556.4434,298.6484 C562.767,290.9266 571.6376,291.5175 576.2837,300.626 C584.5808,291.8588 596.0077,292.5164 600,305.352 C600.5574,305.3628 600.7324,305.717 600.4017,306.1661 C610.4114,310.3692 611.5972,316.4134 603.4725,323.7783 C611.2793,328.3857 609.6449,335.6934 602.4577,339.322 C610.8742,344.2642 611.2466,352.3071 601.9052,356.6842 C610.195,360.0888 611.1699,366.7753 603.7478,372.0625 C611.5184,376.6682 612.0021,382.1373 605.766,388.4663 C616.1808,392.7734 615.097,402.3987 606.7091,407.6311 C612.4503,413.3917 611.6109,418.4843 604.6233,422.4537 C611.3761,426.7089 611.986,434.5384 604.8667,438.9977 C613.0297,443.1238 612.9311,450.3681 605.5314,455.1352 C612.9973,460.0329 612.9279,468.6045 604.7923,472.8514 C610.3445,476.9511 611.5729,484.0702 603.7548,487.2033 C610.6702,491.6934 612.7165,499.0619 603.9068,503.6969 C611.2763,509.9545 611.5974,517.9686 601.6758,522.1339 C607.6121,531.9468 604.6463,540.7548 593,543.392 C594.3798,543.3974 595.0616,544.323 594.4034,545.615 C589.4472,553.0197 581.0411,554.1178 577.0449,544.6285 C572.5082,554.8233 562.6919,553.2743 557.3608,545.4987 C553.4051,555.9244 545.1759,556.649 539.09,547.4856 C534.3054,556.8229 526.935,556.5576 520.4092,549.4653 C515.3371,558.1668 505.4198,557.4407 500.468,549.3227 C495.6246,559.7589 487.0558,558.291 481.575,549.9644 C476.6316,557.8433 469.0381,557.06 465.5304,548.5581 C458.982,557.0007 450.1935,556.0567 444.7594,547.2187 C438.1499,553.9157 432.8787,553.8608 427.8418,545.457 C415.8582,556.3083 402.8796,553.5025 400,536.392 C401.2085,536.9232 401.2595,537.8019 400.2515,538.5871 C393.5772,532.4129 394.1974,524.9675 402.898,521.1233 C394.5345,517.1532 392.4857,511.0098 400.3583,504.5514 C392.8658,499.6315 392.1498,492.0648 400.9736,487.7421 C393.5511,482.8724 391.9228,478.1139 399.4264,471.796 C391.4689,467.2874 392.7691,459.7885 400.0712,455.8989 C390.6704,451.0446 392.7689,443.1188 400.0902,438.2826 C391.6729,433.8295 392.5189,425.8007 400.2127,421.465 C392.9679,416.3876 394.7617,410.7949 401.5575,407.0252 C393.5845,403.0024 393.9462,396.6481 399.7852,391.0893 C391.829,384.9412 392.0203,379.1831 400.9727,374.2255 C392.8012,369.7075 391.4951,361.5253 400.76,356.7946 C393.3339,352.0433 393.9409,344.2204 402.2301,340.9249 C392.3897,335.634 393.2489,328.3201 401.1688,322.0314 C391.2614,311.5831 393.1106,302.9402 407,298.352 C408.5441,297.9208 409.4433,298.2221 409.444,300.0338" fill="none" style="stroke:#181818;stroke-width:1;"/><text fill="#000000" font-family="Arial" font-size="14" font-weight="bold" lengthAdjust="spacing" textLength="51.2969" x="474.3516" y="316.3471">Area 1</text></g><!--cluster Site 1 Networks--><g class="cluster" data-qualified-name="Site 1 Networks" data-source-line="26" id="ent0017"><path d="M8.5,445.942 L135.0625,445.942 A3.75,3.75 0 0 1 137.5625,448.442 L144.5625,468.2388 L365.5,468.2388 A2.5,2.5 0 0 1 368,470.7388 L368,679.182 A2.5,2.5 0 0 1 365.5,681.682 L8.5,681.682 A2.5,2.5 0 0 1 6,679.182 L6,448.442 A2.5,2.5 0 0 1 8.5,445.942" fill="none" style="stroke:#000000;stroke-width:1.5;"/><line style="stroke:#000000;stroke-width:1.5;" x1="6" x2="144.5625" y1="468.2388" y2="468.2388"/><text fill="#000000" font-family="Arial" font-size="14" font-weight="bold" lengthAdjust="spacing" textLength="125.5625" x="10" y="460.9371">Site 1 Networks</text></g><!--cluster Site 2 Networks--><g class="cluster" data-qualified-name="Site 2 Networks" data-source-line="36" id="ent0024"><path d="M405.5,584.392 L532.0625,584.392 A3.75,3.75 0 0 1 534.5625,586.892 L541.5625,606.6888 L762.5,606.6888 A2.5,2.5 0 0 1 765,609.1888 L765,783.482 A2.5,2.5 0 0 1 762.5,785.982 L405.5,785.982 A2.5,2.5 0 0 1 403,783.482 L403,586.892 A2.5,2.5 0 0 1 405.5,584.392" fill="none" style="stroke:#000000;stroke-width:1.5;"/><line style="stroke:#000000;stroke-width:1.5;" x1="403" x2="541.5625" y1="606.6888" y2="606.6888"/><text fill="#000000" font-family="Arial" font-size="14" font-weight="bold" lengthAdjust="spacing" textLength="125.5625" x="407" y="599.3871">Site 2 Networks</text></g><!--entity R0--><g class="entity" data-qualified-name="Area0.R0" data-source-line="6" id="ent0003"><polygon fill="#F1F1F1" points="636.87,59.162,646.87,49.162,799.1239,49.162,799.1239,101.7557,789.1239,111.7557,636.87,111.7557,636.87,59.162" style="stroke:#181818;stroke-width:0.5;"/><line style="stroke:#181818;stroke-width:0.5;" x1="789.1239" x2="799.1239" y1="59.162" y2="49.162"/><line style="stroke:#181818;stroke-width:0.5;" x1="636.87" x2="789.1239" y1="59.162" y2="59.162"/><line style="stroke:#181818;stroke-width:0.5;" x1="789.1239" x2="789.1239" y1="59.162" y2="111.7557"/><text fill="#000000" font-family="Arial" font-size="14" lengthAdjust="spacing" textLength="43.5928" x="651.87" y="82.1571">R0 DR</text><text fill="#000000" font-family="Arial" font-size="14" lengthAdjust="spacing" textLength="122.2539" x="651.87" y="98.454">(192.168.255.14)</text></g><!--entity R1--><g class="entity" data-qualified-name="Area0.R1" data-source-line="7" id="ent0004"><polygon fill="#F1F1F1" points="541.33,172.752,551.33,162.752,694.6767,162.752,694.6767,215.3457,684.6767,225.3457,541.33,225.3457,541.33,172.752" style="stroke:#181818;stroke-width:0.5;"/><line style="stroke:#181818;stroke-width:0.5;" x1="684.6767" x2="694.6767" y1="172.752" y2="162.752"/><line style="stroke:#181818;stroke-width:0.5;" x1="541.33" x2="684.6767" y1="172.752" y2="172.752"/><line style="stroke:#181818;stroke-width:0.5;" x1="684.6767" x2="684.6767" y1="172.752" y2="225.3457"/><text fill="#000000" font-family="Arial" font-size="14" lengthAdjust="spacing" textLength="53.1973" x="556.33" y="195.7471">R1 BDR</text><text fill="#000000" font-family="Arial" font-size="14" lengthAdjust="spacing" textLength="113.3467" x="556.33" y="212.044">(192.168.255.1)</text></g><!--entity R2--><g class="entity" data-qualified-name="Area0.R2" data-source-line="8" id="ent0005"><polygon fill="#F1F1F1" points="744.33,172.752,754.33,162.752,897.6767,162.752,897.6767,215.3457,887.6767,225.3457,744.33,225.3457,744.33,172.752" style="stroke:#181818;stroke-width:0.5;"/><line style="stroke:#181818;stroke-width:0.5;" x1="887.6767" x2="897.6767" y1="172.752" y2="162.752"/><line style="stroke:#181818;stroke-width:0.5;" x1="744.33" x2="887.6767" y1="172.752" y2="172.752"/><line style="stroke:#181818;stroke-width:0.5;" x1="887.6767" x2="887.6767" y1="172.752" y2="225.3457"/><text fill="#000000" font-family="Arial" font-size="14" lengthAdjust="spacing" textLength="83.3438" x="759.33" y="195.7471">R2 DROther</text><text fill="#000000" font-family="Arial" font-size="14" lengthAdjust="spacing" textLength="113.3467" x="759.33" y="212.044">(192.168.255.2)</text></g><!--entity R4--><g class="entity" data-qualified-name="Area1.R4" data-source-line="16" id="ent0010"><polygon fill="#F1F1F1" points="408.12,335.352,418.12,325.352,591.8798,325.352,591.8798,377.9457,581.8798,387.9457,408.12,387.9457,408.12,335.352" style="stroke:#181818;stroke-width:0.5;"/><line style="stroke:#181818;stroke-width:0.5;" x1="581.8798" x2="591.8798" y1="335.352" y2="325.352"/><line style="stroke:#181818;stroke-width:0.5;" x1="408.12" x2="581.8798" y1="335.352" y2="335.352"/><line style="stroke:#181818;stroke-width:0.5;" x1="581.8798" x2="581.8798" y1="335.352" y2="387.9457"/><text fill="#000000" font-family="Arial" font-size="14" lengthAdjust="spacing" textLength="143.7598" x="423.12" y="358.3471">R4 Router-on-a-stick</text><text fill="#000000" font-family="Arial" font-size="14" lengthAdjust="spacing" textLength="51.1602" x="423.12" y="374.644">(Site 1)</text></g><!--entity R3--><g class="entity" data-qualified-name="Area1.R3" data-source-line="17" id="ent0011"><polygon fill="#F1F1F1" points="408.12,482.792,418.12,472.792,591.8798,472.792,591.8798,525.3857,581.8798,535.3857,408.12,535.3857,408.12,482.792" style="stroke:#181818;stroke-width:0.5;"/><line style="stroke:#181818;stroke-width:0.5;" x1="581.8798" x2="591.8798" y1="482.792" y2="472.792"/><line style="stroke:#181818;stroke-width:0.5;" x1="408.12" x2="581.8798" y1="482.792" y2="482.792"/><line style="stroke:#181818;stroke-width:0.5;" x1="581.8798" x2="581.8798" y1="482.792" y2="535.3857"/><text fill="#000000" font-family="Arial" font-size="14" lengthAdjust="spacing" textLength="143.7598" x="423.12" y="505.7871">R3 Router-on-a-stick</text><text fill="#000000" font-family="Arial" font-size="14" lengthAdjust="spacing" textLength="51.1602" x="423.12" y="522.084">(Site 2)</text></g><!--entity SW1--><g class="entity" data-qualified-name="Site 1 Networks.SW1" data-source-line="27" id="ent0018"><polygon fill="#F1F1F1" points="245.18,490.942,255.18,480.942,316.8167,480.942,316.8167,517.2388,306.8167,527.2388,245.18,527.2388,245.18,490.942" style="stroke:#181818;stroke-width:0.5;"/><line style="stroke:#181818;stroke-width:0.5;" x1="306.8167" x2="316.8167" y1="490.942" y2="480.942"/><line style="stroke:#181818;stroke-width:0.5;" x1="245.18" x2="306.8167" y1="490.942" y2="490.942"/><line style="stroke:#181818;stroke-width:0.5;" x1="306.8167" x2="306.8167" y1="490.942" y2="527.2388"/><text fill="#000000" font-family="Arial" font-size="14" lengthAdjust="spacing" textLength="31.6367" x="260.18" y="513.9371">SW1</text></g><!--entity V50_1--><g class="entity" data-qualified-name="Site 1 Networks.V50_1" data-source-line="28" id="ent0019"><polygon fill="#F1F1F1" points="22.22,629.392,32.22,619.392,159.7893,619.392,159.7893,655.6888,149.7893,665.6888,22.22,665.6888,22.22,629.392" style="stroke:#181818;stroke-width:0.5;"/><line style="stroke:#181818;stroke-width:0.5;" x1="149.7893" x2="159.7893" y1="629.392" y2="619.392"/><line style="stroke:#181818;stroke-width:0.5;" x1="22.22" x2="149.7893" y1="629.392" y2="629.392"/><line style="stroke:#181818;stroke-width:0.5;" x1="149.7893" x2="149.7893" y1="629.392" y2="665.6888"/><text fill="#000000" font-family="Arial" font-size="14" lengthAdjust="spacing" textLength="97.5693" x="37.22" y="652.3871">VLAN 50 Data</text></g><!--entity V60_1--><g class="entity" data-qualified-name="Site 1 Networks.V60_1" data-source-line="29" id="ent0020"><polygon fill="#F1F1F1" points="209.76,629.392,219.76,619.392,352.2444,619.392,352.2444,655.6888,342.2444,665.6888,209.76,665.6888,209.76,629.392" style="stroke:#181818;stroke-width:0.5;"/><line style="stroke:#181818;stroke-width:0.5;" x1="342.2444" x2="352.2444" y1="629.392" y2="619.392"/><line style="stroke:#181818;stroke-width:0.5;" x1="209.76" x2="342.2444" y1="629.392" y2="629.392"/><line style="stroke:#181818;stroke-width:0.5;" x1="342.2444" x2="342.2444" y1="629.392" y2="665.6888"/><text fill="#000000" font-family="Arial" font-size="14" lengthAdjust="spacing" textLength="102.4844" x="224.76" y="652.3871">VLAN 60 Voice</text></g><!--entity SW2--><g class="entity" data-qualified-name="Site 2 Networks.SW2" data-source-line="37" id="ent0025"><polygon fill="#F1F1F1" points="464.18,629.392,474.18,619.392,535.8167,619.392,535.8167,655.6888,525.8167,665.6888,464.18,665.6888,464.18,629.392" style="stroke:#181818;stroke-width:0.5;"/><line style="stroke:#181818;stroke-width:0.5;" x1="525.8167" x2="535.8167" y1="629.392" y2="619.392"/><line style="stroke:#181818;stroke-width:0.5;" x1="464.18" x2="525.8167" y1="629.392" y2="629.392"/><line style="stroke:#181818;stroke-width:0.5;" x1="525.8167" x2="525.8167" y1="629.392" y2="665.6888"/><text fill="#000000" font-family="Arial" font-size="14" lengthAdjust="spacing" textLength="31.6367" x="479.18" y="652.3871">SW2</text></g><!--entity V10_2--><g class="entity" data-qualified-name="Site 2 Networks.V10_2" data-source-line="38" id="ent0026"><polygon fill="#F1F1F1" points="419.22,733.682,429.22,723.682,556.7893,723.682,556.7893,759.9788,546.7893,769.9788,419.22,769.9788,419.22,733.682" style="stroke:#181818;stroke-width:0.5;"/><line style="stroke:#181818;stroke-width:0.5;" x1="546.7893" x2="556.7893" y1="733.682" y2="723.682"/><line style="stroke:#181818;stroke-width:0.5;" x1="419.22" x2="546.7893" y1="733.682" y2="733.682"/><line style="stroke:#181818;stroke-width:0.5;" x1="546.7893" x2="546.7893" y1="733.682" y2="769.9788"/><text fill="#000000" font-family="Arial" font-size="14" lengthAdjust="spacing" textLength="97.5693" x="434.22" y="756.6771">VLAN 10 Data</text></g><!--entity V20_2--><g class="entity" data-qualified-name="Site 2 Networks.V20_2" data-source-line="39" id="ent0027"><polygon fill="#F1F1F1" points="606.76,733.682,616.76,723.682,749.2444,723.682,749.2444,759.9788,739.2444,769.9788,606.76,769.9788,606.76,733.682" style="stroke:#181818;stroke-width:0.5;"/><line style="stroke:#181818;stroke-width:0.5;" x1="739.2444" x2="749.2444" y1="733.682" y2="723.682"/><line style="stroke:#181818;stroke-width:0.5;" x1="606.76" x2="739.2444" y1="733.682" y2="733.682"/><line style="stroke:#181818;stroke-width:0.5;" x1="739.2444" x2="739.2444" y1="733.682" y2="769.9788"/><text fill="#000000" font-family="Arial" font-size="14" lengthAdjust="spacing" textLength="102.4844" x="621.76" y="756.6771">VLAN 20 Voice</text></g><!--link R0 to R1--><g class="link" data-entity-1="ent0003" data-entity-2="ent0004" data-link-type="association" data-source-line="10" id="lnk6"><path d="M690.41,112.252 C676.42,127.862 659.48,146.762 645.5,162.362" fill="none" id="R0-R1" style="stroke:#181818;stroke-width:1;"/></g><!--link R0 to R2--><g class="link" data-entity-1="ent0003" data-entity-2="ent0005" data-link-type="association" data-source-line="11" id="lnk7"><path d="M746.42,112.252 C760.83,127.862 778.28,146.762 792.67,162.362" fill="none" id="R0-R2" style="stroke:#181818;stroke-width:1;"/></g><!--link R1 to R2--><g class="link" data-entity-1="ent0004" data-entity-2="ent0005" data-link-type="association" data-source-line="12" id="lnk8"><path d="M694.92,194.052 C711.33,194.052 727.75,194.052 744.17,194.052" fill="none" id="R1-R2" style="stroke:#181818;stroke-width:1;"/></g><!--link R1 to R4--><g class="link" data-entity-1="ent0004" data-entity-2="ent0010" data-link-type="association" data-source-line="19" id="lnk12"><path d="M595.53,225.632 C574.6,254.122 543.56,296.362 522.59,324.902" fill="none" id="R1-R4" style="stroke:#181818;stroke-width:2;"/><text fill="#000000" font-family="Arial" font-size="13" lengthAdjust="spacing" textLength="45.7539" x="570" y="270.4189">1 Gbps</text></g><!--link R1 to R3--><g class="link" data-entity-1="ent0004" data-entity-2="ent0011" data-link-type="association" data-source-line="20" id="lnk13"><path d="M625.48,225.552 C633.53,265.142 642.08,335.342 617,387.942 C600.75,422.032 569.98,451.672 544.07,472.352" fill="none" id="R1-R3" style="stroke:#181818;stroke-width:1;"/><text fill="#000000" font-family="Arial" font-size="13" lengthAdjust="spacing" textLength="55.1675" x="634" y="361.2089">10 Mbps</text></g><!--link R2 to R4--><g class="link" data-entity-1="ent0005" data-entity-2="ent0010" data-link-type="association" data-source-line="21" id="lnk14"><path d="M767.2,225.802 C752.14,233.902 735.62,242.332 720,249.352 C681.14,266.812 668.68,264.492 630,282.352 C602.83,294.892 573.71,311.032 549.94,324.982" fill="none" id="R2-R4" style="stroke:#181818;stroke-width:2;"/><text fill="#000000" font-family="Arial" font-size="13" lengthAdjust="spacing" textLength="63.4385" x="700" y="270.4189">100 Mbps</text></g><!--link R2 to R3--><g class="link" data-entity-1="ent0005" data-entity-2="ent0011" data-link-type="association" data-source-line="22" id="lnk15"><path d="M807.96,225.662 C789.32,266.642 751.71,339.732 702,387.942 C664.91,423.912 614.41,452.702 573.18,472.492" fill="none" id="R2-R3" style="stroke:#181818;stroke-width:2;"/><text fill="#000000" font-family="Arial" font-size="13" lengthAdjust="spacing" textLength="63.4385" x="779" y="361.2089">100 Mbps</text></g><!--link R4 to R3--><g class="link" data-entity-1="ent0010" data-entity-2="ent0011" data-link-type="association" data-source-line="23" id="lnk16"><path d="M500,388.132 C500,412.962 500,447.832 500,472.642" fill="none" id="R4-R3" style="stroke:#181818;stroke-width:1;"/><text fill="#000000" font-family="Arial" font-size="13" lengthAdjust="spacing" textLength="55.1675" x="501" y="426.0089">10 Mbps</text></g><!--link R4 to SW1--><g class="link" data-entity-1="ent0010" data-entity-2="ent0018" data-link-type="association" data-source-line="31" id="lnk21"><path d="M453.82,388.312 C412.29,415.902 352.22,455.792 314.95,480.542" fill="none" id="R4-SW1" style="stroke:#181818;stroke-width:1;"/></g><!--link SW1 to V50_1--><g class="link" data-entity-1="ent0018" data-entity-2="ent0019" data-link-type="association" data-source-line="32" id="lnk22"><path d="M249.63,527.622 C214.42,552.902 157.64,593.682 122.42,618.972" fill="none" id="SW1-V50_1" style="stroke:#181818;stroke-width:1;"/></g><!--link SW1 to V60_1--><g class="link" data-entity-1="ent0018" data-entity-2="ent0020" data-link-type="association" data-source-line="33" id="lnk23"><path d="M281,527.622 C281,552.902 281,593.682 281,618.972" fill="none" id="SW1-V60_1" style="stroke:#181818;stroke-width:1;"/></g><!--link R3 to SW2--><g class="link" data-entity-1="ent0011" data-entity-2="ent0025" data-link-type="association" data-source-line="41" id="lnk28"><path d="M500,535.712 C500,561.012 500,596.342 500,619.082" fill="none" id="R3-SW2" style="stroke:#181818;stroke-width:1;"/></g><!--link SW2 to V10_2--><g class="link" data-entity-1="ent0025" data-entity-2="ent0026" data-link-type="association" data-source-line="42" id="lnk29"><path d="M497.37,665.982 C495.37,683.042 492.63,706.392 490.63,723.432" fill="none" id="SW2-V10_2" style="stroke:#181818;stroke-width:1;"/></g><!--link SW2 to V20_2--><g class="link" data-entity-1="ent0025" data-entity-2="ent0027" data-link-type="association" data-source-line="43" id="lnk30"><path d="M536.02,664.242 C565.79,681.342 607.98,705.592 638.63,723.212" fill="none" id="SW2-V20_2" style="stroke:#181818;stroke-width:1;"/></g><?plantuml-src TP91QuCm68Rl_eeFJzl1aaGjsw27bh9TjWuSkCkWf9grOfj8JEbXzBylLPF6XdemyFhmvlbCshhY3PNq05oKh6KDf2XeRIWfhxsmPB_qk5UlWgiLFJ2OouhkWw3OYsC9uLmo2WWMjAWtWhCGQ0kN3C5V0Fgvx0DXXc2P_V07_4mcUFeq8MawmSbZHsV81J4iV780iGiItVYfTapUm6I0IGTtBxrxL8eJZqo54_IOtZQIrNQdkkGydWxReV1ug0GoSLHCHe97D6fLLTHQvgjI38noulBnVTvOnuurXjbCDy0BO7ZRDAqrrPBn9KNmOMDoXP6VnrwUU3LwwaQV8jrgrNu6M35r4h9kmz7SNz_z7z6ha-RlyvM-EB2aYdQVynIjFM2A81TLqT-JV6e8wzIVYcdMguckRMxO5NZYvAuu6SJ9hHTsnJ5QUm0PYHD3zEBnLPmCZiGwsZOtx0hE_m00?></g></svg>