<svg xmlns="http://www.w3.org/2000/svg" contentStyleType="text/css" data-diagram-type="DESCRIPTION" height="1133px" preserveAspectRatio="none" style="width:1087px;height:1133px;" version="1.1" viewBox="0 0 1087 1133" width="1087px" zoomAndPan="magnify">
  <rect x="0.0" y="0.0" width="1087.0" height="1133.0" fill="white"/>
  <defs/>
  <g>
    <g class="cluster" data-qualified-name="AD" data-source-line="10" id="ent0002">
      <path d="M124.6685,33.2129 C134.6366,19.0854 145.5032,16.5538 155.7699,32.9082 C165.4361,13.538 181.711,12.9711 192.1265,32.2025 C200.6642,12.135 215.3801,11.5303 228.4422,27.6637 C239.6378,13.123 252.1271,14.4381 260.1172,30.9351 C265.9749,12.9097 280.0693,13.949 290.9139,25.7934 C300.4826,10.1692 318.0646,11.4651 326.5888,26.9897 C336.1008,12.381 350.7201,10.7914 359.7385,27.5119 C367.2865,11.7697 383.4276,10.4116 393.2905,24.9466 C407.9458,6 420.4446,8.78 432.1325,27.969 C443.3895,13.3743 455.8994,16.5067 464.2739,31.1389 C471.8649,17.7712 487.9463,16.9379 496.6737,29.7316 C506.1444,14.798 520.908,16.687 528.9988,31.2441 C539.1131,15.621 557.1135,17.5945 565.4571,33.3045 C577.8173,16.1432 594.7037,21.5568 603,37.8632 C604.1292,37.5926 604.9835,38.362 604.6584,39.5345 C621.8473,50.0275 621.1944,62.0043 606.6379,74.3046 C624.0709,80.825 621.2789,95.4336 609.7641,104.9108 C628.2491,113.5374 624.0861,129.42 610.6232,138.8552 C622.739,149.8937 621.4972,160.5806 607.5635,168.9727 C623.456,176.4836 621.999,191.2785 608.6506,199.82 C624.3182,219.798 616.4871,230.1069 596,238.1532 C597.9625,237.2583 599.4086,238.4015 599.3611,240.4491 C587.4177,256.7081 575.1153,254.9892 563.7646,239.7788 C553.9908,256.5299 542.5679,260.184 529.9245,242.6077 C521.4294,258.7079 509.7203,258.1804 499.9536,243.8606 C487.1346,261.1389 474.8444,263.0044 461.1346,244.8362 C455.0814,260.457 443.5323,260.9679 432.1928,250.7595 C421.8345,267.9885 406.707,271.7287 394.8285,252.3093 C386.8325,267.8422 373.5774,269.6507 363.7312,254.1641 C352.2917,272.2226 335.1377,271.879 325.4859,252.3453 C313.9483,266.3633 300.9384,266.9818 290.6853,250.8621 C278.9118,266.5152 266.8041,263.5099 259.0321,246.9322 C249.9404,262.0144 238.853,261.0852 228.3378,248.5121 C214.0098,266.2915 200.1831,267.5016 189.2468,245.2039 C181.4149,259.6556 166.3933,258.452 158.7901,244.9546 C140.8127,259.852 119.3242,257.3196 114,231.1532 C115.5507,231.7634 116.1405,232.6921 114.8449,234.1145 C98.2981,224.0306 97.7767,212.1444 114.4273,201.6336 C100.4379,195.1552 98.5368,180.8335 110.9949,171.3568 C92.9672,167.3965 90.8955,153.244 101.1078,140.2949 C83.3934,124.1119 90.6009,113.1338 107.8504,103.3282 C94.7618,90.6041 95.3099,80.6629 111.6645,71.463 C92.4347,56.0362 98.5503,36.7064 121,30.8632 C123.0691,29.6612 124.8628,30.8814 124.6685,33.2129" fill="none" style="stroke:#181818;stroke-width:1;"/>
      <text fill="#000000" font-family="Arial" font-size="14" font-style="italic" lengthAdjust="spacing" textLength="37.4883" x="339.7559" y="48.8583">«AD»</text>
      <text fill="#000000" font-family="Arial" font-size="14" font-weight="bold" lengthAdjust="spacing" textLength="127.5791" x="294.7104" y="65.1552">Active Directory</text>
    </g>
    <g class="cluster" data-qualified-name="AD.DC" data-source-line="11" id="ent0003">
      <polygon fill="none" points="138,99.8632,148,89.8632,579,89.8632,579,204.1532,569,214.1532,138,214.1532,138,99.8632" style="stroke:#181818;stroke-width:1;"/>
      <line style="stroke:#181818;stroke-width:1;" x1="569" x2="579" y1="99.8632" y2="89.8632"/>
      <line style="stroke:#181818;stroke-width:1;" x1="138" x2="569" y1="99.8632" y2="99.8632"/>
      <line style="stroke:#181818;stroke-width:1;" x1="569" x2="569" y1="99.8632" y2="214.1532"/>
      <text fill="#000000" font-family="Arial" font-size="14" font-weight="bold" lengthAdjust="spacing" textLength="143.9854" x="282.5073" y="115.8583">Domain Controller</text>
      <text fill="#000000" font-family="Arial" font-size="14" font-weight="bold" lengthAdjust="spacing" textLength="41.3779" x="333.811" y="132.1552">DC01</text>
    </g>
    <g class="cluster" data-qualified-name="Clients" data-source-line="17" id="ent0006">
      <path d="M822.075,63.7104 C832.4455,47.5884 850.9891,45.8907 861.2516,63.8346 C873.7763,49.6455 886.05,45.96 897.286,65.2228 C907.2426,47.5816 922.7188,42.167 936.128,61.6062 C947.3675,42.42 964.6396,42.7709 974.0093,63.3858 C985.9613,45.8432 1001.2827,46.3717 1012.8004,63.8665 C1030.1472,43.0589 1044.4286,49.0649 1056,69.8632 C1057.0297,68.6518 1058.0137,69.0697 1058.5743,70.3483 C1074.8138,80.4507 1073.1795,92.855 1058.0435,102.4385 C1075.0155,111.6921 1072.8379,120.8646 1060.0978,132.171 C1075.184,141.1764 1074.2896,155.1782 1061.2466,165.163 C1077.0249,176.9581 1076.2418,188.0261 1059.8798,198.5035 C1071.6813,206.0688 1071.9089,214.9189 1062.0497,224.3059 C1077.286,235.5899 1080.099,248.3559 1061.0318,258.6224 C1075.1163,266.1378 1076.7621,280.2466 1063.2004,289.6917 C1076.3682,300.0439 1076.3984,313.8941 1060.2133,321.4888 C1072.0696,332.0614 1074.1729,342.3172 1058.1616,350.9489 C1072.0433,356.8139 1075.7423,367.9817 1062.7854,378.3719 C1078.1039,389.3992 1075.9153,399.0265 1062.0023,409.3139 C1079.3838,420.3355 1073.5102,436.6823 1057.7689,443.6162 C1071.3338,453.0458 1070.9645,463.48 1057.4175,472.5806 C1070.9702,485.4351 1067.2388,502.2724 1049,507.4532 C1050.134,506.8915 1050.8523,507.4685 1050.9354,508.6321 C1043.2988,527.0335 1025.2284,535.1259 1011.1189,515.3901 C1003.9014,532.5961 988.9841,536.0934 977.799,519.2755 C966.7311,541.6381 953.8184,542.1371 938.5574,523.266 C926.0265,542.0647 910.4641,538.8812 900.4244,520.6973 C887.6763,537.4436 868.1524,538.6079 859.7502,516.1845 C837.9876,536.601 819.891,526.1948 814,500.4532 C816.6935,499.4389 818.7267,499.8068 818.802,503.2645 C805.4817,496.1292 802.244,485.5062 815.4007,475.1659 C801.5417,462.635 801.3338,451.7492 816.3866,440.0295 C801.0392,432.3913 799.4968,420.9753 812.6843,409.838 C799.8523,401.4617 798.6941,389.5165 812.9501,381.3933 C798.4489,371.8537 798.8334,361.6988 812.2133,351.4726 C796.6715,346.1886 794.642,331.0939 807.08,321.0836 C793.3465,308.4699 791.114,297.2607 809.1258,286.5264 C797.397,277.7354 798.0523,263.9351 810.8623,256.5664 C795.6867,247.658 797.377,236.2758 810.291,226.8278 C792.3284,215.9528 793.2176,204.489 809.6206,192.9343 C798.9091,183.4677 800.8171,174.31 812.4858,167.3496 C798.7919,157.6404 797.7436,144.4146 814.4255,136.623 C802.5113,127.4514 803.2119,112.1873 817.3472,105.4578 C798.7618,92.2073 800.2384,72.7393 821,62.8632 C821.6471,62.6718 822.124,63.0186 822.075,63.7104" fill="none" style="stroke:#181818;stroke-width:1;"/>
      <text fill="#000000" font-family="Arial" font-size="14" font-style="italic" lengthAdjust="spacing" textLength="66.7051" x="901.6475" y="80.8583">«CLIENT»</text>
      <text fill="#000000" font-family="Arial" font-size="14" font-weight="bold" lengthAdjust="spacing" textLength="117.5713" x="876.2144" y="97.1552">Client Network</text>
    </g>
    <g class="cluster" data-qualified-name="Clients.WinClient" data-source-line="18" id="ent0007">
      <polygon fill="none" points="830,123.8632,840,113.8632,1040,113.8632,1040,481.4532,1030,491.4532,830,491.4532,830,123.8632" style="stroke:#181818;stroke-width:1;"/>
      <line style="stroke:#181818;stroke-width:1;" x1="1030" x2="1040" y1="123.8632" y2="113.8632"/>
      <line style="stroke:#181818;stroke-width:1;" x1="830" x2="1030" y1="123.8632" y2="123.8632"/>
      <line style="stroke:#181818;stroke-width:1;" x1="1030" x2="1030" y1="123.8632" y2="491.4532"/>
      <text fill="#000000" font-family="Arial" font-size="14" font-weight="bold" lengthAdjust="spacing" textLength="122.0146" x="869.9927" y="139.8583">Windows Client</text>
    </g>
    <g class="cluster" data-qualified-name="Palo Alto Firewall" data-source-line="24" id="ent0010">
      <rect fill="none" height="522.89" rx="2.5" ry="2.5" style="stroke:#181818;stroke-width:1;" width="775" x="7" y="345.1532"/>
      <path d="M155.5576,345.1532 L155.5576,354.45 L145.5576,364.45 L7,364.45" fill="none" style="stroke:#181818;stroke-width:1;"/>
      <text fill="#000000" font-family="Arial" font-size="14" font-weight="bold" lengthAdjust="spacing" textLength="138.5576" x="10" y="359.1483">Palo Alto Firewall</text>
    </g>
    <g class="cluster" data-qualified-name="Palo Alto Firewall.UID_Agent" data-source-line="25" id="ent0011">
      <rect fill="none" height="103.3" rx="2.5" ry="2.5" style="stroke:#181818;stroke-width:1;" width="441" x="138" y="396.1532"/>
      <line style="stroke:#181818;stroke-width:1;" x1="138" x2="579" y1="416.45" y2="416.45"/>
      <text fill="#000000" font-family="Arial" font-size="14" font-weight="bold" lengthAdjust="spacing" textLength="110.626" x="303.187" y="411.1483">User-ID Agent</text>
    </g>
    <g class="cluster" data-qualified-name="Palo Alto Firewall.SSL_Proxy" data-source-line="30" id="ent0014">
      <rect fill="none" height="103.3" rx="2.5" ry="2.5" style="stroke:#181818;stroke-width:1;" width="490" x="260" y="572.4532"/>
      <line style="stroke:#181818;stroke-width:1;" x1="260" x2="750" y1="592.75" y2="592.75"/>
      <text fill="#000000" font-family="Arial" font-size="14" font-weight="bold" lengthAdjust="spacing" textLength="149.167" x="430.4165" y="587.4483">SSL Forward Proxy</text>
    </g>
    <g class="cluster" data-qualified-name="Palo Alto Firewall.Policy" data-source-line="35" id="ent0017">
      <rect fill="none" height="93.29" rx="2.5" ry="2.5" style="stroke:#181818;stroke-width:1;" width="289" x="254" y="742.7532"/>
      <line style="stroke:#181818;stroke-width:1;" x1="254" x2="543" y1="763.05" y2="763.05"/>
      <text fill="#000000" font-family="Arial" font-size="14" font-weight="bold" lengthAdjust="spacing" textLength="175.8271" x="310.5864" y="757.7483">Security Policy Engine</text>
    </g>
    <g class="entity" data-qualified-name="AD.DC.LDAP" data-source-line="12" id="ent0004">
      <rect fill="#F1F1F1" height="36.2969" rx="2.5" ry="2.5" style="stroke:#181818;stroke-width:0.5;" width="123.9814" x="431.01" y="153.8632"/>
      <text fill="#000000" font-family="Arial" font-size="14" lengthAdjust="spacing" textLength="103.9814" x="441.01" y="176.8583">LDAP/Kerberos</text>
    </g>
    <g class="entity" data-qualified-name="AD.DC.WinRM" data-source-line="13" id="ent0005">
      <rect fill="#F1F1F1" height="36.2969" rx="2.5" ry="2.5" style="stroke:#181818;stroke-width:0.5;" width="124.6035" x="226.7" y="153.8632"/>
      <text fill="#000000" font-family="Arial" font-size="14" lengthAdjust="spacing" textLength="104.6035" x="236.7" y="176.8583">WinRM Service</text>
    </g>
    <g class="entity" data-qualified-name="Clients.WinClient.User" data-source-line="19" id="ent0008">
      <rect fill="#F1F1F1" height="36.2969" rx="2.5" ry="2.5" style="stroke:#181818;stroke-width:0.5;" width="177.0693" x="846.47" y="153.8632"/>
      <text fill="#000000" font-family="Arial" font-size="14" lengthAdjust="spacing" textLength="157.0693" x="856.47" y="176.8583">User: marketing\user1</text>
    </g>
    <g class="entity" data-qualified-name="Clients.WinClient.Browser" data-source-line="20" id="ent0009">
      <rect fill="#F1F1F1" height="36.2969" rx="2.5" ry="2.5" style="stroke:#181818;stroke-width:0.5;" width="77.0391" x="868.48" y="439.1532"/>
      <text fill="#000000" font-family="Arial" font-size="14" lengthAdjust="spacing" textLength="57.0391" x="878.48" y="462.1483">Browser</text>
    </g>
    <g class="entity" data-qualified-name="Palo Alto Firewall.UID_Agent.UID_LDAP" data-source-line="26" id="ent0012">
      <rect fill="#F1F1F1" height="36.2969" rx="2.5" ry="2.5" style="stroke:#181818;stroke-width:0.5;" width="115.1084" x="439.45" y="439.1532"/>
      <text fill="#000000" font-family="Arial" font-size="14" lengthAdjust="spacing" textLength="95.1084" x="449.45" y="462.1483">LDAP Queries</text>
    </g>
    <g class="entity" data-qualified-name="Palo Alto Firewall.UID_Agent.UID_WinRM" data-source-line="27" id="ent0013">
      <rect fill="#F1F1F1" height="36.2969" rx="2.5" ry="2.5" style="stroke:#181818;stroke-width:0.5;" width="133.5723" x="226.21" y="439.1532"/>
      <text fill="#000000" font-family="Arial" font-size="14" lengthAdjust="spacing" textLength="113.5723" x="236.21" y="462.1483">WinRM Sessions</text>
    </g>
    <g class="entity" data-qualified-name="Palo Alto Firewall.SSL_Proxy.RootCA" data-source-line="31" id="ent0015">
      <rect fill="#F1F1F1" height="36.2969" rx="2.5" ry="2.5" style="stroke:#181818;stroke-width:0.5;" width="140.2441" x="585.88" y="615.4532"/>
      <text fill="#000000" font-family="Arial" font-size="14" lengthAdjust="spacing" textLength="120.2441" x="595.88" y="638.4483">Root CA Installed</text>
    </g>
    <g class="entity" data-qualified-name="Palo Alto Firewall.SSL_Proxy.Decrypt" data-source-line="32" id="ent0016">
      <rect fill="#F1F1F1" height="36.2969" rx="2.5" ry="2.5" style="stroke:#181818;stroke-width:0.5;" width="157.2178" x="348.39" y="615.4532"/>
      <text fill="#000000" font-family="Arial" font-size="14" lengthAdjust="spacing" textLength="137.2178" x="358.39" y="638.4483">Decrypt/Re-encrypt</text>
    </g>
    <g class="entity" data-qualified-name="Palo Alto Firewall.Policy.PolicyCheck" data-source-line="36" id="ent0018">
      <polygon fill="#F1F1F1" points="519.29,798.8932,475.14,785.7532,386.86,785.7532,342.71,798.8932,386.86,812.0432,475.14,812.0432,519.29,798.8932" style="stroke:#181818;stroke-width:0.5;"/>
      <text fill="#000000" font-family="Arial" font-size="14" lengthAdjust="spacing" textLength="88.2861" x="386.8531" y="803.7483">Policy Check</text>
    </g>
    <g class="entity" data-qualified-name="Internet" data-source-line="43" id="ent0021">
      <path d="M397.8518,959.9238 C400.9475,954.8897 404.8761,954.6246 408.6835,959.1144 C411.7915,952.9425 416.1358,953.0432 420.3775,957.9139 C423.2935,952.5913 427.5613,952.1138 431.1413,957.2292 C434.8898,952.3048 438.7467,951.2041 442.734,956.9702 C447.7772,951.7068 452.0082,951.8555 454.8507,959.1018 C458.9083,953.9343 463.5661,954.2088 467.2525,959.5403 C474.5904,962.3797 476.3277,969.7358 470.0129,975.0112 C475.8175,981.4128 475.663,986.4965 467.667,990.8547 C465.7128,997.0153 460.179,997.4234 456.4302,992.709 C453.4904,1000.9823 449.0231,1002.0243 442.8992,995.6506 C441.9668,1001.3668 437.2734,1003.5497 432.3854,1000.2773 C427.7873,1004.4754 422.5043,1003.9356 420.5421,997.3755 C414.0223,1002.211 410.7972,999.5769 408.5899,992.8987 C404.3816,997.3543 399.3143,996.8859 396.6427,991.1052 C386.9847,990.1325 383.7638,982.909 390.3599,975.424 C384.2429,966.4417 387.3357,960.8667 397.8518,959.9238" fill="#F1F1F1" style="stroke:#181818;stroke-width:0.5;"/>
      <text fill="#000000" font-family="Arial" font-size="14" lengthAdjust="spacing" textLength="55.8359" x="403.08" y="979.0383">Internet</text>
    </g>
    <g class="entity" data-qualified-name="Block" data-source-line="59" id="ent0028">
      <rect fill="#F1F1F1" height="46.2969" rx="2.5" ry="2.5" style="stroke:#181818;stroke-width:0.5;" width="77.8643" x="798.07" y="775.7532"/>
      <rect fill="#F1F1F1" height="10" style="stroke:#181818;stroke-width:0.5;" width="15" x="855.9343" y="780.7532"/>
      <rect fill="#F1F1F1" height="2" style="stroke:#181818;stroke-width:0.5;" width="4" x="853.9343" y="782.7532"/>
      <rect fill="#F1F1F1" height="2" style="stroke:#181818;stroke-width:0.5;" width="4" x="853.9343" y="786.7532"/>
      <text fill="#000000" font-family="Arial" font-size="14" lengthAdjust="spacing" textLength="37.8643" x="813.07" y="808.7483">Block</text>
    </g>
    <g class="link" data-entity-1="ent0008" data-entity-2="ent0009" data-link-type="association" data-source-line="46" id="lnk22">
      <path d="M933.29,190.3032 C928.29,240.8832 913.74,388.1332 908.72,438.8732" fill="none" id="User-Browser" style="stroke:#181818;stroke-width:1;"/>
      <text fill="#000000" font-family="Arial" font-size="13" lengthAdjust="spacing" textLength="82.6084" x="926" y="300.2201">User Activity</text>
    </g>
    <g class="link" data-entity-1="ent0009" data-entity-2="ent0016" data-link-type="association" data-source-line="47" id="lnk23">
      <path d="M868.02,464.8732 C800.37,477.1432 657.77,506.8932 546,556.4532 C510.12,572.3632 472.61,598.1332 449.52,615.2132" fill="none" id="Browser-Decrypt" style="stroke:#181818;stroke-width:1;"/>
      <text fill="#000000" font-family="Arial" font-size="13" lengthAdjust="spacing" textLength="99.271" x="603" y="544.5201">HTTPS Request</text>
    </g>
    <g class="link" data-entity-1="ent0003" data-entity-2="ent0011" data-link-type="association" data-source-line="49" id="lnk24">
      <path d="M146,214.8726 C146,215.2727 146,215.6749 146,216.0793 C146,216.888 146,217.7053 146,218.5308 C146,244.9472 146,279.8088 146,314.6694 C146,332.0997 146,349.5298 146,365.9039 C146,374.0909 146,382.014 146,389.541 C146,391.4228 146,393.2798 146,395.11 C146,395.3388 146,395.5672 146,395.7951" fill="none" id="DC-UID_Agent" style="stroke:#181818;stroke-width:1;"/>
      <text fill="#000000" font-family="Arial" font-size="13" font-weight="bold" lengthAdjust="spacing" textLength="122.4082" x="208.644" y="275.2201">User-ID Mapping</text>
      <path d="M151,284.286 L151,324.286 L388,324.286 L388,294.286 L378,284.286 L151,284.286" fill="#FEFFDD" style="stroke:#181818;stroke-width:0.5;"/>
      <path d="M378,284.286 L378,294.286 L388,294.286 L378,284.286" fill="#FEFFDD" style="stroke:#181818;stroke-width:0.5;"/>
      <text fill="#000000" font-family="Arial" font-size="13" font-weight="bold" lengthAdjust="spacing" textLength="216.6963" x="157" y="301.3529">Real-time IP-to-User Mapping</text>
      <text fill="#000000" font-family="Arial" font-size="13" lengthAdjust="spacing" textLength="121.5005" x="157" y="316.4857">via LDAP + WinRM</text>
    </g>
    <g class="link" data-entity-1="ent0011" data-entity-2="ent0018" data-link-type="association" data-source-line="55" id="lnk25">
      <path d="M137.8737,483.7472 C137.8053,483.9894 137.7367,484.233 137.6679,484.4781 C137.5303,484.9682 137.392,485.464 137.2531,485.9654 C132.8088,502.0094 127.7425,523.7669 124.815,547.7982 C118.96,595.8607 121.66,653.0182 155,691.7532 C209.3,754.8432 263.1,692.5732 339,726.7532 C371.22,741.2632 402.38,769.1832 418.87,785.3932" fill="none" id="UID_Agent-PolicyCheck" style="stroke:#181818;stroke-width:1;"/>
      <text fill="#000000" font-family="Arial" font-size="13" lengthAdjust="spacing" textLength="83.5859" x="156" y="638.1701">User Identity</text>
    </g>
    <g class="link" data-entity-1="ent0016" data-entity-2="ent0018" data-link-type="association" data-source-line="56" id="lnk26">
      <path d="M427.43,652.0732 C428.24,685.3132 430,756.8932 430.7,785.6032" fill="none" id="Decrypt-PolicyCheck" style="stroke:#181818;stroke-width:1;"/>
      <text fill="#000000" font-family="Arial" font-size="13" lengthAdjust="spacing" textLength="113.0898" x="430" y="714.8201">Decrypted Traffic</text>
    </g>
    <g class="link" data-entity-1="ent0018" data-entity-2="ent0021" data-link-type="association" data-source-line="58" id="lnk27">
      <path d="M431,812.3632 C431,841.3832 431,913.8232 431,950.7632" fill="none" id="PolicyCheck-Internet" style="stroke:#181818;stroke-width:1;"/>
      <text fill="#000000" font-family="Arial" font-size="13" font-weight="bold" lengthAdjust="spacing" textLength="179.48" x="432" y="897.1101">Allow (marketing group)</text>
    </g>
    <g class="link" data-entity-1="ent0018" data-entity-2="ent0028" data-link-type="dependency" data-source-line="59" id="lnk29">
      <path d="M520.85,798.8932 C607.39,798.8932 728.23,798.8932 791.73,798.8932" fill="none" id="PolicyCheck-to-Block" style="stroke:#181818;stroke-width:1;"/>
      <polygon fill="#181818" points="797.73,798.8932,788.73,794.8932,792.73,798.8932,788.73,802.8932,797.73,798.8932" style="stroke:#181818;stroke-width:1;"/>
      <text fill="#000000" font-family="Arial" font-size="13" lengthAdjust="spacing" textLength="131.7964" x="593.18" y="791.9601">Deny (other groups)</text>
    </g>
    <g class="legend" data-source-line="61">
      <rect fill="none" height="91.4844" rx="7.5" ry="7.5" style="stroke:#000000;stroke-width:1;" width="306.4063" x="383.3464" y="1022.4754"/>
      <text fill="#000000" font-family="Arial" font-size="14" font-weight="bold" lengthAdjust="spacing" textLength="162.292" x="388.3464" y="1040.4706">SSL Decryption Flow</text>
      <text fill="#000000" font-family="Arial" font-size="14" lengthAdjust="spacing" textLength="202.7197" x="388.3464" y="1056.7674">1. Client → HTTPS to Internet</text>
      <text fill="#000000" font-family="Arial" font-size="14" lengthAdjust="spacing" textLength="241.7324" x="388.3464" y="1073.0643">2. Firewall intercepts with Root CA</text>
      <text fill="#000000" font-family="Arial" font-size="14" lengthAdjust="spacing" textLength="207.8467" x="388.3464" y="1089.3612">3. User-ID maps IP to AD user</text>
      <text fill="#000000" font-family="Arial" font-size="14" lengthAdjust="spacing" textLength="296.4063" x="388.3464" y="1105.6581">4. Policy allows/denies based on AD group</text>
    </g>
  </g>
</svg>