<?plantuml 1.2026.1?><svg xmlns="http://www.w3.org/2000/svg" xmlns:xlink="http://www.w3.org/1999/xlink" contentStyleType="text/css" data-diagram-type="DESCRIPTION" height="518px" preserveAspectRatio="none" style="width:851px;height:518px;background:#FFFFFF;" version="1.1" viewBox="0 0 851 518" width="851px" zoomAndPan="magnify"><defs/><g><!--cluster PA--><g class="cluster" data-qualified-name="PA" data-source-line="8" id="ent0004"><polygon fill="none" points="253.38,141.59,263.38,131.59,653.38,131.59,653.38,369.63,643.38,379.63,253.38,379.63,253.38,141.59" style="stroke:#181818;stroke-width:1;"/><line style="stroke:#181818;stroke-width:1;" x1="643.38" x2="653.38" y1="141.59" y2="131.59"/><line style="stroke:#181818;stroke-width:1;" x1="253.38" x2="643.38" y1="141.59" y2="141.59"/><line style="stroke:#181818;stroke-width:1;" x1="643.38" x2="643.38" y1="141.59" y2="379.63"/><text fill="#000000" font-family="Arial" font-size="14" font-weight="bold" lengthAdjust="spacing" textLength="138.5576" x="380.1012" y="157.5851">Palo Alto Firewall</text></g><!--entity UID--><g class="entity" data-qualified-name="PA.UID" data-source-line="9" id="ent0005"><rect fill="#F1F1F1" height="46.2969" rx="2.5" ry="2.5" style="stroke:#181818;stroke-width:0.5;" width="137.7607" x="499.5" y="203.74"/><rect fill="#F1F1F1" height="10" style="stroke:#181818;stroke-width:0.5;" width="15" x="617.2607" y="208.74"/><rect fill="#F1F1F1" height="2" style="stroke:#181818;stroke-width:0.5;" width="4" x="615.2607" y="210.74"/><rect fill="#F1F1F1" height="2" style="stroke:#181818;stroke-width:0.5;" width="4" x="615.2607" y="214.74"/><text fill="#000000" font-family="Arial" font-size="14" lengthAdjust="spacing" textLength="97.7607" x="514.5" y="236.7351">User-ID Agent</text></g><!--entity SSL--><g class="entity" data-qualified-name="PA.SSL" data-source-line="10" id="ent0006"><rect fill="#F1F1F1" height="62.5938" rx="2.5" ry="2.5" style="stroke:#181818;stroke-width:0.5;" width="170.8535" x="268.95" y="195.59"/><rect fill="#F1F1F1" height="10" style="stroke:#181818;stroke-width:0.5;" width="15" x="419.8035" y="200.59"/><rect fill="#F1F1F1" height="2" style="stroke:#181818;stroke-width:0.5;" width="4" x="417.8035" y="202.59"/><rect fill="#F1F1F1" height="2" style="stroke:#181818;stroke-width:0.5;" width="4" x="417.8035" y="206.59"/><text fill="#000000" font-family="Arial" font-size="14" lengthAdjust="spacing" textLength="130.8535" x="283.95" y="228.5851">SSL Forward Proxy</text><text fill="#000000" font-family="Arial" font-size="14" lengthAdjust="spacing" textLength="72.3311" x="283.95" y="244.882">+ Root CA</text></g><!--entity Policy--><g class="entity" data-qualified-name="PA.Policy" data-source-line="11" id="ent0007"><polygon fill="#F1F1F1" points="582.66,342.34,538.52,321.04,450.23,321.04,406.09,342.34,450.23,363.63,538.52,363.63,582.66,342.34" style="stroke:#181818;stroke-width:0.5;"/><text fill="#000000" font-family="Arial" font-size="14" lengthAdjust="spacing" textLength="57.4902" x="450.2331" y="339.0351">Security</text><text fill="#000000" font-family="Arial" font-size="14" lengthAdjust="spacing" textLength="88.2861" x="450.2331" y="355.332">Policy Check</text></g><!--entity Clients--><g class="entity" data-qualified-name="Clients" data-source-line="5" id="ent0002"><polygon fill="#F1F1F1" points="289.83,16,299.83,6,442.9169,6,442.9169,58.5938,432.9169,68.5938,289.83,68.5938,289.83,16" style="stroke:#181818;stroke-width:0.5;"/><line style="stroke:#181818;stroke-width:0.5;" x1="432.9169" x2="442.9169" y1="16" y2="6"/><line style="stroke:#181818;stroke-width:0.5;" x1="289.83" x2="432.9169" y1="16" y2="16"/><line style="stroke:#181818;stroke-width:0.5;" x1="432.9169" x2="432.9169" y1="16" y2="68.5938"/><text fill="#000000" font-family="Arial" font-size="14" lengthAdjust="spacing" textLength="107.7822" x="304.83" y="38.9951">Windows Client</text><text fill="#000000" font-family="Arial" font-size="14" lengthAdjust="spacing" textLength="113.0869" x="304.83" y="55.292">+ AD\marketing</text></g><!--entity Internet--><g class="entity" data-qualified-name="Internet" data-source-line="6" id="ent0003"><path d="M461.2318,466.5106 C464.3275,461.4766 468.2561,461.2114 472.0635,465.7012 C475.1715,459.5293 479.5158,459.63 483.7575,464.5007 C486.6735,459.1781 490.9413,458.7007 494.5213,463.816 C498.2698,458.8916 502.1267,457.791 506.114,463.557 C511.1572,458.2937 515.3882,458.4424 518.2307,465.6886 C522.2883,460.5211 526.9461,460.7956 530.6325,466.1271 C537.9704,468.9666 539.7077,476.3227 533.3929,481.5981 C539.1975,487.9997 539.043,493.0833 531.047,497.4416 C529.0928,503.6022 523.559,504.0102 519.8102,499.2958 C516.8704,507.5691 512.4031,508.6111 506.2792,502.2374 C505.3468,507.9536 500.6534,510.1366 495.7654,506.8641 C491.1673,511.0623 485.8843,510.5224 483.9221,503.9624 C477.4023,508.7978 474.1772,506.1637 471.9699,499.4855 C467.7616,503.9411 462.6943,503.4727 460.0227,497.692 C450.3647,496.7193 447.1438,489.4959 453.7399,482.0108 C447.6229,473.0285 450.7157,467.4535 461.2318,466.5106" fill="#F1F1F1" style="stroke:#181818;stroke-width:0.5;"/><text fill="#000000" font-family="Arial" font-size="14" lengthAdjust="spacing" textLength="55.8359" x="466.46" y="485.6251">Internet</text></g><!--entity AD--><g class="entity" data-qualified-name="AD" data-source-line="17" id="ent0010"><polygon fill="#F1F1F1" points="16,205.59,26,195.59,208.7559,195.59,208.7559,248.1838,198.7559,258.1838,16,258.1838,16,205.59" style="stroke:#181818;stroke-width:0.5;"/><line style="stroke:#181818;stroke-width:0.5;" x1="198.7559" x2="208.7559" y1="205.59" y2="195.59"/><line style="stroke:#181818;stroke-width:0.5;" x1="16" x2="198.7559" y1="205.59" y2="205.59"/><line style="stroke:#181818;stroke-width:0.5;" x1="198.7559" x2="198.7559" y1="205.59" y2="258.1838"/><text fill="#000000" font-family="Arial" font-size="14" lengthAdjust="spacing" textLength="152.7559" x="31" y="228.5851">AD Domain Controller</text><text fill="#000000" font-family="Arial" font-size="14" lengthAdjust="spacing" textLength="119.082" x="31" y="244.882">LDAP &amp; Kerberos</text></g><!--entity Drop Traffic--><g class="entity" data-qualified-name="Drop Traffic" data-source-line="23" id="ent0014"><rect fill="#F1F1F1" height="46.2969" rx="2.5" ry="2.5" style="stroke:#181818;stroke-width:0.5;" width="122.7695" x="722.99" y="319.19"/><rect fill="#F1F1F1" height="10" style="stroke:#181818;stroke-width:0.5;" width="15" x="825.7595" y="324.19"/><rect fill="#F1F1F1" height="2" style="stroke:#181818;stroke-width:0.5;" width="4" x="823.7595" y="326.19"/><rect fill="#F1F1F1" height="2" style="stroke:#181818;stroke-width:0.5;" width="4" x="823.7595" y="330.19"/><text fill="#000000" font-family="Arial" font-size="14" lengthAdjust="spacing" textLength="82.7695" x="737.99" y="352.1851">Drop Traffic</text></g><!--link UID to Policy--><g class="link" data-entity-1="ent0005" data-entity-2="ent0007" data-link-type="dependency" data-source-line="13" id="lnk8"><path d="M553.76,250.3 C540.36,270.84 523.9779,295.9545 510.9979,315.8545" fill="none" id="UID-to-Policy" style="stroke:#181818;stroke-width:1;"/><polygon fill="#181818" points="507.72,320.88,515.9872,315.5271,510.4516,316.6921,509.2866,311.1565,507.72,320.88" style="stroke:#181818;stroke-width:1;"/></g><!--link SSL to Policy--><g class="link" data-entity-1="ent0006" data-entity-2="ent0007" data-link-type="dependency" data-source-line="14" id="lnk9"><path d="M392.26,258.59 C416.56,278.28 442.7785,299.5224 464.1885,316.8724" fill="none" id="SSL-to-Policy" style="stroke:#181818;stroke-width:1;"/><polygon fill="#181818" points="468.85,320.65,464.3761,311.876,464.9654,317.502,459.3393,318.0913,468.85,320.65" style="stroke:#181818;stroke-width:1;"/></g><!--link Clients to SSL--><g class="link" data-entity-1="ent0002" data-entity-2="ent0006" data-link-type="dependency" data-source-line="19" id="lnk11"><path d="M364.42,68.85 C362.19,103.74 358.9428,154.4822 356.7128,189.3622" fill="none" id="Clients-to-SSL" style="stroke:#181818;stroke-width:1;"/><polygon fill="#181818" points="356.33,195.35,360.8961,186.6236,356.649,190.3602,352.9124,186.1131,356.33,195.35" style="stroke:#181818;stroke-width:1;"/><text fill="#000000" font-family="Arial" font-size="13" lengthAdjust="spacing" textLength="41.7485" x="363.38" y="111.6569">HTTPS</text></g><!--link AD to UID--><g class="link" data-entity-1="ent0010" data-entity-2="ent0005" data-link-type="dependency" data-source-line="20" id="lnk12"><path d="M148.5176,191.1827 C173.8076,168.2827 206.97,143.25 246.38,130.56 C340.71,100.17 377.55,93.26 469.38,130.56 C505.37,145.18 531.9119,175.0315 549.1519,198.5415" fill="none" id="AD-UID" style="stroke:#181818;stroke-width:1;"/><polygon fill="#181818" points="144.07,195.21,153.4262,192.1341,147.7763,191.8539,148.0565,186.204,144.07,195.21" style="stroke:#181818;stroke-width:1;"/><polygon fill="#181818" points="552.7,203.38,550.6035,193.7569,549.7433,199.3479,544.1522,198.4877,552.7,203.38" style="stroke:#181818;stroke-width:1;"/><text fill="#000000" font-family="Arial" font-size="13" lengthAdjust="spacing" textLength="91.584" x="208.88" y="111.6569">WinRM / LDAP</text></g><!--link Policy to Internet--><g class="link" data-entity-1="ent0007" data-entity-2="ent0003" data-link-type="dependency" data-source-line="22" id="lnk13"><path d="M494.38,364.06 C494.38,389.26 494.38,425.62 494.38,451.5" fill="none" id="Policy-to-Internet" style="stroke:#181818;stroke-width:1;"/><polygon fill="#181818" points="494.38,457.5,498.38,448.5,494.38,452.5,490.38,448.5,494.38,457.5" style="stroke:#181818;stroke-width:1;"/><text fill="#000000" font-family="Arial" font-size="13" lengthAdjust="spacing" textLength="104.6475" x="508.837" y="408.6969">Decrypt &amp; Allow</text><text fill="#000000" font-family="Arial" font-size="13" lengthAdjust="spacing" textLength="131.5615" x="495.38" y="423.8297">(If marketing group)</text></g><!--link Policy to Drop Traffic--><g class="link" data-entity-1="ent0007" data-entity-2="ent0014" data-link-type="dependency" data-source-line="23" id="lnk15"><path d="M583.75,342.34 C628.85,342.34 676.42,342.34 716.85,342.34" fill="none" id="Policy-to-Drop Traffic" style="stroke:#181818;stroke-width:1;"/><polygon fill="#181818" points="722.85,342.34,713.85,338.34,717.85,342.34,713.85,346.34,722.85,342.34" style="stroke:#181818;stroke-width:1;"/><text fill="#000000" font-family="Arial" font-size="13" lengthAdjust="spacing" textLength="79.479" x="613.33" y="335.4069">Deny others</text></g><?plantuml-src PL5BImCn4BxdLmmzY295JnwA2A6XMAooz847rqFSdMv3ipFBR4fRnFzkDhf5QWw1cVaUysYtZXehjWRY4bjiuEvMjQUaMDh-IvQujZiV9apXnTO8MfprIdK2C7XrLFA-XR5tI26dQz0cpsihMmoEgW7OljQgmlEkXC6K0WfXIBK-wFKowncq3mmJ9xYttYTOfk5JGNm5rmrJb8F1gaKPJWteAeO9jPgQSz1YCOC9ozvA2PdmuTYrE6SECDQ94m69iy63hPWY0ukTk1216NjN766ymMBxqqLA97ZweXyCu_WqVFXRwppFqb_zVDg0uTewWd7Sfx3tA3dDZCxW0fvGFb2uJMRQAFMxkPDQfpo2n-KoMwYeT3yKLsr2B7ITZ20UO_uCDz39AVNRVi_jDnrn1WivDY4wQkzvdzFbT0sdcq4bl6kkJlpUuyq8Dx0KkrwxuZt9q14uR53QRm00?></g></svg>