<?plantuml 1.2026.1?><svg xmlns="http://www.w3.org/2000/svg" xmlns:xlink="http://www.w3.org/1999/xlink" contentStyleType="text/css" data-diagram-type="DESCRIPTION" height="544px" preserveAspectRatio="none" style="width:843px;height:544px;background:#FFFFFF;" version="1.1" viewBox="0 0 843 544" width="843px" zoomAndPan="magnify"><defs/><g><!--cluster PA--><g class="cluster" data-qualified-name="PA" data-source-line="8" id="ent0003"><polygon fill="none" points="397.1762,68.3955,407.1762,58.3955,826.1962,58.3955,826.1962,360.3955,816.1962,370.3955,397.1762,370.3955,397.1762,68.3955" style="stroke:#181818;stroke-width:1;"/><line style="stroke:#181818;stroke-width:1;" x1="816.1962" x2="826.1962" y1="68.3955" y2="58.3955"/><line style="stroke:#181818;stroke-width:1;" x1="397.1762" x2="816.1962" y1="68.3955" y2="68.3955"/><line style="stroke:#181818;stroke-width:1;" x1="816.1962" x2="816.1962" y1="68.3955" y2="370.3955"/><text fill="#000000" font-family="Arial" font-size="14" font-weight="bold" lengthAdjust="spacing" textLength="138.5576" x="538.4074" y="84.3906">Palo Alto Firewall</text></g><g class="entity" data-qualified-name="PA.WAN" data-source-line="9" id="ent0004"><text fill="#000000" font-family="Arial" font-size="14" lengthAdjust="spacing" textLength="132.1182" x="350.1171" y="389.3906">WAN (ethernet1/2)</text><text fill="#000000" font-family="Arial" font-size="14" lengthAdjust="spacing" textLength="116.0469" x="358.1528" y="405.6875">192.168.2.33/32</text><rect fill="#F1F1F1" height="12" style="stroke:#181818;stroke-width:1.5;" width="12" x="410.1762" y="364.3955"/></g><g class="entity" data-qualified-name="PA.LAN" data-source-line="10" id="ent0005"><text fill="#000000" font-family="Arial" font-size="14" lengthAdjust="spacing" textLength="126.0752" x="352.1386" y="176.7969">LAN (ethernet1/1)</text><text fill="#000000" font-family="Arial" font-size="14" lengthAdjust="spacing" textLength="116.0469" x="357.1528" y="193.0938">192.168.10.1/24</text><rect fill="#F1F1F1" height="12" style="stroke:#181818;stroke-width:1.5;" width="12" x="409.1762" y="208.3955"/></g><g class="entity" data-qualified-name="PA.DMZ_IF" data-source-line="11" id="ent0006"><text fill="#000000" font-family="Arial" font-size="14" lengthAdjust="spacing" textLength="130.6758" x="350.3383" y="20.7969">DMZ (ethernet1/3)</text><text fill="#000000" font-family="Arial" font-size="14" lengthAdjust="spacing" textLength="116.0469" x="357.6528" y="37.0938">192.168.20.1/24</text><rect fill="#F1F1F1" height="12" style="stroke:#181818;stroke-width:1.5;" width="12" x="409.6762" y="52.3955"/></g><!--entity Internet--><g class="entity" data-qualified-name="Internet" data-source-line="6" id="ent0002"><path d="M20.088,356.1261 C23.1837,351.0921 27.1123,350.8269 30.9197,355.3167 C34.0278,349.1448 38.372,349.2455 42.6137,354.1163 C45.5297,348.7937 49.7975,348.3162 53.3775,353.4315 C57.126,348.5071 60.9829,347.4065 64.9703,353.1726 C70.0134,347.9092 74.2445,348.0579 77.0869,355.3041 C81.1445,350.1366 85.8023,350.4111 89.4887,355.7426 C96.8266,358.5821 98.5639,365.9382 92.2491,371.2136 C98.0537,377.6152 97.8993,382.6988 89.9033,387.0571 C87.9491,393.2177 82.4152,393.6257 78.6664,388.9113 C75.7266,397.1846 71.2594,398.2266 65.1354,391.8529 C64.2031,397.5691 59.5096,399.7521 54.6217,396.4797 C50.0236,400.6778 44.7405,400.1379 42.7783,393.5779 C36.2585,398.4133 33.0334,395.7792 30.8261,389.101 C26.6178,393.5566 21.5506,393.0882 18.8789,387.3076 C9.2209,386.3349 6,379.1114 12.5961,371.6263 C6.4792,362.644 9.572,357.069 20.088,356.1261" fill="#F1F1F1" style="stroke:#181818;stroke-width:0.5;"/><text fill="#000000" font-family="Arial" font-size="14" lengthAdjust="spacing" textLength="55.8359" x="25.3162" y="375.2406">Internet</text></g><!--entity Clients--><g class="entity" data-qualified-name="Clients" data-source-line="14" id="ent0007"><polygon fill="#F1F1F1" points="328.1562,475.1055,338.1562,465.1055,484.2031,465.1055,484.2031,517.6993,474.2031,527.6993,328.1562,527.6993,328.1562,475.1055" style="stroke:#181818;stroke-width:0.5;"/><line style="stroke:#181818;stroke-width:0.5;" x1="474.2031" x2="484.2031" y1="475.1055" y2="465.1055"/><line style="stroke:#181818;stroke-width:0.5;" x1="328.1562" x2="474.2031" y1="475.1055" y2="475.1055"/><line style="stroke:#181818;stroke-width:0.5;" x1="474.2031" x2="474.2031" y1="475.1055" y2="527.6993"/><text fill="#000000" font-family="Arial" font-size="14" lengthAdjust="spacing" textLength="106.4766" x="343.1562" y="498.1006">Internal Clients</text><text fill="#000000" font-family="Arial" font-size="14" lengthAdjust="spacing" textLength="116.0469" x="343.1562" y="514.3975">192.168.10.0/24</text></g><!--entity Web--><g class="entity" data-qualified-name="Web" data-source-line="15" id="ent0008"><polygon fill="#F1F1F1" points="627.5362,414.1055,637.5362,404.1055,778.8663,404.1055,778.8663,456.6993,768.8663,466.6993,627.5362,466.6993,627.5362,414.1055" style="stroke:#181818;stroke-width:0.5;"/><line style="stroke:#181818;stroke-width:0.5;" x1="768.8663" x2="778.8663" y1="414.1055" y2="404.1055"/><line style="stroke:#181818;stroke-width:0.5;" x1="627.5362" x2="768.8663" y1="414.1055" y2="414.1055"/><line style="stroke:#181818;stroke-width:0.5;" x1="768.8663" x2="768.8663" y1="414.1055" y2="466.6993"/><text fill="#000000" font-family="Arial" font-size="14" lengthAdjust="spacing" textLength="81.7031" x="642.5362" y="437.1006">Web Server</text><text fill="#000000" font-family="Arial" font-size="14" lengthAdjust="spacing" textLength="111.3301" x="642.5362" y="453.3975">192.168.20.156</text></g><!--link Internet to WAN--><g class="link" data-entity-1="ent0002" data-entity-2="ent0004" data-link-type="dependency" data-source-line="17" id="lnk9"><path d="M102.3462,370.3955 C189.3762,370.3955 371.6862,370.3955 404.4462,370.3955" fill="none" id="Internet-WAN" style="stroke:#181818;stroke-width:1;"/><polygon fill="#181818" points="96.3462,370.3955,105.3462,374.3955,101.3462,370.3955,105.3462,366.3955,96.3462,370.3955" style="stroke:#181818;stroke-width:1;"/><polygon fill="#181818" points="410.4462,370.3955,401.4462,366.3955,405.4462,370.3955,401.4462,374.3955,410.4462,370.3955" style="stroke:#181818;stroke-width:1;"/><text fill="#000000" font-family="Arial" font-size="13" lengthAdjust="spacing" textLength="61.9214" x="181.6562" y="366.4624">UNTRUST</text></g><!--link LAN to Clients--><g class="link" data-entity-1="ent0005" data-entity-2="ent0007" data-link-type="dependency" data-source-line="19" id="lnk10"><path d="M403.3897,216.0457 C376.0997,220.0457 266.6662,240.0355 222.4862,311.8955 C184.3762,373.8955 261.5068,428.1682 327.9668,461.9282" fill="none" id="LAN-Clients" style="stroke:#181818;stroke-width:1;"/><polygon fill="#181818" points="409.3262,215.1755,399.8413,212.523,404.3791,215.9006,401.0015,220.4384,409.3262,215.1755" style="stroke:#181818;stroke-width:1;"/><polygon fill="#181818" points="333.3162,464.6455,327.1037,457.0032,328.8584,462.381,323.4806,464.1357,333.3162,464.6455" style="stroke:#181818;stroke-width:1;"/><text fill="#000000" font-family="Arial" font-size="13" lengthAdjust="spacing" textLength="42.6816" x="191.1562" y="324.9624">TRUST</text></g><!--link DMZ_IF to Web--><g class="link" data-entity-1="ent0006" data-entity-2="ent0008" data-link-type="dependency" data-source-line="20" id="lnk11"><path d="M425.274,69.1021 C454.554,107.8421 612.288,316.4693 674.678,398.9993" fill="none" id="DMZ_IF-Web" style="stroke:#181818;stroke-width:1;"/><polygon fill="#181818" points="421.6562,64.3155,423.8918,73.9073,424.671,68.3044,430.274,69.0836,421.6562,64.3155" style="stroke:#181818;stroke-width:1;"/><polygon fill="#181818" points="678.2962,403.7855,676.0597,394.194,675.281,399.797,669.678,399.0183,678.2962,403.7855" style="stroke:#181818;stroke-width:1;"/><text fill="#000000" font-family="Arial" font-size="13" lengthAdjust="spacing" textLength="30.1323" x="525.1962" y="198.4624">DMZ</text></g><!--link Clients to WAN--><g class="link" data-entity-1="ent0007" data-entity-2="ent0004" data-link-type="dependency" data-source-line="22" id="lnk12"><path d="M426.1762,464.7355 C431.0862,455.6155 435.6562,445.3455 438.1762,435.2455 C443.7962,412.7255 431.071,391.7082 423.431,381.1382" fill="none" id="Clients-to-WAN" style="stroke:#181818;stroke-width:1;stroke-dasharray:7,7;"/><polygon fill="#181818" points="419.9162,376.2755,421.9466,385.9128,422.8452,380.3278,428.4302,381.2264,419.9162,376.2755" style="stroke:#181818;stroke-width:1;"/><text fill="#000000" font-family="Arial" font-size="13" lengthAdjust="spacing" textLength="168.8032" x="440.1762" y="431.3124">1. Forced via WAN (SNAT)</text></g><!--link WAN to DMZ_IF--><g class="link" data-entity-1="ent0004" data-entity-2="ent0006" data-link-type="dependency" data-source-line="23" id="lnk13"><path d="M410.3262,368.9155 C366.9762,357.6455 99.0362,282.9155 168.4862,173.8955 C226.6162,82.6655 371.7084,62.9455 404.0484,59.5855" fill="none" id="WAN-to-DMZ_IF" style="stroke:#181818;stroke-width:1;stroke-dasharray:7,7;"/><polygon fill="#181818" points="410.0162,58.9655,400.6511,55.917,405.043,59.4822,401.4778,63.8742,410.0162,58.9655" style="stroke:#181818;stroke-width:1;"/><text fill="#000000" font-family="Arial" font-size="13" lengthAdjust="spacing" textLength="150.2871" x="137.1562" y="186.9624">2. DNAT to Web Server</text></g><?plantuml-src LP9VQy8m5CNVxwUuz4aVZBRTnCaOb4b1S4Mc8ep1YFOwWp6HDBg7iU--f7-mxLDwxlsTUq-8f8D5gz68xwF5N1ZQMw4L52UXBjpmCogTKq4N78zQek7gvCL9MypfmA_IfbhPZ9y94oEu1DXBVSqnc2jBHf4Da1VO_01uUmoMN6fCf5iaTIlyS2dBjcM2lu3kksXZCTWc6VR87aiq74RzJnK-HImSJrZ4udWOHoNbsbhGeWk5BIWSCUVoK4AB3ZHx-sX3SNjI2t9jN_CK_feOLImkyLKAKhReZ1erL5sicItjS4NcHgOxut5SXQ4TG7DT-3mOlFXyECLDjdxVhDO0Fc2frxwkLbMgxMh6JPdwVG6QDjOuXGnJRVQKuqtmKkkjicJT1tzqNRNF52E6CrVmx-M-zJy0?></g></svg>