<?plantuml 1.2026.1?><svg xmlns="http://www.w3.org/2000/svg" xmlns:xlink="http://www.w3.org/1999/xlink" contentStyleType="text/css" data-diagram-type="DESCRIPTION" height="451px" preserveAspectRatio="none" style="width:1570px;height:451px;" version="1.1" viewBox="0 0 1570 451" width="1570px" zoomAndPan="magnify"><defs/><g><!--cluster Palo Alto Firewall--><g class="cluster" data-qualified-name="Palo Alto Firewall" data-source-line="13" id="ent0003"><rect fill="none" height="170" rx="2.5" ry="2.5" style="stroke:#181818;stroke-width:1;" width="790.48" x="291.5993" y="7"/><path d="M440.1569,7 L440.1569,16.2969 L430.1569,26.2969 L291.5993,26.2969" fill="none" style="stroke:#181818;stroke-width:1;"/><text fill="#000000" font-family="Arial" font-size="14" font-weight="bold" lengthAdjust="spacing" textLength="138.5576" x="294.5993" y="20.9951">Palo Alto Firewall</text></g><!--cluster WAN--><g class="cluster" data-qualified-name="Palo Alto Firewall.WAN" data-source-line="14" id="ent0004"><rect fill="none" height="103" rx="2.5" ry="2.5" style="stroke:#181818;stroke-width:1;" width="168.04" x="315.5993" y="50"/><line style="stroke:#181818;stroke-width:1;" x1="315.5993" x2="483.6393" y1="70.2969" y2="70.2969"/><text fill="#000000" font-family="Arial" font-size="14" font-weight="bold" lengthAdjust="spacing" textLength="114.4678" x="342.3854" y="64.9951">WAN Interface</text></g><!--cluster LAN--><g class="cluster" data-qualified-name="Palo Alto Firewall.LAN" data-source-line="18" id="ent0006"><rect fill="none" height="103" rx="2.5" ry="2.5" style="stroke:#181818;stroke-width:1;" width="168.05" x="552.6393" y="50"/><line style="stroke:#181818;stroke-width:1;" x1="552.6393" x2="720.6893" y1="70.2969" y2="70.2969"/><text fill="#000000" font-family="Arial" font-size="14" font-weight="bold" lengthAdjust="spacing" textLength="107.9463" x="582.6912" y="64.9951">LAN Interface</text></g><!--cluster DMZ--><g class="cluster" data-qualified-name="Palo Alto Firewall.DMZ" data-source-line="22" id="ent0008"><rect fill="none" height="103" rx="2.5" ry="2.5" style="stroke:#181818;stroke-width:1;" width="168.05" x="890.0293" y="50"/><line style="stroke:#181818;stroke-width:1;" x1="890.0293" x2="1058.0793" y1="70.2969" y2="70.2969"/><text fill="#000000" font-family="Arial" font-size="14" font-weight="bold" lengthAdjust="spacing" textLength="112.1777" x="917.9654" y="64.9951">DMZ Interface</text></g><!--cluster Internal--><g class="cluster" data-qualified-name="Internal" data-source-line="30" id="ent0012"><path d="M885.6442,210.8006 C889.0231,203.8762 894.6997,201.917 899.7526,209.13 C904.0214,201.0027 909.3484,201.6424 914.5267,208.2158 C918.9176,200.7191 926.3057,200.4719 931.0286,207.8475 C935.8863,201.748 941.1189,201.2631 944.7817,209.0325 C948.6609,202.0872 953.7855,200.2002 959.1884,207.4905 C963.2435,199.3834 969.2869,198.8754 974.1266,206.7575 C979.3786,199.5633 987.0818,200.9756 990.4303,208.821 C994.6804,202.801 999.5176,202.3985 1004.4052,208.0582 C1010.427,201.2399 1015.2858,202.8196 1019.833,209.7169 C1025.0076,203.3944 1030.3448,201.4521 1035.4533,209.7873 C1039.3388,203.1733 1046.1469,203.7461 1050.1591,209.6381 C1058.2496,202.8263 1067.8492,205.2086 1070.4093,216 C1070.7307,215.6461 1071.0293,215.7844 1071.1731,216.1808 C1079.0806,221.3686 1080.004,228.5568 1072.1367,234.5712 C1080.4,238.9502 1080.6683,244.9738 1073.4769,250.6416 C1081.217,255.7664 1081.9382,261.4174 1074.8298,267.7186 C1081.4482,272.933 1081.5362,278.6825 1074.2838,283.4144 C1081.0559,289.0867 1080.8734,295.8991 1072.5406,299.9821 C1080.878,309.9138 1076.7144,321.0438 1063.4093,322 C1064.3259,321.547 1064.9354,322.0289 1064.8224,323.0126 C1060.1237,330.9809 1054.5336,329.964 1050.1592,322.7004 C1047.1901,331.6754 1038.9915,332.9044 1033.6434,325.0328 C1030.3154,332.1231 1024.544,331.928 1020.5911,325.6427 C1015.6392,332.0522 1010.1837,334.4183 1004.9505,325.9382 C1000.956,333.3076 994.1078,332.763 990.0839,325.9691 C984.7354,331.9449 979.2357,331.4867 974.8237,324.8373 C970.6276,332.2132 965.8652,332.8428 960.9639,325.5014 C954.7534,333.0539 949.2123,332.0538 944.4615,323.9616 C939.6335,330.0226 934.1251,331.065 929.3903,323.8558 C926.0076,329.4281 920.392,330.8429 916.8324,324.0352 C910.9778,330.1754 905.2541,331.2791 900.6355,322.6772 C890.4967,331.3313 880.24,329.026 877.6893,315 C877.9605,315.1019 877.9692,315.3289 877.7619,315.5003 C870.3493,311.3908 870.3254,306.0544 875.9895,300.4091 C866.8278,295.4726 867.5315,288.6348 875.0212,282.7836 C867.0387,279.7872 863.8734,271.9947 872.1187,266.1641 C865.5305,259.7644 865.4793,254.2674 873.4571,249.0039 C867.2447,243.1977 869.976,236.3784 877.4271,234.2485 C866.2894,223.8258 870.5663,212.157 884.6893,209 C885.9567,209.0056 886.2923,209.7791 885.6442,210.8006" fill="none" style="stroke:#181818;stroke-width:1;"/><text fill="#000000" font-family="Arial" font-size="14" font-style="italic" lengthAdjust="spacing" textLength="63.0957" x="942.5015" y="226.9951">&#171;TRUST&#187;</text><text fill="#000000" font-family="Arial" font-size="14" font-weight="bold" lengthAdjust="spacing" textLength="134.0254" x="907.0366" y="243.292">Internal Network</text></g><!--cluster DMZ_Network--><g class="cluster" data-qualified-name="DMZ_Network" data-source-line="34" id="ent0014"><path d="M1392.6761,38.5634 C1396.8709,33.2663 1401.1387,33.2273 1405.4268,38.4503 C1408.7829,31.3159 1413.2691,30.6475 1418.6366,36.3863 C1422.2077,31.1168 1427.4572,32.0146 1430.4778,37.0207 C1433.4625,31.0911 1439.5454,30.8089 1442.9084,36.6202 C1447.2161,29.9518 1451.3881,30.4332 1456.5406,35.6513 C1459.3737,30.3078 1465.5426,29.8223 1469.0192,34.8791 C1473.3167,29.5218 1478.5514,30.2918 1481.3389,36.4891 C1484.8179,30.436 1491.5406,29.6114 1495.782,35.5726 C1500.5949,30.2063 1505.5011,30.9623 1508.6232,37.4103 C1511.7716,31.2834 1517.9883,31.7378 1521.3101,37.2209 C1525.2047,32.1392 1529.7515,33.623 1532.3278,38.6568 C1541.0235,32.0401 1547.857,33.1295 1551.7393,44 C1553.1429,43.3256 1553.8525,43.8875 1553.9804,45.3425 C1559.0016,49.0445 1559.9591,54.5132 1553.5873,57.8573 C1560.2169,61.2364 1561.57,65.2208 1555.8038,70.7337 C1561.9686,74.0597 1561.7886,79.7818 1556.0714,83.3596 C1561.1163,85.7117 1562.12,90.7418 1557.2476,94.1726 C1563.6637,98.073 1563.8816,104.8534 1556.3317,107.8163 C1560.1538,111.5535 1560.1138,115.9225 1554.8299,118.3631 C1561.1032,122.0136 1559.6044,128.1224 1554.0897,131.0872 C1559.819,141.2324 1556.671,148.5864 1544.7393,150 C1545.2018,150.2571 1545.2905,150.8088 1544.7927,151.1121 C1541.8418,157.3373 1536.4006,157.3417 1532.6915,151.8984 C1528.858,158.5922 1522.8965,157.675 1519.5245,151.4288 C1516.7335,157.1272 1512.6386,157.8621 1508.4596,152.8646 C1504.4763,159.4452 1497.9601,159.9109 1493.7636,153.0986 C1489.6219,158.0869 1485.6178,158.2354 1482.4463,152.1105 C1478.6548,159.5417 1471.672,157.7053 1468.2864,151.6832 C1464.8307,158.2651 1460.7405,157.8585 1456.2612,152.7349 C1451.8858,159.0301 1447.246,159.9607 1442.866,152.7395 C1438.3852,158.4042 1434.3756,156.819 1430.8651,151.6633 C1427.154,157.3136 1422.0131,158.2554 1418.5265,151.4411 C1413.2603,158.2427 1408.921,157.6059 1404.5665,150.5244 C1394.996,157.0896 1386.5408,156.363 1384.4093,143 C1384.9947,142.005 1386.066,141.9493 1386.5608,143.0912 C1380.1286,139.2919 1380.7483,135.667 1386.1405,131.4411 C1378.9924,128.2209 1378.8787,123.7274 1384.4521,118.8072 C1378.8037,115.3109 1380.2896,110.4044 1385.1778,107.5897 C1378.2215,105.3149 1377.726,100.142 1382.7396,95.461 C1376.4382,91.2969 1377.0886,84.606 1384.3095,82.0215 C1378.981,78.4589 1379.183,73.5314 1385.1715,70.8413 C1378.0453,67.2345 1378.047,61.3865 1384.7206,57.3195 C1377.4665,47.6742 1380.3062,40.6026 1391.4093,37 C1392.487,36.9085 1393.1048,37.4343 1392.6761,38.5634" fill="none" style="stroke:#181818;stroke-width:1;"/><text fill="#000000" font-family="Arial" font-size="14" font-style="italic" lengthAdjust="spacing" textLength="49.5811" x="1443.2838" y="54.9951">&#171;DMZ&#187;</text><text fill="#000000" font-family="Arial" font-size="14" font-weight="bold" lengthAdjust="spacing" textLength="107.249" x="1414.4498" y="71.292">DMZ Network</text></g><!--entity WAN_IF--><g class="entity" data-qualified-name="Palo Alto Firewall.WAN.WAN_IF" data-source-line="15" id="ent0005"><rect fill="#F1F1F1" height="52.5938" rx="2.5" ry="2.5" style="stroke:#181818;stroke-width:0.5;" width="136.0469" x="331.5993" y="84.7"/><text fill="#000000" font-family="Arial" font-size="14" lengthAdjust="spacing" textLength="82.8516" x="341.5993" y="107.6951">ethernet1/2</text><text fill="#000000" font-family="Arial" font-size="14" lengthAdjust="spacing" textLength="116.0469" x="341.5993" y="123.992">192.168.2.33/32</text></g><!--entity LAN_IF--><g class="entity" data-qualified-name="Palo Alto Firewall.LAN.LAN_IF" data-source-line="19" id="ent0007"><rect fill="#F1F1F1" height="52.5938" rx="2.5" ry="2.5" style="stroke:#181818;stroke-width:0.5;" width="136.0469" x="568.6393" y="84.7"/><text fill="#000000" font-family="Arial" font-size="14" lengthAdjust="spacing" textLength="82.8516" x="578.6393" y="107.6951">ethernet1/1</text><text fill="#000000" font-family="Arial" font-size="14" lengthAdjust="spacing" textLength="116.0469" x="578.6393" y="123.992">192.168.10.1/24</text></g><!--entity DMZ_IF--><g class="entity" data-qualified-name="Palo Alto Firewall.DMZ.DMZ_IF" data-source-line="23" id="ent0009"><rect fill="#F1F1F1" height="52.5938" rx="2.5" ry="2.5" style="stroke:#181818;stroke-width:0.5;" width="136.0469" x="906.0293" y="84.7"/><text fill="#000000" font-family="Arial" font-size="14" lengthAdjust="spacing" textLength="82.8516" x="916.0293" y="107.6951">ethernet1/3</text><text fill="#000000" font-family="Arial" font-size="14" lengthAdjust="spacing" textLength="116.0469" x="916.0293" y="123.992">192.168.20.1/24</text></g><!--entity Clients--><g class="entity" data-qualified-name="Internal.Clients" data-source-line="31" id="ent0013"><polygon fill="#F1F1F1" points="885.6893,261.7,895.6893,251.7,1062.4149,251.7,1062.4149,304.2938,1052.4149,314.2938,885.6893,314.2938,885.6893,261.7" style="stroke:#181818;stroke-width:0.5;"/><line style="stroke:#181818;stroke-width:0.5;" x1="1052.4149" x2="1062.4149" y1="261.7" y2="251.7"/><line style="stroke:#181818;stroke-width:0.5;" x1="885.6893" x2="1052.4149" y1="261.7" y2="261.7"/><line style="stroke:#181818;stroke-width:0.5;" x1="1052.4149" x2="1052.4149" y1="261.7" y2="314.2938"/><text fill="#000000" font-family="Arial" font-size="14" lengthAdjust="spacing" textLength="136.7256" x="900.6893" y="284.6951">Client Workstations</text><text fill="#000000" font-family="Arial" font-size="14" lengthAdjust="spacing" textLength="116.0469" x="900.6893" y="300.992">192.168.10.0/24</text></g><!--entity WebServer--><g class="entity" data-qualified-name="DMZ_Network.WebServer" data-source-line="35" id="ent0015"><polygon fill="#F1F1F1" points="1392.4093,89.7,1402.4093,79.7,1543.7394,79.7,1543.7394,132.2938,1533.7394,142.2938,1392.4093,142.2938,1392.4093,89.7" style="stroke:#181818;stroke-width:0.5;"/><line style="stroke:#181818;stroke-width:0.5;" x1="1533.7394" x2="1543.7394" y1="89.7" y2="79.7"/><line style="stroke:#181818;stroke-width:0.5;" x1="1392.4093" x2="1533.7394" y1="89.7" y2="89.7"/><line style="stroke:#181818;stroke-width:0.5;" x1="1533.7394" x2="1533.7394" y1="89.7" y2="142.2938"/><text fill="#000000" font-family="Arial" font-size="14" lengthAdjust="spacing" textLength="81.7031" x="1407.4093" y="112.6951">Web Server</text><text fill="#000000" font-family="Arial" font-size="14" lengthAdjust="spacing" textLength="111.3301" x="1407.4093" y="128.992">192.168.20.156</text></g><!--entity Internet--><g class="entity" data-qualified-name="Internet" data-source-line="11" id="ent0002"><path d="M18.8703,88.9626 C22.2605,83.2377 25.9415,83.3213 29.4404,88.8606 C33.4701,81.3223 37.855,81.2242 42.9094,87.8889 C47.7814,81.402 51.8688,81.3466 56.3241,88.3047 C59.0836,82.7353 63.0397,81.659 67.6155,86.2952 C73.2783,80.0943 77.3049,82.2279 80.652,88.6809 C83.7952,84.167 88.8835,82.8851 91.7682,88.9523 C95.518,83.6088 100.3678,82.8896 104.3404,88.7012 C109.0714,82.4363 113.6087,82.8014 118.2488,88.8043 C124.0152,90.4734 125.0073,95.4131 121.3336,99.7441 C127.7392,101.7263 129.3727,106.1325 125.4947,111.6952 C129.6379,117.7592 128.6155,122.2263 121.3883,124.7001 C125.6604,129.2888 125.4226,133.7134 118.7289,135.6352 C115.6555,142.3254 109.1666,142.8409 104.7828,137.1061 C102.6118,143.0294 99.5517,145.104 93.8407,140.9499 C89.1619,148.4598 84.1844,148.7192 79.2077,141.2408 C77.6979,146.9387 72.853,147.7764 68.8479,143.9571 C63.2792,149.4059 58.9565,148.2956 55.3535,141.7462 C49.9077,148.1599 46.1965,146.089 42.3404,140.0808 C38.2727,145.8119 32.7975,144.1689 30.038,138.6501 C24.6576,142.8611 19.8295,142.1315 18.402,134.6995 C11.0708,132.9436 10.618,128.4323 14.45,122.9285 C8.1664,120.8504 6,116.9534 10.7294,111.3396 C6.6541,106.9254 7.9666,101.3696 14.4266,100.5732 C9.4463,95.3332 11.4323,89.4498 18.8703,88.9626" fill="#F1F1F1" style="stroke:#181818;stroke-width:0.5;"/><text fill="#000000" font-family="Arial" font-size="14" font-style="italic" lengthAdjust="spacing" textLength="83.8154" x="24.7793" y="107.6951">&#171;UNTRUST&#187;</text><text fill="#000000" font-family="Arial" font-size="14" lengthAdjust="spacing" textLength="55.8359" x="38.7691" y="123.992">Internet</text></g><!--link WAN_IF to LAN_IF--><!--link LAN_IF to DMZ_IF--><!--link Internet to WAN_IF--><g class="link" data-entity-1="ent0002" data-entity-2="ent0005" data-link-type="association" data-source-line="39" id="lnk16"><path d="M124.9493,111 C182.2993,111 270.5293,111 331.2193,111" fill="none" id="Internet-WAN_IF" style="stroke:#181818;stroke-width:1;"/><text fill="#000000" font-family="Arial" font-size="13" lengthAdjust="spacing" textLength="99.1504" x="175.5993" y="107.0669">UNTRUST Zone</text></g><!--link LAN_IF to Clients--><g class="link" data-entity-1="ent0007" data-entity-2="ent0013" data-link-type="association" data-source-line="40" id="lnk17"><path d="M689.6993,137.69 C749.4993,168.35 847.5493,218.64 911.1993,251.28" fill="none" id="LAN_IF-Clients" style="stroke:#181818;stroke-width:1;"/><text fill="#000000" font-family="Arial" font-size="13" lengthAdjust="spacing" textLength="79.9106" x="755.6893" y="167.0669">TRUST Zone</text></g><!--link DMZ_IF to WebServer--><g class="link" data-entity-1="ent0009" data-entity-2="ent0015" data-link-type="association" data-source-line="41" id="lnk18"><path d="M1042.4293,111 C1133.8893,111 1296.8193,111 1392.0693,111" fill="none" id="DMZ_IF-WebServer" style="stroke:#181818;stroke-width:1;"/><text fill="#000000" font-family="Arial" font-size="13" lengthAdjust="spacing" textLength="67.3613" x="1193.798" y="42.0669">DMZ Zone</text><path d="M1117.4093,51.1328 L1117.4093,106.1328 L1337.4093,106.1328 L1337.4093,61.1328 L1327.4093,51.1328 L1117.4093,51.1328" fill="#FEFFDD" style="stroke:#181818;stroke-width:0.5;"/><path d="M1327.4093,51.1328 L1327.4093,61.1328 L1337.4093,61.1328 L1327.4093,51.1328" fill="#FEFFDD" style="stroke:#181818;stroke-width:0.5;"/><text fill="#000000" font-family="Arial" font-size="13" font-weight="bold" lengthAdjust="spacing" textLength="130.7046" x="1123.4093" y="68.1997">2. Inbound Traffic</text><text fill="#000000" font-family="Arial" font-size="13" lengthAdjust="spacing" textLength="199.1387" x="1123.4093" y="83.3325">Destination: 192.168.2.33:443</text><text fill="#000000" font-family="Arial" font-size="13" lengthAdjust="spacing" textLength="177.6519" x="1123.4093" y="98.4653">DNAT: 192.168.20.156:443</text></g><g class="legend" data-source-line="56"><rect fill="none" height="79.1875" rx="7.5" ry="7.5" style="stroke:#000000;stroke-width:1;" width="157.8271" x="699.5272" y="352.4183"/><text fill="#000000" font-family="Arial" font-size="14" font-weight="bold" lengthAdjust="spacing" textLength="117.8037" x="704.5272" y="370.4134">Security Zones</text><text fill="#000000" font-family="Arial" font-size="14" lengthAdjust="spacing" textLength="66.6846" x="708.9774" y="388.7103">UNTRUST</text><text fill="#000000" font-family="Arial" font-size="14" lengthAdjust="spacing" textLength="4.4502" x="780.1122" y="388.7103">&#160;</text><text fill="#FFE6E6" font-family="Arial" font-size="14" lengthAdjust="spacing" textLength="63.3418" x="784.5624" y="388.7103">#FFE6E6</text><text fill="#000000" font-family="Arial" font-size="14" lengthAdjust="spacing" textLength="4.4502" x="847.9042" y="388.7103">&#160;</text><text fill="#000000" font-family="Arial" font-size="14" lengthAdjust="spacing" textLength="45.9648" x="708.9774" y="405.0071">TRUST</text><text fill="#000000" font-family="Arial" font-size="14" lengthAdjust="spacing" textLength="4.4502" x="780.1122" y="405.0071">&#160;</text><text fill="#E6FFE6" font-family="Arial" font-size="14" lengthAdjust="spacing" textLength="63.3418" x="784.5624" y="405.0071">#E6FFE6</text><text fill="#000000" font-family="Arial" font-size="14" lengthAdjust="spacing" textLength="4.4502" x="847.9042" y="405.0071">&#160;</text><text fill="#000000" font-family="Arial" font-size="14" lengthAdjust="spacing" textLength="32.4502" x="708.9774" y="421.304">DMZ</text><text fill="#000000" font-family="Arial" font-size="14" lengthAdjust="spacing" textLength="4.4502" x="780.1122" y="421.304">&#160;</text><text fill="#E6F3FF" font-family="Arial" font-size="14" lengthAdjust="spacing" textLength="62.5488" x="784.5624" y="421.304">#E6F3FF</text><text fill="#000000" font-family="Arial" font-size="14" lengthAdjust="spacing" textLength="4.4502" x="847.1112" y="421.304">&#160;</text><line style="stroke:#000000;stroke-width:1;" x1="704.5272" x2="852.3544" y1="375.7152" y2="375.7152"/><line style="stroke:#000000;stroke-width:1;" x1="704.5272" x2="852.3544" y1="392.012" y2="392.012"/><line style="stroke:#000000;stroke-width:1;" x1="704.5272" x2="852.3544" y1="408.3089" y2="408.3089"/><line style="stroke:#000000;stroke-width:1;" x1="704.5272" x2="852.3544" y1="424.6058" y2="424.6058"/><line style="stroke:#000000;stroke-width:1;" x1="704.5272" x2="704.5272" y1="375.7152" y2="424.6058"/><line style="stroke:#000000;stroke-width:1;" x1="780.1122" x2="780.1122" y1="375.7152" y2="424.6058"/><line style="stroke:#000000;stroke-width:1;" x1="852.3544" x2="852.3544" y1="375.7152" y2="424.6058"/></g><?plantuml-src XPHRRzem5CVV_IdEsCEs1ou1XZeKHKAKI9KOJ8KAgTjKESa18enTEQPi6ltkivtB761g7fBut7x7VryOhXKe0JBTR1KagSHOfOAJR9VoPohf7hX8CCDdkEauHadvpXYzZcjDS4qFJ8M2gndT8unaIfdZZsYysqXnuCbOC251wJAPTY5NXBpJsIb7U9WjxnyMowVnV3g_X_TXE1bC1fMtvfiCZBVotNvzT3ozC2GaPkAGGEEEAvGSLGDe1kK0VBzW1G4XQsawRdoZJC28QKL2hSMHCjQ0FmJq4rEfAwr6ixp0ciPeonbB7c4Uen_b6wPBeTfQZjVk_k3UbsxB6zoqkgrUhzthbfbFTw5DVRLlXpEzu4pVvdZ_E5wdfRdzClE_7AtP6STOtk3qdFau7AF_9IUV9JI_RzCaGVup4KVUT7kQNWqeYhsUhI5bC4Dr57BdhAKs-dwnaaNlPjT2OynIlRTWfSCpHSt6pceITShMyy3CmHaPN9BffnXhc1wTeLOOmGBb2ygwE9y7-LfZb7iDuWEC1UVvISj8jH-RpLAiONaAu55m9AL2pR9F7U2uSwbiUadH0MO2rgrn8HD7e9oBGWIY_n041vRodPs47mLU2-O75PdZ2Kj9r-iqzjjHODqBSP0n3Yl-HqV4Nv_oaDbeEGHtdnFaYG6HgxXkIw_UTTejPYhbjjLwnM6_tyiZwZ2hitLMI8OR_G-HK4hiI-O2uuDCrMyhJ5RnJfNS9_1ZSpKDYtidABv-sve3E1K9v-7vLHGKtujminYrO7qx1SNN2TOTvtsJlm00?></g></svg>