<?plantuml 1.2026.1?><svg xmlns="http://www.w3.org/2000/svg" xmlns:xlink="http://www.w3.org/1999/xlink" contentStyleType="text/css" data-diagram-type="DESCRIPTION" height="575px" preserveAspectRatio="none" style="width:1182px;height:575px;background:#FFFFFF;" version="1.1" viewBox="0 0 1182 575" width="1182px" zoomAndPan="magnify">
  <rect width="100%" height="100%" fill="#ffffff" /><defs/><g><!--cluster Windows Infra--><g class="cluster" data-qualified-name="Windows Infra" data-source-line="12" id="ent0005"><path d="M8.5,189.59 L133.1064,189.59 A3.75,3.75 0 0 1 135.6064,192.09 L142.6064,221.8869 L207.5,221.8869 A2.5,2.5 0 0 1 210,224.3869 L210,425.68 A2.5,2.5 0 0 1 207.5,428.18 L8.5,428.18 A2.5,2.5 0 0 1 6,425.68 L6,192.09 A2.5,2.5 0 0 1 8.5,189.59" fill="none" style="stroke:#000000;stroke-width:1.5;"/><line style="stroke:#000000;stroke-width:1.5;" x1="6" x2="142.6064" y1="221.8869" y2="221.8869"/><text fill="#000000" font-family="Arial" font-size="14" font-weight="bold" lengthAdjust="spacing" textLength="113.6064" x="15" y="209.5851">Windows Infra</text></g><!--cluster High Availability Stack--><g class="cluster" data-qualified-name="High Availability Stack" data-source-line="18" id="ent0009"><path d="M236.5,184.59 L426.2734,184.59 A3.75,3.75 0 0 1 428.7734,187.09 L435.7734,216.8869 L647.5,216.8869 A2.5,2.5 0 0 1 650,219.3869 L650,425.68 A2.5,2.5 0 0 1 647.5,428.18 L236.5,428.18 A2.5,2.5 0 0 1 234,425.68 L234,187.09 A2.5,2.5 0 0 1 236.5,184.59" fill="none" style="stroke:#000000;stroke-width:1.5;"/><line style="stroke:#000000;stroke-width:1.5;" x1="234" x2="435.7734" y1="216.8869" y2="216.8869"/><text fill="#000000" font-family="Arial" font-size="14" font-weight="bold" lengthAdjust="spacing" textLength="178.7734" x="243" y="204.5851">High Availability Stack</text></g><!--cluster Galera Cluster--><g class="cluster" data-qualified-name="Galera Cluster" data-source-line="26" id="ent0015"><path d="M340.5,452.18 L464.4229,452.18 A3.75,3.75 0 0 1 466.9229,454.68 L473.9229,484.4769 L755.5,484.4769 A2.5,2.5 0 0 1 758,486.9769 L758,565.98 A2.5,2.5 0 0 1 755.5,568.48 L340.5,568.48 A2.5,2.5 0 0 1 338,565.98 L338,454.68 A2.5,2.5 0 0 1 340.5,452.18" fill="none" style="stroke:#000000;stroke-width:1.5;"/><line style="stroke:#000000;stroke-width:1.5;" x1="338" x2="473.9229" y1="484.4769" y2="484.4769"/><text fill="#000000" font-family="Arial" font-size="14" font-weight="bold" lengthAdjust="spacing" textLength="112.9229" x="347" y="472.1751">Galera Cluster</text></g><!--cluster GLPI Stack--><g class="cluster" data-qualified-name="GLPI Stack" data-source-line="42" id="ent0027"><path d="M676.5,320.89 L772.0879,320.89 A3.75,3.75 0 0 1 774.5879,323.39 L781.5879,353.1869 L845.5,353.1869 A2.5,2.5 0 0 1 848,355.6869 L848,425.68 A2.5,2.5 0 0 1 845.5,428.18 L676.5,428.18 A2.5,2.5 0 0 1 674,425.68 L674,323.39 A2.5,2.5 0 0 1 676.5,320.89" fill="none" style="stroke:#000000;stroke-width:1.5;"/><line style="stroke:#000000;stroke-width:1.5;" x1="674" x2="781.5879" y1="353.1869" y2="353.1869"/><text fill="#000000" font-family="Arial" font-size="14" font-weight="bold" lengthAdjust="spacing" textLength="84.5879" x="683" y="340.8851">GLPI Stack</text></g><!--cluster Other Services--><g class="cluster" data-qualified-name="Other Services" data-source-line="50" id="ent0032"><path d="M734.5,189.59 L861.8682,189.59 A3.75,3.75 0 0 1 864.3682,192.09 L871.3682,221.8869 L1172.5,221.8869 A2.5,2.5 0 0 1 1175,224.3869 L1175,294.39 A2.5,2.5 0 0 1 1172.5,296.89 L734.5,296.89 A2.5,2.5 0 0 1 732,294.39 L732,192.09 A2.5,2.5 0 0 1 734.5,189.59" fill="none" style="stroke:#000000;stroke-width:1.5;"/><line style="stroke:#000000;stroke-width:1.5;" x1="732" x2="871.3682" y1="221.8869" y2="221.8869"/><text fill="#000000" font-family="Arial" font-size="14" font-weight="bold" lengthAdjust="spacing" textLength="116.3682" x="741" y="209.5851">Other Services</text></g><!--entity AD--><g class="entity" data-qualified-name="Windows Infra.AD" data-source-line="13" id="ent0006"><rect fill="#F1F1F1" height="46.2969" rx="2.5" ry="2.5" style="stroke:#181818;stroke-width:0.5;" width="171.9756" x="22.01" y="234.59"/><text fill="#000000" font-family="Arial" font-size="14" lengthAdjust="spacing" textLength="141.9756" x="37.01" y="262.5851">AD-DS / DNS / DHCP</text></g><!--entity Samba--><g class="entity" data-qualified-name="Windows Infra.Samba" data-source-line="14" id="ent0007"><rect fill="#F1F1F1" height="46.2969" rx="2.5" ry="2.5" style="stroke:#181818;stroke-width:0.5;" width="152.623" x="31.69" y="365.89"/><text fill="#000000" font-family="Arial" font-size="14" lengthAdjust="spacing" textLength="122.623" x="46.69" y="393.8851">Samba File Share</text></g><!--entity VIP--><g class="entity" data-qualified-name="High Availability Stack.VIP" data-source-line="19" id="ent0010"><path d="M485.3354,239.4447 C489.5597,232.6642 493.6447,232.6918 498.8047,238.4386 C501.5527,232.1672 505.9399,230.8948 510.5633,236.5969 C514.1065,230.6451 517.8616,229.122 523.2423,234.5495 C526.8845,228.9517 533.8657,227.7595 537.3374,234.7406 C540.8769,227.3487 545.2586,228.2265 550.1701,233.3318 C554.6445,229.1108 559.0166,229.516 561.9208,235.1955 C566.4215,228.8019 571.1225,230.0456 575.1523,235.7121 C579.608,228.8937 583.8901,229.575 588.3444,235.7134 C592.7272,231.4069 597.4265,232.4333 599.7967,238.0388 C603.4991,233.051 609.7148,232.2373 612.3586,239.1557 C622.039,242.7108 626.9018,248.6452 618.4799,258.0615 C625.727,267.674 624.8695,274.3862 612.5496,278.2514 C610.1742,284.7644 604.9554,285.7431 600.5056,280.3498 C597.0981,286.9187 591.6254,286.5469 587.3834,281.2746 C584.7909,289.6109 580.3662,290.0829 574.1132,284.856 C570.6346,291.4957 565.991,290.8293 561.4643,286.0132 C557.6115,291.4606 553.1041,291.4672 548.8095,286.5528 C543.8054,291.6578 539.6662,292.1344 535.9858,285.1489 C532.5449,290.0016 526.8533,290.4677 523.9825,284.5155 C519.391,290.5085 513.9322,288.8517 511.2675,282.5266 C505.9119,289.4129 500.17,286.9195 496.8307,280.3616 C492.4415,285.4438 487.6235,286.7373 484.0717,279.4948 C477.9418,276.8892 476.3739,273.174 481.4115,267.9869 C475.229,268.1649 472.5006,263.4351 475.6812,258.1556 C473.0079,253.4711 475.2613,249.9832 480.336,249.4341 C477.5378,243.8103 478.6802,240.3375 485.3354,239.4447" fill="#F1F1F1" style="stroke:#181818;stroke-width:0.5;"/><text fill="#000000" font-family="Arial" font-size="14" lengthAdjust="spacing" textLength="104.0361" x="495.98" y="262.5851">Keepalived VIP</text></g><!--entity Z1--><g class="entity" data-qualified-name="High Availability Stack.Z1" data-source-line="20" id="ent0011"><rect fill="#F1F1F1" height="46.2969" rx="2.5" ry="2.5" style="stroke:#181818;stroke-width:0.5;" width="171.5449" x="250.23" y="365.89"/><text fill="#000000" font-family="Arial" font-size="14" lengthAdjust="spacing" textLength="141.5449" x="265.23" y="393.8851">Zabbix 1 + HAProxy</text></g><!--entity Z2--><g class="entity" data-qualified-name="High Availability Stack.Z2" data-source-line="21" id="ent0012"><rect fill="#F1F1F1" height="46.2969" rx="2.5" ry="2.5" style="stroke:#181818;stroke-width:0.5;" width="171.5449" x="462.23" y="365.89"/><text fill="#000000" font-family="Arial" font-size="14" lengthAdjust="spacing" textLength="141.5449" x="477.23" y="393.8851">Zabbix 2 + HAProxy</text></g><!--entity M1--><g class="entity" data-qualified-name="Galera Cluster.M1" data-source-line="27" id="ent0016"><path d="M639.69,507.18 C639.69,497.18 691.0025,497.18 691.0025,497.18 C691.0025,497.18 742.315,497.18 742.315,507.18 L742.315,542.4769 C742.315,552.4769 691.0025,552.4769 691.0025,552.4769 C691.0025,552.4769 639.69,552.4769 639.69,542.4769 L639.69,507.18" fill="#F1F1F1" style="stroke:#181818;stroke-width:0.5;"/><path d="M639.69,507.18 C639.69,517.18 691.0025,517.18 691.0025,517.18 C691.0025,517.18 742.315,517.18 742.315,507.18" fill="none" style="stroke:#181818;stroke-width:0.5;"/><text fill="#000000" font-family="Arial" font-size="14" lengthAdjust="spacing" textLength="72.625" x="654.69" y="539.1751">MariaDB 1</text></g><!--entity M2--><g class="entity" data-qualified-name="Galera Cluster.M2" data-source-line="28" id="ent0017"><path d="M353.69,507.18 C353.69,497.18 405.0025,497.18 405.0025,497.18 C405.0025,497.18 456.315,497.18 456.315,507.18 L456.315,542.4769 C456.315,552.4769 405.0025,552.4769 405.0025,552.4769 C405.0025,552.4769 353.69,552.4769 353.69,542.4769 L353.69,507.18" fill="#F1F1F1" style="stroke:#181818;stroke-width:0.5;"/><path d="M353.69,507.18 C353.69,517.18 405.0025,517.18 405.0025,517.18 C405.0025,517.18 456.315,517.18 456.315,507.18" fill="none" style="stroke:#181818;stroke-width:0.5;"/><text fill="#000000" font-family="Arial" font-size="14" lengthAdjust="spacing" textLength="72.625" x="368.69" y="539.1751">MariaDB 2</text></g><!--entity M3--><g class="entity" data-qualified-name="Galera Cluster.M3" data-source-line="29" id="ent0018"><path d="M496.69,507.18 C496.69,497.18 548.0025,497.18 548.0025,497.18 C548.0025,497.18 599.315,497.18 599.315,507.18 L599.315,542.4769 C599.315,552.4769 548.0025,552.4769 548.0025,552.4769 C548.0025,552.4769 496.69,552.4769 496.69,542.4769 L496.69,507.18" fill="#F1F1F1" style="stroke:#181818;stroke-width:0.5;"/><path d="M496.69,507.18 C496.69,517.18 548.0025,517.18 548.0025,517.18 C548.0025,517.18 599.315,517.18 599.315,507.18" fill="none" style="stroke:#181818;stroke-width:0.5;"/><text fill="#000000" font-family="Arial" font-size="14" lengthAdjust="spacing" textLength="72.625" x="511.69" y="539.1751">MariaDB 3</text></g><!--entity GLPI--><g class="entity" data-qualified-name="GLPI Stack.GLPI" data-source-line="43" id="ent0028"><rect fill="#F1F1F1" height="46.2969" rx="2.5" ry="2.5" style="stroke:#181818;stroke-width:0.5;" width="141.2891" x="690.36" y="365.89"/><text fill="#000000" font-family="Arial" font-size="14" lengthAdjust="spacing" textLength="111.2891" x="705.36" y="393.8851">GLPI + HAProxy</text></g><!--entity Zimbra--><g class="entity" data-qualified-name="Other Services.Zimbra" data-source-line="51" id="ent0033"><rect fill="#F1F1F1" height="46.2969" rx="2.5" ry="2.5" style="stroke:#181818;stroke-width:0.5;" width="123.6318" x="1035.18" y="234.59"/><text fill="#000000" font-family="Arial" font-size="14" lengthAdjust="spacing" textLength="93.6318" x="1050.18" y="262.5851">Zimbra Email</text></g><!--entity Grafana--><g class="entity" data-qualified-name="Other Services.Grafana" data-source-line="52" id="ent0034"><rect fill="#F1F1F1" height="46.2969" rx="2.5" ry="2.5" style="stroke:#181818;stroke-width:0.5;" width="86.1436" x="908.93" y="234.59"/><text fill="#000000" font-family="Arial" font-size="14" lengthAdjust="spacing" textLength="56.1436" x="923.93" y="262.5851">Grafana</text></g><!--entity Scripts--><g class="entity" data-qualified-name="Other Services.Scripts" data-source-line="53" id="ent0035"><rect fill="#F1F1F1" height="46.2969" rx="2.5" ry="2.5" style="stroke:#181818;stroke-width:0.5;" width="120.9658" x="747.52" y="234.59"/><text fill="#000000" font-family="Arial" font-size="14" lengthAdjust="spacing" textLength="90.9658" x="762.52" y="262.5851">Script Server</text></g><!--entity Router--><g class="entity" data-qualified-name="Router" data-source-line="7" id="ent0002"><polygon fill="#F1F1F1" points="657.61,16,667.61,6,836.3854,6,836.3854,52.2969,826.3854,62.2969,657.61,62.2969,657.61,16" style="stroke:#181818;stroke-width:0.5;"/><line style="stroke:#181818;stroke-width:0.5;" x1="826.3854" x2="836.3854" y1="16" y2="6"/><line style="stroke:#181818;stroke-width:0.5;" x1="657.61" x2="826.3854" y1="16" y2="16"/><line style="stroke:#181818;stroke-width:0.5;" x1="826.3854" x2="826.3854" y1="16" y2="62.2969"/><text fill="#000000" font-family="Arial" font-size="14" lengthAdjust="spacing" textLength="128.7754" x="677.61" y="43.9951">Cisco 2911 Router</text></g><!--entity Switch--><g class="entity" data-qualified-name="Switch" data-source-line="8" id="ent0003"><polygon fill="#F1F1F1" points="657.98,122.29,667.98,112.29,836.0171,112.29,836.0171,158.5869,826.0171,168.5869,657.98,168.5869,657.98,122.29" style="stroke:#181818;stroke-width:0.5;"/><line style="stroke:#181818;stroke-width:0.5;" x1="826.0171" x2="836.0171" y1="122.29" y2="112.29"/><line style="stroke:#181818;stroke-width:0.5;" x1="657.98" x2="826.0171" y1="122.29" y2="122.29"/><line style="stroke:#181818;stroke-width:0.5;" x1="826.0171" x2="826.0171" y1="122.29" y2="168.5869"/><text fill="#000000" font-family="Arial" font-size="14" lengthAdjust="spacing" textLength="128.0371" x="677.98" y="150.2851">Cisco 2960 Switch</text></g><!--link Router to Switch--><g class="link" data-entity-1="ent0002" data-entity-2="ent0003" data-link-type="dependency" data-source-line="10" id="lnk4"><path d="M747,62.55 C747,77.76 747,90.62 747,105.86" fill="none" id="Router-to-Switch" style="stroke:#181818;stroke-width:1;"/><polygon fill="#181818" points="747,111.86,751,102.86,747,106.86,743,102.86,747,111.86" style="stroke:#181818;stroke-width:1;"/></g><!--link AD to Samba--><g class="link" data-entity-1="ent0006" data-entity-2="ent0007" data-link-type="dependency" data-source-line="15" id="lnk8"><path d="M108,281.26 C108,304.99 108,336.14 108,359.77" fill="none" id="AD-to-Samba" style="stroke:#181818;stroke-width:1;stroke-dasharray:7,7;"/><polygon fill="#181818" points="108,365.77,112,356.77,108,360.77,104,356.77,108,365.77" style="stroke:#181818;stroke-width:1;"/></g><!--link VIP to Z1--><g class="link" data-entity-1="ent0010" data-entity-2="ent0011" data-link-type="dependency" data-source-line="22" id="lnk13"><path d="M490.24,286.34 C474.35,294.44 457.29,303.63 442,312.89 C415.18,329.13 391.0364,346.2985 370.1864,361.8785" fill="none" id="VIP-to-Z1" style="stroke:#181818;stroke-width:1;"/><polygon fill="#181818" points="365.38,365.47,374.9839,363.287,369.3853,362.4771,370.1952,356.8785,365.38,365.47" style="stroke:#181818;stroke-width:1;"/></g><!--link VIP to Z2--><g class="link" data-entity-1="ent0010" data-entity-2="ent0012" data-link-type="dependency" data-source-line="23" id="lnk14"><path d="M548,286.16 C548,309.73 548,337.32 548,359.39" fill="none" id="VIP-to-Z2" style="stroke:#181818;stroke-width:1;"/><polygon fill="#181818" points="548,365.39,552,356.39,548,360.39,544,356.39,548,365.39" style="stroke:#181818;stroke-width:1;"/></g><!--link M1 to M2--><!--link M2 to M3--><!--link Z1 to M1--><g class="link" data-entity-1="ent0011" data-entity-2="ent0016" data-link-type="dependency" data-source-line="34" id="lnk21"><path d="M378.1,412.59 C397.08,421.64 420.1,431.1 442,436.18 C480.36,445.08 583.38,427.4 619,444.18 C642.77,455.39 658.8028,473.4644 671.4628,491.8944" fill="none" id="Z1-to-M1" style="stroke:#181818;stroke-width:1;"/><polygon fill="#181818" points="674.86,496.84,673.0612,487.1568,672.029,492.7187,666.4671,491.6865,674.86,496.84" style="stroke:#181818;stroke-width:1;"/></g><!--link Z1 to M2--><g class="link" data-entity-1="ent0011" data-entity-2="ent0017" data-link-type="dependency" data-source-line="35" id="lnk22"><path d="M347.55,412.43 C359.52,435.64 375.479,466.5978 388.279,491.4078" fill="none" id="Z1-to-M2" style="stroke:#181818;stroke-width:1;"/><polygon fill="#181818" points="391.03,496.74,390.4583,486.9077,388.7375,492.2965,383.3487,490.5757,391.03,496.74" style="stroke:#181818;stroke-width:1;"/></g><!--link Z1 to M3--><g class="link" data-entity-1="ent0011" data-entity-2="ent0018" data-link-type="dependency" data-source-line="36" id="lnk23"><path d="M383.04,412.68 C401.19,420.83 422.29,429.63 442,436.18 C456.73,441.08 462.63,436.29 476,444.18 C498.15,457.26 513.7783,474.5615 526.7683,492.1715" fill="none" id="Z1-to-M3" style="stroke:#181818;stroke-width:1;"/><polygon fill="#181818" points="530.33,497,528.2064,487.3828,527.3619,492.9763,521.7684,492.1318,530.33,497" style="stroke:#181818;stroke-width:1;"/></g><!--link Z2 to M1--><g class="link" data-entity-1="ent0012" data-entity-2="ent0016" data-link-type="dependency" data-source-line="38" id="lnk24"><path d="M580.11,412.56 C592.65,421.86 606.91,433.06 619,444.18 C636.83,460.59 651.2195,476.3108 664.8995,492.3008" fill="none" id="Z2-to-M1" style="stroke:#181818;stroke-width:1;"/><polygon fill="#181818" points="668.8,496.86,665.9887,487.4209,665.5496,493.0607,659.9098,492.6216,668.8,496.86" style="stroke:#181818;stroke-width:1;"/></g><!--link Z2 to M2--><g class="link" data-entity-1="ent0012" data-entity-2="ent0017" data-link-type="dependency" data-source-line="39" id="lnk25"><path d="M515.89,412.56 C503.35,421.86 489.09,433.06 477,444.18 C459.17,460.59 444.7805,476.3108 431.1005,492.3008" fill="none" id="Z2-to-M2" style="stroke:#181818;stroke-width:1;"/><polygon fill="#181818" points="427.2,496.86,436.0902,492.6216,430.4504,493.0607,430.0113,487.4209,427.2,496.86" style="stroke:#181818;stroke-width:1;"/></g><!--link Z2 to M3--><g class="link" data-entity-1="ent0012" data-entity-2="ent0018" data-link-type="dependency" data-source-line="40" id="lnk26"><path d="M548,412.43 C548,435.64 548,465.93 548,490.74" fill="none" id="Z2-to-M3" style="stroke:#181818;stroke-width:1;"/><polygon fill="#181818" points="548,496.74,552,487.74,548,491.74,544,487.74,548,496.74" style="stroke:#181818;stroke-width:1;"/></g><!--link GLPI to M1--><g class="link" data-entity-1="ent0028" data-entity-2="ent0016" data-link-type="dependency" data-source-line="46" id="lnk29"><path d="M749.28,412.43 C737.14,435.64 720.9314,466.6136 707.9514,491.4236" fill="none" id="GLPI-to-M1" style="stroke:#181818;stroke-width:1;"/><polygon fill="#181818" points="705.17,496.74,712.8863,490.6197,707.4878,492.3097,705.7979,486.9112,705.17,496.74" style="stroke:#181818;stroke-width:1;"/></g><!--link GLPI to M2--><g class="link" data-entity-1="ent0028" data-entity-2="ent0017" data-link-type="dependency" data-source-line="47" id="lnk30"><path d="M717.64,412.58 C698.11,421.62 674.45,431.09 652,436.18 C614.04,444.8 512.21,427.58 477,444.18 C453.23,455.4 437.1985,473.4753 424.5385,491.8953" fill="none" id="GLPI-to-M2" style="stroke:#181818;stroke-width:1;"/><polygon fill="#181818" points="421.14,496.84,429.5342,491.6886,423.9721,492.7194,422.9413,487.1573,421.14,496.84" style="stroke:#181818;stroke-width:1;"/></g><!--link GLPI to M3--><g class="link" data-entity-1="ent0028" data-entity-2="ent0018" data-link-type="dependency" data-source-line="48" id="lnk31"><path d="M712.25,412.59 C693.64,420.69 672.07,429.47 652,436.18 C638.1,440.83 632.57,436.64 620,444.18 C598.1,457.32 582.5984,474.3939 569.5884,491.9039" fill="none" id="GLPI-to-M3" style="stroke:#181818;stroke-width:1;"/><polygon fill="#181818" points="566.01,496.72,574.5883,491.8814,568.992,492.7066,568.1668,487.1102,566.01,496.72" style="stroke:#181818;stroke-width:1;"/></g><!--link Switch to VIP--><g class="link" data-entity-1="ent0003" data-entity-2="ent0010" data-link-type="dependency" data-source-line="56" id="lnk36"><path d="M670.81,169.07 C665.73,171.46 660.75,173.97 656,176.59 C628.8,191.57 605.3729,208.8442 584.6629,225.6142" fill="none" id="Switch-to-VIP" style="stroke:#181818;stroke-width:1;"/><polygon fill="#181818" points="580,229.39,589.5116,226.8349,583.8858,226.2435,584.4772,220.6176,580,229.39" style="stroke:#181818;stroke-width:1;"/></g><!--link Switch to GLPI--><g class="link" data-entity-1="ent0003" data-entity-2="ent0028" data-link-type="dependency" data-source-line="57" id="lnk37"><path d="M732.26,169.03 C731.35,171.54 730.58,174.08 730,176.59 C717.26,232.17 719.88,248.77 730,304.89 C733.86,326.26 740.4232,343.8416 747.7432,360.2316" fill="none" id="Switch-to-GLPI" style="stroke:#181818;stroke-width:1;"/><polygon fill="#181818" points="750.19,365.71,750.1722,355.8612,748.151,361.1446,742.8676,359.1235,750.19,365.71" style="stroke:#181818;stroke-width:1;"/></g><!--link Switch to Zimbra--><g class="link" data-entity-1="ent0003" data-entity-2="ent0033" data-link-type="dependency" data-source-line="58" id="lnk38"><path d="M836.19,147.07 C901.63,152.33 984.24,161.65 1015,176.59 C1042.22,189.81 1062.296,210.8855 1077.146,229.6455" fill="none" id="Switch-to-Zimbra" style="stroke:#181818;stroke-width:1;"/><polygon fill="#181818" points="1080.87,234.35,1078.4204,224.8106,1077.7667,230.4296,1072.1477,229.7759,1080.87,234.35" style="stroke:#181818;stroke-width:1;"/></g><!--link Switch to AD--><g class="link" data-entity-1="ent0003" data-entity-2="ent0006" data-link-type="dependency" data-source-line="59" id="lnk39"><path d="M657.49,142.17 C531.43,144.12 308.43,151.18 232,176.59 C194.78,188.96 162.4381,211.413 138.6681,230.503" fill="none" id="Switch-to-AD" style="stroke:#181818;stroke-width:1;"/><polygon fill="#181818" points="133.99,234.26,143.5118,231.7432,137.8884,231.1291,138.5025,225.5057,133.99,234.26" style="stroke:#181818;stroke-width:1;"/></g><!--link Switch to Grafana--><g class="link" data-entity-1="ent0003" data-entity-2="ent0034" data-link-type="dependency" data-source-line="60" id="lnk40"><path d="M836.38,154.39 C854.38,159.51 872.5,166.64 888,176.59 C910.48,191.02 925.4652,210.928 936.6052,229.188" fill="none" id="Switch-to-Grafana" style="stroke:#181818;stroke-width:1;"/><polygon fill="#181818" points="939.73,234.31,938.4574,224.5437,937.126,230.0416,931.628,228.7102,939.73,234.31" style="stroke:#181818;stroke-width:1;"/></g><!--link Switch to Scripts--><g class="link" data-entity-1="ent0003" data-entity-2="ent0035" data-link-type="dependency" data-source-line="61" id="lnk41"><path d="M761.61,169.06 C772.19,189.04 783.4824,210.4074 793.3624,229.0674" fill="none" id="Switch-to-Scripts" style="stroke:#181818;stroke-width:1;"/><polygon fill="#181818" points="796.17,234.37,795.4937,224.5444,793.8303,229.9512,788.4236,228.2878,796.17,234.37" style="stroke:#181818;stroke-width:1;"/></g><?plantuml-src TLF1ZjiW5BpxAvvyhRnTaswbNbPousuJjTb6jTHAgNfuDYH6mTW2ajsewhyNWzTXdIO7vp4pCCC3z9xB3XKs85lADElWtMsaHr2XtFVWNGXMRTEraabJc9DWe5XbKEu42oIKRV4Wp4ChpICs33B5KGHyXvHokOExAEfz8PvpNRL0FgGfV6yFXgaOK0_bHFB-5eedRghQINmPHLuAIN8_GXrMUzpPcJ-vfEsJXgNSAepXJmJsD-u2uYnFyWBUGlxelelvsYsTvLDXWKs9yC3jheiQ5VC9Uj0finnkh96ykH_0lq681T_La1sH2oovuEO4XR7S64Uq1mhn5yOw5Fp8AFnO-XZsVvfZWsN9do65Dx38rgfzFZdb9hqY95CXSKAxiclOC6ySabV1FwDW2c4k3jgTYyzBqM29sl8hj8URVuJKBRrAhz34q-GAFVFqpD6h599VDQUKoT_AziqaBnDNv9APzN4tgSjkxLygCbOpIvEH9YDDHlgysQ_hvUHWpjrqvEjEzb1lxwZ1uLoJe0vTlfdQtjM2gIElcFwFquOtfUtvfyPU5tzY3hW8f72B4dqINrzSsKhnpZYluL5vHFUf_Kjn-VfR5WpTleBnu1yWzdM4-i4zW0QVVm00?></g></svg>