<svg width="1000" height="800" xmlns="http://www.w3.org/2000/svg">
  <rect width="100%" height="100%" fill="#ffffff" />
  <rect x="50" y="50" width="400" height="600" rx="10" fill="#f8fafc" stroke="#555" stroke-width="2" />
  <text x="250" y="90" font-family="Arial" font-weight="bold" font-size="14" text-anchor="middle" fill="#334155">Proxmox VE Host</text>
  <rect x="70" y="120" width="360" height="150" rx="5" fill="#e2e8f0" stroke="#555" />
  <text x="250" y="160" font-family="Arial" font-weight="bold" font-size="14" text-anchor="middle" fill="#334155">Windows Server 2019</text>
  <text x="250" y="190" font-family="Arial" font-size="14" text-anchor="middle" fill="#334155">AD-DS | DNS | DHCP (172.16.32.0/19)</text>
  <rect x="70" y="300" width="360" height="150" rx="5" fill="#e2e8f0" stroke="#555" />
  <text x="250" y="340" font-family="Arial" font-weight="bold" font-size="14" text-anchor="middle" fill="#334155">Zimbra Email</text>
  <text x="250" y="370" font-family="Arial" font-size="14" text-anchor="middle" fill="#334155">Rocky Linux 8 (172.16.0.0/19)</text>
  <rect x="70" y="480" width="360" height="150" rx="5" fill="#e2e8f0" stroke="#555" />
  <text x="250" y="520" font-family="Arial" font-weight="bold" font-size="14" text-anchor="middle" fill="#334155">FreePBX (VoIP)</text>
  <text x="250" y="550" font-family="Arial" font-size="14" text-anchor="middle" fill="#334155">SNG7 | IVR | Dept Extensions</text>
  <rect x="550" y="50" width="400" height="400" rx="10" fill="#f8fafc" stroke="#555" stroke-width="2" />
  <text x="750" y="90" font-family="Arial" font-weight="bold" font-size="14" text-anchor="middle" fill="#334155">Cisco Network Stack</text>
  <rect x="570" y="120" width="360" height="80" rx="5" fill="#e2e8f0" stroke="#555" />
  <text x="750" y="160" font-family="Arial" font-weight="bold" font-size="14" text-anchor="middle" fill="#334155">L3 Switch (SW3-H33)</text>
  <rect x="570" y="240" width="360" height="80" rx="5" fill="#e2e8f0" stroke="#555" />
  <text x="750" y="280" font-family="Arial" font-weight="bold" font-size="14" text-anchor="middle" fill="#334155">L2 Switch (SW2-H33)</text>
  <rect x="570" y="350" width="360" height="80" rx="5" fill="#e2e8f0" stroke="#555" />
  <text x="750" y="390" font-family="Arial" font-weight="bold" font-size="14" text-anchor="middle" fill="#334155">Router (RT-H33)</text>
</svg>
